<svg xmlns="http://www.w3.org/2000/svg" xmlns:xlink="http://www.w3.org/1999/xlink" width="500" zoomAndPan="magnify" viewBox="0 0 375 374.999991" height="500" preserveAspectRatio="xMidYMid meet" version="1.0"><defs><clipPath id="e7a3d08c2f"><path d="M 116.4375 113 L 186 113 L 186 262.5 L 116.4375 262.5 Z M 116.4375 113 " clip-rule="nonzero"/></clipPath><clipPath id="e93d14a3d9"><path d="M 189 113 L 258.9375 113 L 258.9375 262 L 189 262 Z M 189 113 " clip-rule="nonzero"/></clipPath></defs><g clip-path="url(#e7a3d08c2f)"><path fill="#5e17eb" d="M 164.8125 115.199219 C 168.371094 113.199219 172.703125 112.5625 176.675781 113.617188 C 180.316406 114.480469 183.316406 117.367188 184.511719 120.898438 C 185.734375 124.285156 185.261719 128.011719 184.261719 131.398438 C 184.097656 131.871094 184.234375 132.34375 184.289062 132.84375 C 184.820312 135.984375 184.429688 139.179688 183.789062 142.265625 C 183.457031 143.679688 183.179688 145.097656 182.625 146.433594 C 184.902344 149.515625 185.707031 153.546875 185.289062 157.324219 C 184.984375 160.851562 184.011719 164.296875 182.539062 167.492188 C 185.734375 172.691406 185.847656 179.304688 183.875 184.972656 C 183.316406 186.054688 184.039062 187.222656 184.097656 188.332031 C 184.984375 193.585938 184.375 199.171875 181.652344 203.808594 C 185.011719 209.5625 185.761719 216.648438 184.097656 223.066406 C 186.320312 228.121094 185.625 233.984375 183.597656 238.988281 C 183.316406 239.433594 183.652344 239.902344 183.820312 240.347656 C 185.457031 244.210938 185.625 248.738281 184.039062 252.65625 C 182.484375 256.660156 179.261719 260.078125 175.203125 261.550781 C 172.871094 262.4375 170.285156 262.023438 167.925781 261.410156 C 161.730469 259.855469 155.976562 256.132812 152.503906 250.683594 C 148.640625 251.351562 144.558594 251.046875 141 249.269531 C 134.441406 246.15625 129.664062 239.265625 129.664062 231.929688 C 129.71875 231.597656 129.300781 231.539062 129.109375 231.429688 C 126.164062 230.261719 123.746094 227.84375 122.660156 224.871094 C 121.605469 222.039062 121.355469 218.898438 121.9375 215.925781 C 119.214844 213.730469 117.632812 210.421875 117.105469 207.089844 C 116.4375 203.144531 117.019531 199.058594 118.464844 195.363281 C 117.632812 192.808594 117.046875 190.167969 116.964844 187.472656 C 116.769531 183.082031 117.492188 178.496094 119.855469 174.71875 C 120.800781 173.273438 121.96875 171.996094 123.300781 170.882812 C 122.71875 166.410156 123.21875 161.769531 124.691406 157.519531 C 126.246094 153.40625 128.828125 149.433594 132.746094 147.265625 C 132.746094 144.710938 133.359375 142.015625 135.109375 140.042969 C 136.472656 138.375 138.609375 137.429688 140.75 137.402344 C 141.082031 133.039062 142.640625 128.703125 145.558594 125.398438 C 147.28125 123.34375 149.613281 121.757812 152.226562 121.148438 C 154.421875 120.648438 156.808594 121.0625 158.671875 122.3125 C 159.785156 119.3125 161.980469 116.703125 164.8125 115.199219 Z M 165.425781 117.425781 C 162.867188 118.867188 161.0625 121.453125 160.339844 124.257812 C 161.476562 125.84375 162.089844 127.816406 161.894531 129.789062 C 161.285156 129.484375 160.949219 128.898438 160.5625 128.371094 C 159.421875 126.761719 158.253906 125.066406 156.503906 124.09375 C 155.335938 123.398438 153.921875 123.316406 152.613281 123.621094 C 150.03125 124.175781 147.945312 126.09375 146.472656 128.203125 C 144.558594 131.011719 143.222656 134.34375 143.222656 137.761719 C 145.027344 138.652344 146.695312 139.820312 148.140625 141.238281 C 148.695312 141.820312 149.253906 142.429688 149.585938 143.179688 C 147.113281 142.375 144.972656 140.707031 142.5 139.957031 C 140.527344 139.347656 138.25 140.015625 136.914062 141.570312 C 135.527344 142.929688 135 144.902344 134.972656 146.820312 C 136.5 146.988281 137.972656 147.628906 139.136719 148.65625 C 140.390625 149.765625 141.582031 151.074219 141.917969 152.769531 C 141.804688 152.738281 141.582031 152.683594 141.472656 152.628906 C 139.832031 151.574219 138.445312 150.101562 136.636719 149.292969 C 135.527344 148.792969 134.191406 149.042969 133.21875 149.710938 C 130.804688 151.324219 129.109375 153.824219 127.800781 156.378906 C 125.882812 160.519531 125.050781 165.214844 125.46875 169.773438 C 127.578125 168.964844 129.859375 168.855469 132.082031 168.996094 C 131.441406 166.910156 131.46875 164.660156 131.886719 162.519531 C 131.914062 162.242188 132.082031 161.992188 132.332031 161.855469 C 132.996094 164.355469 133.109375 167.050781 134.414062 169.328125 C 136.886719 170.273438 139.582031 171.246094 141.277344 173.355469 C 140.667969 173.328125 140.082031 173.023438 139.527344 172.800781 C 136.472656 171.496094 133.136719 170.828125 129.800781 171.105469 C 127.746094 171.273438 125.691406 171.996094 124.105469 173.355469 C 121.550781 175.578125 120.078125 178.773438 119.523438 182.027344 C 118.800781 186.359375 119.328125 190.890625 120.855469 194.972656 C 121.660156 197.058594 122.800781 199.113281 124.632812 200.476562 C 126.050781 201.644531 127.800781 202.308594 129.332031 203.253906 C 128.523438 203.753906 127.550781 203.367188 126.71875 203.226562 C 123.855469 202.503906 121.4375 200.503906 119.964844 197.976562 C 119.050781 200.949219 118.800781 204.144531 119.328125 207.199219 C 119.800781 209.921875 121.078125 212.644531 123.382812 214.257812 C 125.550781 215.871094 128.496094 216.035156 131.054688 215.3125 C 130.886719 212.867188 132.582031 210.449219 135 209.949219 C 134.25 211.394531 133.054688 212.703125 132.941406 214.398438 C 132.746094 217.953125 134.5 221.34375 137 223.761719 C 136 223.761719 135.109375 223.203125 134.332031 222.59375 C 132.609375 221.175781 131.664062 219.007812 131.191406 216.871094 C 128.96875 217.898438 126.355469 217.757812 124.050781 216.980469 C 123.578125 219.84375 123.96875 222.898438 125.441406 225.429688 C 126.941406 228.039062 129.773438 229.707031 132.691406 230.234375 C 135.027344 230.566406 137.5 230.484375 139.640625 229.402344 C 140.472656 229.011719 141.167969 228.34375 142 227.929688 C 141.667969 229.125 140.75 230.011719 139.804688 230.734375 C 137.582031 232.402344 134.582031 232.625 131.914062 232.179688 C 132.082031 236.765625 134.359375 241.15625 137.722656 244.210938 C 140.417969 246.710938 143.917969 248.40625 147.613281 248.601562 C 149.503906 248.683594 151.503906 248.738281 153.253906 247.90625 C 154.503906 247.351562 155.476562 246.128906 155.671875 244.792969 C 155.144531 243.433594 154.144531 242.210938 153.949219 240.710938 C 154.921875 241.265625 155.476562 242.292969 156.28125 243.070312 C 158.726562 245.878906 161.671875 248.296875 165.089844 249.824219 C 166.257812 250.40625 167.5625 250.714844 168.730469 251.324219 C 167.839844 251.683594 166.867188 251.492188 165.953125 251.40625 C 162.617188 250.933594 159.617188 249.019531 157.253906 246.683594 C 156.839844 247.960938 155.726562 248.824219 154.726562 249.628906 C 157.171875 253.4375 160.976562 256.1875 165.089844 257.9375 C 167.675781 258.964844 170.480469 259.9375 173.289062 259.492188 C 175.953125 258.910156 178.207031 257.074219 179.871094 254.992188 C 182.484375 251.601562 183.457031 246.988281 182.289062 242.878906 C 181.59375 240.238281 179.957031 237.792969 177.539062 236.429688 C 176.925781 236.042969 176.175781 235.902344 175.648438 235.402344 C 177.816406 234.957031 180.066406 235.847656 181.625 237.375 C 183.066406 233.597656 183.847656 229.402344 182.707031 225.425781 C 181.59375 227.316406 179.734375 228.789062 177.539062 229.125 C 174.175781 229.625 170.730469 228.625 167.953125 226.707031 C 167.175781 226.148438 166.285156 225.59375 165.867188 224.675781 C 166.230469 224.675781 166.617188 224.675781 166.980469 224.84375 C 169.507812 225.761719 172.09375 226.621094 174.761719 226.929688 C 176.234375 227.066406 177.871094 227.039062 179.148438 226.148438 C 180.621094 225.121094 181.429688 223.398438 181.929688 221.730469 C 183.347656 216.507812 182.625 210.785156 180.039062 206.03125 C 178.148438 202.726562 175.484375 199.78125 172.121094 197.890625 C 169.257812 196.195312 166.035156 195.28125 162.839844 194.445312 C 162.199219 194.25 161.476562 194.167969 160.976562 193.695312 C 162.480469 193.445312 163.980469 193.53125 165.480469 193.558594 C 164.480469 191.363281 163.757812 188.972656 164.007812 186.554688 C 164.285156 186.75 164.453125 187.054688 164.5625 187.390625 C 165.453125 189.722656 166.675781 191.945312 168.203125 193.917969 C 170.425781 194.53125 172.59375 195.417969 174.480469 196.726562 C 176.621094 198.085938 178.429688 199.949219 180.039062 201.894531 C 182.234375 197.667969 182.707031 192.722656 181.929688 188.054688 C 181.039062 189.472656 179.984375 191.113281 178.207031 191.363281 C 178.679688 190.25 179.398438 189.277344 179.902344 188.195312 C 182.375 183.554688 183.539062 177.996094 182.152344 172.828125 C 181.457031 170.4375 180.402344 167.910156 178.261719 166.464844 C 177.425781 165.855469 176.371094 165.714844 175.371094 165.550781 C 176.925781 164.410156 179.207031 164.714844 180.761719 165.714844 C 182.066406 162.742188 182.816406 159.546875 183.066406 156.296875 C 183.402344 152.515625 181.957031 148.601562 179.148438 146.015625 C 177.148438 144.125 174.34375 143.238281 171.621094 143.375 C 172.066406 142.820312 172.789062 142.652344 173.453125 142.515625 C 176.039062 142.070312 178.789062 142.902344 180.789062 144.597656 C 182.039062 139.820312 183.039062 134.652344 181.457031 129.816406 C 180.789062 127.59375 179.34375 125.539062 177.289062 124.398438 C 177.261719 123.898438 177.898438 124.09375 178.207031 124.035156 C 180.207031 124.007812 181.707031 125.675781 182.625 127.289062 C 183.066406 124.789062 182.679688 122.09375 181.34375 119.898438 C 180.066406 117.8125 177.984375 116.230469 175.59375 115.671875 C 172.230469 114.921875 168.507812 115.671875 165.425781 117.425781 Z M 165.425781 117.425781 " fill-opacity="1" fill-rule="nonzero"/></g><g clip-path="url(#e93d14a3d9)"><path fill="#5e17eb" d="M 195.265625 115.199219 C 197.960938 113.394531 201.351562 112.699219 204.546875 113.226562 C 208.714844 113.839844 212.492188 116.257812 215.105469 119.535156 C 215.578125 120.0625 215.800781 120.785156 216.382812 121.175781 C 219.550781 120.589844 222.941406 120.953125 225.773438 122.5625 C 231.082031 125.34375 234.082031 131.511719 233.636719 137.402344 C 235.945312 137.457031 238.222656 138.429688 239.75 140.179688 C 241.472656 142.070312 242.28125 144.683594 242.167969 147.238281 C 246.03125 149.515625 248.949219 153.269531 250.253906 157.546875 C 251.53125 161.769531 251.867188 166.355469 250.839844 170.660156 C 253.8125 172.382812 255.8125 175.359375 256.894531 178.554688 C 258.5625 183.859375 258.421875 189.695312 256.699219 194.945312 C 256.617188 195.28125 256.421875 195.640625 256.589844 196.003906 C 258.007812 199.808594 258.367188 204.058594 257.449219 208.035156 C 256.785156 210.894531 255.226562 213.5625 252.867188 215.339844 C 253.535156 219.035156 253.226562 223.039062 251.394531 226.371094 C 250.199219 228.59375 248.058594 230.179688 245.699219 230.957031 C 245.699219 234.320312 244.890625 237.738281 243.140625 240.65625 C 241.308594 243.878906 238.5 246.515625 235.277344 248.378906 C 231.277344 250.769531 226.359375 251.796875 221.773438 250.796875 C 221.078125 252.40625 219.941406 253.796875 218.632812 254.964844 C 216.050781 257.410156 212.828125 259.019531 209.546875 260.300781 C 206.464844 261.464844 203.046875 262.300781 199.796875 261.355469 C 196.101562 260.355469 193.320312 257.296875 191.710938 253.9375 C 189.988281 250.546875 189.738281 246.683594 189.679688 242.933594 C 189.597656 236.902344 189.652344 230.847656 189.625 224.816406 C 189.679688 218.007812 189.570312 211.203125 189.625 204.367188 C 189.652344 199.390625 189.429688 194.363281 190.292969 189.417969 C 190.570312 187.804688 190.960938 186.195312 191.433594 184.636719 C 190.125 181.136719 189.652344 177.414062 189.625 173.691406 C 189.542969 169.21875 189.542969 164.714844 189.570312 160.242188 C 189.542969 156.019531 189.679688 151.65625 191.402344 147.738281 C 191.652344 147.378906 191.347656 147.015625 191.238281 146.65625 C 190.429688 144.765625 190.152344 142.679688 189.902344 140.652344 C 189.597656 137.734375 189.625 134.816406 189.597656 131.898438 C 189.597656 128.789062 189.570312 125.621094 190.179688 122.5625 C 190.792969 119.589844 192.683594 116.867188 195.265625 115.199219 Z M 203.242188 119.453125 C 202.933594 120.480469 203.546875 121.621094 204.65625 121.757812 C 204.6875 123.0625 204.65625 124.371094 204.628906 125.675781 C 202.851562 127.425781 201.101562 129.175781 199.238281 130.816406 C 199.238281 135.375 199.324219 139.929688 199.15625 144.488281 C 200.878906 146.015625 202.574219 147.597656 204.269531 149.183594 C 204.601562 149.433594 204.574219 149.90625 204.601562 150.292969 C 204.65625 155.324219 204.628906 160.351562 204.601562 165.382812 C 201.90625 167.578125 199.628906 170.246094 196.988281 172.496094 C 196.90625 174.46875 196.960938 176.441406 196.960938 178.414062 C 196.960938 185.054688 196.90625 191.695312 196.960938 198.335938 C 197.574219 199.03125 198.351562 199.585938 198.988281 200.253906 C 199.546875 200.726562 199.988281 201.363281 200.628906 201.726562 C 205.351562 201.726562 210.074219 201.726562 214.800781 201.699219 C 215.246094 201.726562 215.773438 201.585938 216.078125 202.003906 C 218.410156 204.394531 220.941406 206.589844 223.300781 208.949219 C 224.609375 209.230469 225.96875 208.949219 227.304688 209.089844 C 228.582031 210.230469 229.941406 211.367188 231.054688 212.675781 C 232.332031 212.675781 233.609375 212.644531 234.890625 212.703125 C 236.082031 213.648438 237.140625 214.785156 238.25 215.839844 C 238.140625 216.453125 237.945312 217.121094 238.222656 217.703125 C 238.695312 218.785156 240.335938 219.121094 241.167969 218.257812 C 242.113281 217.425781 241.667969 215.757812 240.558594 215.3125 C 239.972656 214.953125 239.308594 215.230469 238.777344 215.535156 C 237.585938 214.367188 236.472656 213.117188 235.195312 212.0625 C 233.917969 211.980469 232.609375 212.035156 231.332031 212.035156 C 230.082031 210.785156 228.832031 209.535156 227.46875 208.449219 C 226.21875 208.339844 224.886719 208.644531 223.691406 208.339844 C 221.191406 206.089844 218.773438 203.78125 216.410156 201.421875 C 216.132812 201.058594 215.660156 201.113281 215.273438 201.085938 C 210.492188 201.113281 205.6875 201.171875 200.90625 201.113281 C 199.738281 200.171875 198.710938 199.085938 197.574219 198.113281 C 197.488281 189.695312 197.601562 181.25 197.542969 172.828125 C 200.269531 170.578125 202.601562 167.882812 205.269531 165.578125 C 205.15625 160.128906 205.296875 154.683594 205.15625 149.238281 C 203.464844 147.488281 201.601562 145.933594 199.851562 144.265625 C 199.851562 139.929688 199.851562 135.597656 199.878906 131.261719 C 200.296875 130.648438 200.90625 130.207031 201.40625 129.707031 C 202.574219 128.621094 203.601562 127.425781 204.824219 126.371094 C 204.992188 126.175781 205.324219 125.980469 205.269531 125.675781 C 205.296875 124.371094 205.324219 123.09375 205.324219 121.785156 C 205.714844 121.648438 206.160156 121.589844 206.492188 121.3125 C 207.242188 120.480469 207.101562 118.925781 206.074219 118.394531 C 205.074219 117.785156 203.546875 118.285156 203.242188 119.453125 Z M 198.265625 120.785156 C 197.042969 121.589844 197.460938 123.816406 198.988281 123.953125 C 198.960938 125.257812 199.046875 126.59375 198.878906 127.898438 C 198.238281 128.59375 197.515625 129.261719 196.820312 129.898438 C 196.851562 135.011719 196.792969 140.097656 196.851562 145.210938 C 198.65625 146.933594 200.488281 148.628906 202.324219 150.324219 C 202.351562 155.351562 202.324219 160.351562 202.351562 165.382812 C 202.492188 165.382812 202.769531 165.355469 202.90625 165.355469 C 203.046875 163.296875 202.824219 161.214844 202.933594 159.160156 C 202.878906 156.15625 202.933594 153.128906 202.960938 150.128906 C 201.15625 148.351562 199.210938 146.710938 197.460938 144.875 C 197.40625 140.070312 197.433594 135.234375 197.433594 130.398438 C 197.960938 129.398438 199.265625 128.871094 199.601562 127.761719 C 199.628906 126.539062 199.574219 125.34375 199.628906 124.121094 C 200.488281 123.871094 201.378906 123.230469 201.324219 122.230469 C 201.40625 120.675781 199.378906 119.867188 198.265625 120.785156 Z M 208.851562 120.871094 C 207.519531 121.371094 207.4375 123.480469 208.6875 124.121094 C 209.796875 124.789062 211.519531 124.007812 211.605469 122.648438 C 211.742188 121.257812 210.046875 120.230469 208.851562 120.871094 Z M 192.015625 122.871094 C 191.097656 123.785156 191.460938 125.34375 192.542969 125.953125 C 192.625 132.902344 192.515625 139.847656 192.542969 146.792969 C 192.542969 147.097656 192.847656 147.265625 193.015625 147.488281 C 194.597656 148.851562 196.015625 150.378906 197.542969 151.796875 C 197.851562 152.101562 198.292969 152.40625 198.210938 152.90625 C 198.210938 157.074219 198.238281 161.214844 198.238281 165.382812 C 196.351562 167.132812 194.542969 168.996094 192.597656 170.691406 C 192.570312 180.441406 192.515625 190.195312 192.570312 199.949219 C 193.738281 201.199219 195.070312 202.308594 196.238281 203.558594 C 194.792969 204.921875 193.433594 206.339844 191.902344 207.617188 C 191.875 210.3125 191.847656 213.035156 191.875 215.730469 C 192.847656 216.371094 193.597656 217.257812 194.433594 218.09375 C 195.792969 219.507812 197.265625 220.816406 198.628906 222.230469 C 198.738281 224.121094 198.65625 226.011719 198.683594 227.929688 C 198.628906 228.289062 198.765625 228.734375 198.488281 229.011719 C 197.792969 229.707031 197.070312 230.375 196.265625 230.984375 C 196.101562 237.070312 196.238281 243.15625 196.183594 249.242188 C 195.265625 249.710938 194.40625 250.683594 194.820312 251.796875 C 195.265625 253.296875 197.65625 253.378906 198.292969 251.992188 C 198.628906 251.378906 198.488281 250.65625 198.15625 250.046875 C 198.292969 250.046875 198.601562 250.019531 198.738281 250.019531 C 198.796875 245.128906 198.710938 240.238281 198.738281 235.347656 C 199.433594 234.597656 200.324219 234.042969 200.933594 233.234375 C 201.074219 231.375 200.960938 229.484375 201.019531 227.59375 C 201.601562 227.066406 202.183594 226.59375 202.769531 226.066406 C 202.933594 225.871094 203.242188 225.707031 203.15625 225.398438 C 203.074219 224.457031 203.101562 223.539062 203.046875 222.59375 C 200.738281 220.675781 198.710938 218.507812 196.488281 216.507812 C 195.90625 215.871094 195.128906 215.371094 194.65625 214.648438 C 194.597656 213.203125 194.65625 211.730469 194.628906 210.257812 C 194.515625 209.421875 195.347656 208.980469 195.792969 208.421875 C 201.824219 208.476562 207.851562 208.476562 213.855469 208.367188 C 219.132812 213.394531 224.300781 218.566406 229.554688 223.59375 C 231.832031 225.929688 234.167969 228.179688 236.417969 230.511719 C 237.335938 230.566406 238.277344 230.597656 239.195312 230.597656 C 239.335938 231.234375 239.5 231.984375 240.113281 232.320312 C 241.03125 232.734375 242.28125 232.429688 242.753906 231.484375 C 243.390625 230.375 242.558594 228.816406 241.25 228.789062 C 240.390625 228.59375 239.722656 229.234375 239.308594 229.902344 C 238.445312 229.902344 237.554688 229.929688 236.695312 229.902344 C 235.582031 228.539062 234.167969 227.457031 233 226.179688 C 231.554688 224.621094 230 223.121094 228.46875 221.648438 C 225.023438 218.285156 221.578125 214.925781 218.078125 211.589844 C 216.746094 210.339844 215.464844 208.976562 214.078125 207.785156 C 209.824219 207.8125 205.546875 207.785156 201.296875 207.839844 C 199.460938 207.839844 197.601562 207.894531 195.765625 207.757812 C 195.070312 208.199219 194.488281 208.8125 193.988281 209.449219 C 193.90625 211.117188 193.960938 212.785156 193.933594 214.425781 C 193.820312 215.121094 194.515625 215.480469 194.933594 215.898438 C 197.292969 218.121094 199.574219 220.371094 201.960938 222.566406 C 202.15625 222.761719 202.433594 222.953125 202.378906 223.261719 C 202.40625 224.011719 202.433594 224.761719 202.324219 225.484375 C 201.824219 226.316406 200.628906 226.539062 200.324219 227.457031 C 200.210938 229.289062 200.378906 231.097656 200.269531 232.929688 C 199.628906 233.679688 198.796875 234.265625 198.074219 234.957031 C 198.101562 239.933594 198.074219 244.90625 198.101562 249.878906 C 197.65625 249.65625 197.210938 249.460938 196.738281 249.324219 C 196.710938 243.320312 196.710938 237.320312 196.765625 231.289062 C 197.574219 230.511719 198.574219 229.929688 199.238281 229.039062 C 199.296875 226.648438 199.183594 224.261719 199.238281 221.871094 C 196.792969 219.871094 194.710938 217.480469 192.402344 215.339844 C 192.375 212.867188 192.402344 210.421875 192.433594 207.949219 C 193.875 206.644531 195.320312 205.3125 196.683594 203.921875 C 197.515625 204.617188 198.15625 205.449219 199.015625 206.117188 C 204.15625 206.144531 209.324219 206.144531 214.492188 206.089844 C 215.105469 206.726562 215.6875 207.394531 216.328125 208.007812 C 221.96875 213.367188 227.554688 218.757812 233.167969 224.148438 C 233.554688 224.621094 234.195312 224.457031 234.75 224.484375 C 237.113281 224.425781 239.445312 224.539062 241.808594 224.511719 C 241.722656 224.34375 241.558594 224.039062 241.472656 223.898438 C 239.027344 223.84375 236.554688 223.898438 234.109375 223.898438 C 233.75 223.925781 233.527344 223.59375 233.277344 223.398438 C 230.386719 220.621094 227.46875 217.898438 224.636719 215.089844 C 221.71875 212.285156 218.746094 209.535156 215.855469 206.699219 C 215.410156 206.3125 215.105469 205.78125 214.578125 205.5625 C 209.4375 205.5625 204.296875 205.671875 199.183594 205.53125 C 197.183594 203.644531 195.183594 201.753906 193.210938 199.835938 C 193.070312 190.335938 193.238281 180.832031 193.183594 171.328125 C 193.292969 171.105469 193.433594 170.941406 193.625 170.773438 C 195.378906 169.105469 197.15625 167.4375 198.851562 165.714844 C 198.988281 162.882812 198.824219 160.019531 198.90625 157.15625 C 198.851562 155.492188 199.015625 153.796875 198.796875 152.128906 C 197.324219 150.792969 195.960938 149.378906 194.488281 148.015625 C 194.015625 147.460938 193.097656 147.070312 193.15625 146.238281 C 193.265625 139.542969 193.125 132.84375 193.265625 126.175781 C 194.347656 126.230469 195.460938 125.34375 195.292969 124.203125 C 195.265625 122.535156 193.015625 121.703125 192.015625 122.871094 Z M 194.628906 129.207031 C 194.597656 134.816406 194.683594 140.429688 194.628906 146.042969 C 196.542969 147.710938 198.265625 149.570312 200.183594 151.238281 C 200.210938 156.324219 200.238281 161.4375 200.210938 166.523438 C 198.292969 168.1875 196.515625 169.996094 194.683594 171.746094 C 194.597656 180.082031 194.683594 188.417969 194.683594 196.726562 C 194.710938 197.53125 194.570312 198.363281 194.710938 199.140625 C 196.351562 200.671875 198.042969 202.144531 199.601562 203.753906 L 199.765625 203.808594 C 204.851562 203.808594 209.9375 203.839844 214.996094 203.753906 C 215.964844 204.53125 216.746094 205.503906 217.6875 206.339844 C 223.246094 211.617188 228.804688 216.898438 234.359375 222.175781 C 236.804688 222.289062 239.25 222.175781 241.695312 222.230469 C 242.390625 222.675781 242.917969 223.371094 243.558594 223.898438 C 243.476562 224.984375 243.476562 226.066406 243.53125 227.152344 C 243.640625 227.121094 243.890625 227.039062 244.003906 227.011719 C 244.226562 225.929688 244.058594 224.789062 244.195312 223.703125 C 243.558594 222.984375 242.753906 222.371094 242.085938 221.675781 C 240.195312 221.59375 238.277344 221.730469 236.390625 221.648438 C 235.640625 221.566406 234.722656 221.871094 234.195312 221.203125 C 231.25 218.371094 228.21875 215.5625 225.304688 212.703125 C 221.96875 209.480469 218.523438 206.394531 215.300781 203.085938 C 213.4375 203.226562 211.578125 203.171875 209.714844 203.199219 C 206.464844 203.199219 203.242188 203.226562 200.015625 203.171875 C 198.433594 201.835938 196.988281 200.308594 195.433594 198.949219 C 195.210938 197.53125 195.40625 196.085938 195.320312 194.640625 C 195.292969 187.445312 195.265625 180.21875 195.292969 173.023438 C 195.347656 172.578125 195.210938 172.023438 195.597656 171.691406 C 197.324219 170.023438 199.15625 168.4375 200.824219 166.6875 C 200.824219 161.742188 200.796875 156.796875 200.796875 151.851562 C 200.738281 151.488281 200.878906 151.042969 200.601562 150.765625 C 198.796875 149.128906 197.101562 147.40625 195.320312 145.765625 C 195.128906 142.070312 195.292969 138.375 195.210938 134.679688 C 195.238281 132.902344 195.128906 131.121094 195.292969 129.371094 C 196.070312 128.425781 197.070312 127.675781 197.792969 126.675781 C 198.074219 126.34375 197.851562 125.898438 197.65625 125.566406 C 197.070312 127.175781 195.597656 127.984375 194.628906 129.207031 Z M 217.050781 128.234375 C 217.132812 128.789062 217.578125 129.148438 217.996094 129.511719 C 217.996094 130.066406 217.996094 130.621094 217.996094 131.179688 C 215.964844 132.84375 214.1875 134.816406 212.269531 136.625 C 210.464844 138.347656 208.824219 140.179688 206.910156 141.765625 C 206.214844 141.179688 205.601562 140.484375 204.992188 139.820312 C 205.65625 139.011719 206.4375 138.320312 207.1875 137.570312 C 208.410156 136.375 209.546875 135.097656 210.910156 134.011719 C 210.910156 133.371094 210.910156 132.707031 210.964844 132.066406 C 211.214844 131.761719 211.6875 131.707031 211.992188 131.429688 C 212.882812 130.707031 212.714844 129.148438 211.769531 128.539062 C 210.828125 127.898438 209.382812 128.234375 208.910156 129.289062 C 208.410156 130.371094 209.105469 131.761719 210.296875 131.929688 C 210.296875 132.511719 210.410156 133.09375 210.269531 133.679688 C 208.4375 135.429688 206.714844 137.234375 204.878906 138.984375 C 204.433594 139.320312 204.296875 140.042969 204.714844 140.457031 C 205.40625 141.238281 206.242188 141.929688 206.964844 142.679688 C 209.269531 140.597656 211.4375 138.347656 213.632812 136.152344 C 215.273438 134.59375 216.800781 132.871094 218.632812 131.539062 C 218.605469 130.929688 218.605469 130.34375 218.605469 129.734375 C 219.246094 129.648438 219.996094 129.539062 220.414062 128.984375 C 221.246094 128.011719 220.664062 126.289062 219.382812 126.066406 C 218.078125 125.621094 216.773438 126.953125 217.050781 128.234375 Z M 223.136719 129.148438 C 222.636719 130.175781 223.191406 131.566406 224.386719 131.789062 C 224.359375 132.679688 224.550781 133.59375 224.300781 134.457031 C 223.496094 135.375 222.550781 136.125 221.746094 137.039062 C 221.46875 137.261719 221.246094 137.679688 220.855469 137.625 C 218.828125 137.652344 216.828125 137.625 214.800781 137.597656 C 214.4375 137.625 213.992188 137.511719 213.742188 137.875 C 211.410156 140.265625 208.992188 142.515625 206.601562 144.847656 C 205.6875 143.902344 204.574219 143.097656 203.714844 142.125 C 203.601562 139.402344 203.601562 136.679688 203.714844 133.957031 C 204.492188 133.761719 205.269531 133.289062 205.378906 132.429688 C 205.65625 131.289062 204.574219 130.207031 203.433594 130.289062 C 202.210938 130.398438 201.269531 131.789062 201.769531 132.957031 C 201.960938 133.539062 202.769531 133.566406 203.019531 134.066406 C 203.101562 136.875 203.019531 139.679688 203.101562 142.515625 C 204.324219 143.488281 205.378906 144.738281 206.660156 145.625 C 209.105469 143.347656 211.464844 141.015625 213.882812 138.679688 C 214.105469 138.511719 214.300781 138.207031 214.605469 138.234375 C 216.910156 138.179688 219.21875 138.261719 221.523438 138.292969 C 222.578125 137.070312 223.746094 135.984375 224.941406 134.875 C 225.164062 133.902344 224.941406 132.84375 225.082031 131.84375 C 226.21875 131.761719 227.164062 130.648438 226.832031 129.511719 C 226.441406 127.871094 223.773438 127.59375 223.136719 129.148438 Z M 227.027344 137.902344 C 226.691406 138.402344 226.71875 139.011719 226.832031 139.597656 C 222.800781 139.652344 218.773438 139.765625 214.742188 139.679688 C 214.6875 140.875 214.714844 142.070312 214.714844 143.265625 C 213.300781 144.625 211.855469 145.988281 210.4375 147.320312 C 209.324219 148.351562 208.324219 149.488281 207.046875 150.324219 C 207.046875 155.046875 207.019531 159.742188 206.992188 164.464844 C 206.964844 164.992188 207.074219 165.519531 206.910156 166.019531 C 204.433594 168.246094 202.183594 170.691406 199.65625 172.855469 C 199.683594 181.054688 199.65625 189.222656 199.65625 197.417969 C 205.464844 197.449219 211.296875 197.390625 217.105469 197.417969 C 218.441406 198.503906 219.664062 199.726562 220.914062 200.949219 C 222.359375 201.226562 223.914062 200.894531 225.414062 201.03125 C 226.582031 201.976562 227.46875 203.28125 228.777344 204.058594 C 230.75 204.03125 232.722656 203.921875 234.695312 204.089844 C 235.972656 205.3125 237.304688 206.476562 238.554688 207.726562 C 240.972656 207.894531 243.390625 207.699219 245.808594 207.785156 C 245.808594 207.644531 245.835938 207.339844 245.835938 207.171875 C 243.640625 207.144531 241.417969 207.226562 239.222656 207.144531 C 238.972656 207.171875 238.75 207.0625 238.613281 206.867188 C 237.445312 205.699219 236.195312 204.589844 235 203.449219 C 232.972656 203.28125 230.886719 203.394531 228.859375 203.367188 C 227.691406 202.53125 226.804688 201.363281 225.691406 200.449219 C 224.273438 200.226562 222.828125 200.53125 221.386719 200.394531 C 220.605469 199.863281 220.023438 199.113281 219.300781 198.53125 C 218.605469 197.976562 218.105469 197.199219 217.328125 196.78125 C 211.660156 196.863281 206.019531 196.808594 200.351562 196.835938 C 200.269531 195.726562 200.296875 194.585938 200.296875 193.472656 C 200.296875 186.832031 200.324219 180.191406 200.324219 173.550781 C 200.269531 173.050781 200.738281 172.773438 201.019531 172.46875 C 202.796875 170.828125 204.546875 169.1875 206.242188 167.492188 C 206.6875 166.992188 207.324219 166.660156 207.632812 166.078125 C 207.632812 161.992188 207.660156 157.9375 207.601562 153.851562 C 209.382812 152.296875 211.046875 150.601562 212.742188 148.933594 C 215.910156 149.015625 219.078125 148.851562 222.246094 148.878906 C 223.109375 148.820312 223.996094 148.933594 224.859375 148.738281 C 225.332031 148.433594 225.773438 148.042969 226.023438 147.515625 C 225.082031 147.515625 224.386719 148.351562 223.441406 148.292969 C 219.773438 148.351562 216.078125 148.265625 212.410156 148.378906 C 210.796875 149.90625 209.324219 151.574219 207.601562 152.960938 C 207.601562 152.265625 207.519531 151.546875 207.660156 150.851562 C 210.1875 148.488281 212.632812 146.042969 215.214844 143.738281 C 217.660156 143.625 220.132812 143.710938 222.578125 143.679688 C 222.859375 145.152344 224.859375 145.710938 225.886719 144.652344 C 226.941406 143.792969 226.332031 141.902344 225.023438 141.707031 C 223.996094 141.375 222.96875 142.070312 222.636719 143.070312 C 220.21875 143.070312 217.773438 143.070312 215.355469 143.125 C 215.355469 142.207031 215.355469 141.292969 215.328125 140.375 C 219.050781 140.347656 222.746094 140.292969 226.46875 140.292969 C 227.332031 140.234375 228.082031 140.902344 228.941406 140.707031 C 230.222656 140.625 231.027344 138.984375 230.25 137.929688 C 229.582031 136.761719 227.664062 136.761719 227.027344 137.902344 Z M 234.609375 144.625 C 233.667969 144.570312 232.695312 144.570312 231.75 144.542969 C 231.445312 144.570312 231.054688 144.433594 230.832031 144.710938 C 228.941406 146.597656 227.054688 148.488281 225.136719 150.351562 C 221.246094 150.488281 217.328125 150.40625 213.410156 150.460938 C 212.019531 151.824219 210.660156 153.210938 209.132812 154.433594 C 209.160156 155.324219 209.160156 156.242188 209.1875 157.128906 C 209.324219 157.101562 209.574219 157.019531 209.6875 156.992188 C 209.742188 156.242188 209.6875 155.492188 209.714844 154.742188 C 211.132812 153.601562 212.300781 152.183594 213.714844 151.074219 C 217.550781 150.988281 221.386719 150.988281 225.21875 151.015625 C 225.523438 150.933594 225.664062 150.628906 225.886719 150.460938 C 227.664062 148.65625 229.527344 146.960938 231.25 145.097656 C 232.386719 145.097656 233.527344 145.152344 234.640625 145.183594 C 234.832031 145.65625 234.945312 146.292969 235.5 146.460938 C 236.582031 146.960938 237.945312 146.375 238.363281 145.265625 C 238.75 143.933594 237.25 142.515625 235.917969 143.042969 C 235.222656 143.265625 234.890625 144.015625 234.609375 144.625 Z M 230.722656 147.878906 C 229.636719 148.851562 228.664062 149.988281 227.554688 150.960938 C 226.914062 151.488281 226.441406 152.238281 225.691406 152.628906 C 221.941406 152.65625 218.191406 152.628906 214.4375 152.683594 C 213.328125 153.824219 212.160156 154.90625 210.9375 155.933594 C 210.9375 156.519531 210.9375 157.101562 210.910156 157.6875 C 210.296875 158.15625 209.714844 158.601562 209.046875 158.992188 C 209.019531 161.214844 209.046875 163.410156 209.046875 165.632812 C 209.019531 166.160156 209.214844 166.828125 208.714844 167.214844 C 206.410156 169.4375 204.128906 171.691406 201.710938 173.800781 C 201.628906 179.832031 201.769531 185.886719 201.65625 191.917969 C 201.546875 192.667969 202.324219 193.03125 202.710938 193.53125 C 203.296875 194 203.714844 194.890625 204.574219 194.808594 C 208.882812 194.78125 213.214844 194.808594 217.523438 194.753906 C 218.828125 196.167969 220.355469 197.363281 221.605469 198.835938 C 228.46875 198.890625 235.304688 198.863281 242.167969 198.890625 C 242.722656 199.449219 243.226562 200.058594 243.890625 200.449219 C 245.28125 200.394531 246.699219 200.394531 248.085938 200.394531 C 248.363281 201.363281 249.253906 202.199219 250.335938 201.949219 C 251.808594 201.835938 252.421875 199.753906 251.308594 198.835938 C 250.335938 197.863281 248.28125 198.308594 248.171875 199.78125 C 246.753906 199.808594 245.308594 199.890625 243.890625 199.78125 C 243.390625 199.363281 242.972656 198.835938 242.503906 198.390625 C 243.390625 197.53125 244.226562 196.585938 245.113281 195.722656 C 245.503906 195.390625 245.78125 194.972656 246.03125 194.53125 C 247.449219 194.53125 248.863281 194.558594 250.28125 194.53125 C 250.449219 194.945312 250.503906 195.417969 250.808594 195.78125 C 251.558594 196.558594 252.976562 196.558594 253.699219 195.753906 C 254.535156 194.753906 253.976562 193.03125 252.753906 192.667969 C 251.78125 192.390625 250.726562 193 250.421875 193.917969 C 248.835938 193.945312 247.28125 193.890625 245.699219 193.945312 C 245.226562 194.25 245.058594 194.863281 244.640625 195.222656 C 243.667969 196.140625 242.835938 197.167969 241.890625 198.140625 C 241.445312 198.28125 241 198.226562 240.558594 198.253906 C 234.359375 198.253906 228.164062 198.199219 221.996094 198.253906 C 220.605469 196.863281 219.132812 195.558594 217.828125 194.113281 C 213.328125 194.195312 208.824219 194.113281 204.351562 194.195312 C 203.683594 193.53125 203.019531 192.863281 202.324219 192.25 C 202.296875 188.332031 202.324219 184.414062 202.296875 180.496094 C 202.324219 178.496094 202.183594 176.46875 202.296875 174.46875 C 202.296875 173.996094 202.796875 173.746094 203.074219 173.441406 C 205.128906 171.632812 207.046875 169.660156 209.074219 167.828125 C 209.296875 167.578125 209.632812 167.382812 209.605469 166.992188 C 209.632812 164.519531 209.574219 162.074219 209.632812 159.601562 C 210.160156 159.074219 210.855469 158.769531 211.4375 158.324219 C 211.464844 157.65625 211.464844 157.019531 211.464844 156.351562 C 212.605469 155.378906 213.6875 154.296875 214.828125 153.296875 C 218.605469 153.238281 222.359375 153.210938 226.136719 153.269531 C 227.71875 151.65625 229.359375 150.15625 230.941406 148.542969 C 232.5 148.347656 234.082031 148.542969 235.640625 148.320312 C 235.917969 148.265625 236.054688 148.070312 236.027344 147.765625 C 234.25 147.90625 232.472656 147.738281 230.722656 147.878906 Z M 237.640625 149.40625 C 237.417969 149.683594 237.335938 150.210938 236.890625 150.15625 C 235.054688 150.210938 233.222656 150.15625 231.386719 150.15625 C 230 151.546875 228.554688 152.878906 227.164062 154.296875 C 226.886719 154.546875 226.609375 154.90625 226.191406 154.878906 C 223.023438 154.90625 219.855469 154.90625 216.660156 154.90625 C 216.132812 154.824219 215.800781 155.296875 215.464844 155.628906 C 214.4375 156.769531 213.300781 157.796875 212.160156 158.824219 C 211.742188 159.214844 211.242188 159.660156 211.269531 160.296875 C 211.160156 162.796875 211.355469 165.328125 211.160156 167.828125 C 210.546875 168.578125 209.769531 169.21875 209.074219 169.910156 C 207.324219 171.550781 205.628906 173.273438 203.742188 174.800781 C 203.742188 180.246094 203.769531 185.722656 203.714844 191.167969 C 203.628906 191.835938 204.242188 192.363281 204.796875 192.613281 C 209.214844 192.585938 213.605469 192.613281 218.023438 192.558594 C 218.300781 192.527344 218.523438 192.640625 218.691406 192.835938 C 219.882812 194.03125 221.078125 195.222656 222.300781 196.417969 C 222.46875 196.613281 222.664062 196.695312 222.914062 196.667969 C 228.636719 196.585938 234.359375 196.640625 240.058594 196.613281 C 241.53125 195.28125 242.753906 193.667969 244.335938 192.445312 C 246.140625 192.363281 247.949219 192.445312 249.753906 192.390625 C 249.867188 191.585938 250.058594 190.804688 250.03125 189.972656 C 247.671875 189.835938 245.28125 189.804688 242.917969 189.835938 C 241.390625 191 240.25 192.695312 238.695312 193.808594 C 234.054688 193.863281 229.414062 193.890625 224.746094 193.890625 C 224.386719 193.863281 223.914062 194 223.609375 193.722656 C 222.21875 192.472656 220.996094 191.054688 219.578125 189.804688 C 218.160156 189.640625 216.746094 189.75 215.328125 189.722656 C 215.328125 186.804688 215.300781 183.886719 215.328125 180.96875 C 219.523438 180.96875 223.71875 180.941406 227.914062 181.054688 C 228.886719 181.777344 229.664062 182.722656 230.636719 183.441406 C 232.222656 183.472656 233.804688 183.441406 235.390625 183.5 C 235.582031 184.054688 235.777344 184.664062 236.363281 184.945312 C 237.390625 185.582031 238.917969 184.945312 239.167969 183.75 C 239.445312 182.472656 238.113281 181.25 236.863281 181.527344 C 236.140625 181.609375 235.722656 182.304688 235.390625 182.859375 C 233.859375 182.832031 232.332031 182.832031 230.832031 182.804688 C 229.859375 182.082031 229.109375 181.109375 228.136719 180.386719 C 223.941406 180.277344 219.71875 180.46875 215.523438 180.332031 L 215.382812 180.191406 C 215.355469 179.082031 215.328125 177.96875 215.382812 176.886719 C 215.882812 176.164062 216.550781 175.609375 217.160156 174.941406 C 217.496094 174.664062 217.773438 174.191406 218.300781 174.246094 C 221.078125 174.246094 223.859375 174.21875 226.664062 174.273438 C 228.136719 172.773438 229.71875 171.382812 231.191406 169.910156 C 232 169.160156 232.722656 168.328125 233.636719 167.714844 C 235.277344 169.023438 236.722656 170.523438 238.335938 171.882812 C 238.585938 172.382812 238.335938 173.105469 238.777344 173.550781 C 239.613281 174.550781 241.222656 174.414062 242.003906 173.414062 C 243.445312 173.523438 244.917969 173.414062 246.363281 173.496094 C 246.113281 174.746094 247.226562 175.996094 248.503906 175.71875 C 249.808594 175.664062 250.503906 173.996094 249.753906 172.96875 C 249.03125 171.800781 247.113281 171.773438 246.476562 173.023438 C 245.058594 172.855469 243.613281 172.941406 242.167969 172.882812 C 242.222656 171.941406 241.78125 170.800781 240.722656 170.660156 C 239.945312 170.410156 239.167969 170.773438 238.667969 171.355469 C 237.195312 170.1875 235.945312 168.773438 234.5 167.578125 C 234.082031 167.1875 233.359375 167.050781 232.886719 167.4375 C 230.691406 169.46875 228.636719 171.605469 226.414062 173.605469 C 223.523438 173.71875 220.632812 173.578125 217.746094 173.691406 C 216.96875 174.21875 216.410156 174.96875 215.714844 175.578125 C 215.328125 175.996094 214.714844 176.359375 214.800781 177.023438 C 214.828125 181.46875 214.800781 185.917969 214.828125 190.363281 C 216.214844 190.363281 217.605469 190.363281 218.996094 190.363281 C 219.355469 190.304688 219.578125 190.640625 219.828125 190.863281 C 220.828125 191.890625 221.914062 192.78125 222.886719 193.835938 C 223.164062 194.113281 223.441406 194.53125 223.914062 194.472656 C 226.996094 194.472656 230.109375 194.472656 233.222656 194.472656 C 235.082031 194.503906 236.945312 194.335938 238.808594 194.472656 C 239.195312 194.53125 239.445312 194.167969 239.695312 193.945312 C 240.863281 192.75 242.03125 191.585938 243.226562 190.417969 C 245.28125 190.417969 247.363281 190.390625 249.421875 190.5 C 249.421875 190.917969 249.421875 191.363281 249.421875 191.777344 C 247.644531 191.777344 245.890625 191.777344 244.113281 191.75 C 242.945312 192.945312 241.722656 194.085938 240.613281 195.335938 C 240.308594 195.640625 239.972656 196.085938 239.5 196.003906 C 234.554688 196.03125 229.609375 195.976562 224.636719 196.03125 C 224.050781 196.003906 223.46875 196.085938 222.886719 195.945312 C 221.800781 195.003906 220.800781 194 219.800781 193 C 219.355469 192.613281 219.050781 191.863281 218.355469 191.972656 C 214.023438 191.945312 209.6875 192.027344 205.351562 191.972656 C 204.878906 192.027344 204.351562 191.695312 204.464844 191.195312 C 204.464844 186.027344 204.464844 180.832031 204.464844 175.664062 C 204.378906 175.273438 204.714844 175.023438 204.9375 174.773438 C 206.992188 172.882812 209.046875 170.996094 210.992188 168.996094 C 211.328125 168.605469 211.9375 168.328125 211.910156 167.746094 C 211.9375 165.355469 211.9375 162.9375 211.9375 160.546875 C 211.882812 160.046875 212.300781 159.742188 212.605469 159.4375 C 213.910156 158.1875 215.1875 156.90625 216.4375 155.601562 C 219.855469 155.433594 223.273438 155.574219 226.691406 155.519531 C 227.527344 155.046875 228.109375 154.210938 228.832031 153.601562 C 229.832031 152.738281 230.636719 151.683594 231.636719 150.824219 C 233.554688 150.710938 235.472656 150.765625 237.363281 150.710938 C 237.75 151.878906 239.25 152.460938 240.308594 151.824219 C 241.25 151.296875 241.335938 149.90625 240.667969 149.128906 C 239.863281 148.183594 238.195312 148.378906 237.640625 149.40625 Z M 193.292969 152.933594 C 192.210938 153.988281 193.042969 155.964844 194.542969 156.019531 C 194.597656 158.910156 194.570312 161.824219 194.597656 164.714844 C 194.570312 165.019531 194.65625 165.410156 194.433594 165.660156 C 193.433594 166.773438 192.265625 167.6875 191.347656 168.855469 C 191.152344 169.078125 191.070312 169.300781 191.125 169.605469 C 191.402344 169.46875 191.683594 169.355469 191.875 169.132812 C 192.792969 168.214844 193.710938 167.273438 194.65625 166.355469 C 194.90625 166.078125 195.265625 165.828125 195.210938 165.4375 C 195.210938 162.296875 195.183594 159.1875 195.183594 156.046875 C 195.960938 155.796875 196.738281 155.183594 196.628906 154.269531 C 196.628906 152.65625 194.292969 151.574219 193.292969 152.933594 Z M 227.636719 156.878906 C 227.386719 157.128906 226.96875 157.046875 226.664062 157.074219 C 223.578125 157.101562 220.496094 157.101562 217.410156 157.15625 C 217.105469 157.128906 216.910156 157.378906 216.71875 157.546875 C 215.746094 158.519531 214.742188 159.4375 213.714844 160.351562 C 213.4375 160.546875 213.382812 160.882812 213.382812 161.1875 C 213.269531 163.6875 213.578125 166.242188 213.269531 168.714844 C 211.882812 170.023438 210.464844 171.328125 209.214844 172.773438 C 209.355469 172.828125 209.574219 172.96875 209.714844 173.050781 C 211.132812 171.605469 212.6875 170.300781 213.992188 168.773438 C 214.105469 166.1875 213.882812 163.578125 214.050781 161.019531 C 215.160156 159.910156 216.273438 158.851562 217.4375 157.796875 C 220.886719 157.519531 224.386719 157.824219 227.859375 157.546875 C 228.832031 156.65625 229.722656 155.710938 230.691406 154.824219 C 230.941406 154.628906 231.164062 154.324219 231.5 154.378906 C 232.332031 154.40625 233.195312 154.242188 234 154.492188 C 235.25 155.769531 236.527344 156.964844 237.917969 158.074219 C 238.25 158.546875 238.5 159.074219 238.917969 159.492188 C 231.972656 159.492188 225.023438 159.492188 218.105469 159.519531 C 217.246094 160.1875 216.496094 160.992188 215.660156 161.6875 C 215.6875 164.019531 215.632812 166.328125 215.6875 168.660156 C 215.660156 168.964844 215.800781 169.355469 215.523438 169.578125 C 213.714844 171.21875 212.050781 172.96875 210.324219 174.71875 C 209.605469 174.164062 208.632812 173.578125 207.714844 174.078125 C 206.296875 174.664062 206.546875 177.191406 208.101562 177.386719 C 209.214844 177.441406 210.324219 177.273438 211.4375 177.332031 C 213.269531 175.300781 215.410156 173.578125 217.300781 171.578125 C 217.6875 171.050781 218.578125 170.773438 218.523438 170.023438 C 218.578125 167.492188 218.523438 164.9375 218.550781 162.410156 C 226.746094 162.382812 234.945312 162.269531 243.140625 162.269531 C 243.503906 162.296875 243.890625 162.1875 244.226562 162.382812 C 244.503906 162.742188 244.699219 163.160156 245.085938 163.410156 C 246.113281 164.105469 247.835938 163.410156 247.894531 162.105469 C 248.058594 161.019531 247.03125 159.964844 245.949219 160.074219 C 245.03125 160.046875 244.363281 160.824219 244.226562 161.660156 C 236.140625 161.742188 228.027344 161.742188 219.914062 161.769531 C 219.246094 161.824219 218.382812 161.574219 217.96875 162.242188 C 217.828125 164.882812 218.050781 167.578125 217.855469 170.21875 C 215.660156 172.355469 213.4375 174.496094 211.214844 176.636719 C 210.769531 176.859375 210.242188 176.691406 209.796875 176.664062 C 210.105469 176.050781 210.4375 175.441406 210.9375 174.96875 C 212.492188 173.441406 213.992188 171.828125 215.605469 170.355469 C 215.828125 170.105469 216.1875 169.910156 216.300781 169.550781 C 216.355469 167.050781 216.1875 164.519531 216.355469 162.019531 C 216.96875 161.324219 217.660156 160.6875 218.382812 160.128906 C 224.773438 160.074219 231.164062 160.128906 237.585938 160.074219 C 238.167969 160.101562 238.695312 159.910156 239.222656 159.714844 C 239.835938 159.6875 240.53125 159.769531 241.058594 159.324219 C 242.113281 158.519531 241.808594 156.574219 240.53125 156.128906 C 239.5 155.710938 238.472656 156.433594 237.945312 157.296875 C 236.640625 156.214844 235.472656 154.992188 234.25 153.824219 C 233.136719 153.683594 232 153.738281 230.886719 153.796875 C 229.75 154.769531 228.75 155.878906 227.636719 156.878906 Z M 228.277344 166.660156 C 227.636719 166.6875 226.914062 166.828125 226.359375 166.410156 C 225.804688 166.019531 225.050781 165.910156 224.441406 166.214844 C 223.359375 166.660156 223.078125 168.246094 223.886719 169.078125 C 224.746094 169.910156 226.332031 169.71875 226.941406 168.714844 C 227.082031 168.246094 226.996094 167.773438 227.027344 167.300781 C 227.664062 167.273438 228.304688 167.328125 228.914062 167.242188 C 229.5 166.800781 229.914062 166.1875 230.472656 165.769531 C 233.027344 165.6875 235.582031 165.742188 238.140625 165.769531 C 239.222656 166.800781 240.390625 167.773438 241.308594 168.964844 C 242.417969 169.023438 243.53125 169.023438 244.640625 168.996094 C 244.890625 170.273438 246.390625 170.996094 247.53125 170.300781 C 248.894531 169.632812 248.558594 167.300781 247.058594 167.023438 C 246.03125 166.714844 245.003906 167.410156 244.640625 168.355469 C 243.640625 168.328125 242.613281 168.4375 241.640625 168.273438 C 240.558594 167.242188 239.527344 166.160156 238.445312 165.160156 C 235.832031 164.992188 233.195312 165.105469 230.582031 165.105469 C 229.527344 165.078125 229.332031 166.632812 228.277344 166.660156 Z M 227.554688 175.578125 C 227.332031 175.828125 226.96875 175.746094 226.664062 175.746094 C 223.773438 175.71875 220.914062 175.71875 218.023438 175.71875 C 218.023438 176.71875 218.023438 177.691406 218.023438 178.691406 C 221.136719 178.71875 224.273438 178.71875 227.386719 178.691406 C 227.386719 178.554688 227.386719 178.246094 227.386719 178.082031 C 224.46875 178.054688 221.550781 178.136719 218.632812 177.996094 C 218.660156 177.441406 218.660156 176.886719 218.660156 176.328125 C 221.636719 176.328125 224.609375 176.328125 227.582031 176.359375 C 228.75 175.441406 229.75 174.328125 230.859375 173.355469 C 231.914062 174.273438 233 175.191406 234.027344 176.136719 C 234.222656 176.609375 233.886719 177.164062 234.082031 177.636719 C 234.445312 178.554688 235.582031 179.082031 236.5 178.71875 C 236.945312 178.582031 237.277344 178.191406 237.613281 177.886719 C 238.445312 178.273438 239.085938 178.914062 239.695312 179.582031 C 243.140625 179.527344 246.613281 179.496094 250.058594 179.554688 C 250.253906 179.96875 250.394531 180.46875 250.78125 180.777344 C 251.867188 181.71875 253.976562 180.832031 253.839844 179.332031 C 253.867188 178.164062 252.644531 177.300781 251.53125 177.609375 C 250.839844 177.746094 250.449219 178.386719 250.117188 178.941406 C 246.78125 178.96875 243.476562 178.96875 240.140625 178.941406 C 239.335938 178.523438 238.808594 177.636719 237.890625 177.332031 C 237.722656 176.550781 237.445312 175.664062 236.582031 175.414062 C 235.863281 175.050781 235.082031 175.300781 234.472656 175.773438 C 233.25 174.746094 232.136719 173.550781 230.804688 172.691406 C 229.609375 173.550781 228.664062 174.664062 227.554688 175.578125 Z M 208.214844 180.414062 C 207.574219 181.277344 207.742188 182.804688 208.824219 183.222656 C 209.046875 183.359375 209.4375 183.441406 209.382812 183.777344 C 209.4375 185.304688 209.382812 186.859375 209.410156 188.390625 C 210.519531 188.332031 211.632812 188.304688 212.742188 188.332031 C 212.742188 188.195312 212.742188 187.917969 212.742188 187.75 C 211.828125 187.75 210.910156 187.75 209.992188 187.777344 C 209.992188 186.332031 209.964844 184.859375 210.019531 183.414062 C 210.546875 183.191406 211.214844 183.027344 211.464844 182.441406 C 211.796875 181.71875 211.742188 180.746094 211.105469 180.191406 C 210.296875 179.496094 208.9375 179.636719 208.214844 180.414062 Z M 218.605469 183.359375 C 217.21875 183.886719 217.1875 186.195312 218.550781 186.777344 C 219.882812 187.082031 221.273438 186.554688 222.636719 186.804688 C 224.441406 188.582031 226.21875 190.417969 228.054688 192.195312 C 231.472656 192.195312 234.859375 192.167969 238.277344 192.167969 C 239.445312 190.835938 240.75 189.613281 242.03125 188.390625 C 244.613281 188.195312 247.226562 188.417969 249.78125 188.167969 C 249.753906 188.054688 249.726562 187.832031 249.699219 187.722656 C 247.003906 187.527344 244.308594 187.75 241.613281 187.722656 C 240.472656 189.082031 239.195312 190.277344 237.890625 191.472656 C 235.167969 191.613281 232.414062 191.472656 229.691406 191.558594 C 229.136719 191.527344 228.441406 191.722656 228.027344 191.222656 C 226.496094 189.722656 224.941406 188.25 223.496094 186.667969 C 222.96875 185.859375 221.886719 186.195312 221.078125 186.109375 C 220.191406 186.054688 218.996094 186.667969 218.382812 185.695312 C 217.6875 184.75 218.882812 183.472656 219.882812 183.886719 C 220.441406 184.027344 220.441406 184.636719 220.496094 185.082031 C 221.605469 185.136719 222.71875 185.136719 223.859375 185.054688 C 225.46875 186.722656 227.21875 188.25 228.832031 189.917969 C 231.554688 189.863281 234.304688 189.945312 237.027344 189.863281 C 238.390625 188.75 239.5 187.332031 240.863281 186.195312 C 244.085938 186.167969 247.335938 186.136719 250.558594 186.136719 C 250.839844 187.527344 252.78125 188.027344 253.785156 187.054688 C 254.753906 186.222656 254.339844 184.445312 253.144531 184.082031 C 252.03125 183.636719 250.753906 184.359375 250.503906 185.527344 C 247.140625 185.527344 243.808594 185.554688 240.445312 185.554688 C 239.308594 186.832031 238.054688 188.027344 236.832031 189.195312 C 234.304688 189.363281 231.777344 189.222656 229.25 189.277344 C 227.386719 187.917969 225.914062 186.054688 224.191406 184.5 C 223.246094 184.386719 222.273438 184.472656 221.300781 184.414062 C 220.886719 183.441406 219.664062 182.886719 218.605469 183.359375 Z M 233.445312 199.390625 C 233.386719 200.085938 233.386719 200.808594 233.359375 201.53125 C 234.136719 201.585938 234.972656 201.363281 235.722656 201.613281 C 237.140625 202.671875 238.25 204.117188 239.640625 205.199219 C 243.226562 205.28125 246.835938 205.171875 250.421875 205.253906 C 250.753906 205.671875 250.894531 206.339844 251.476562 206.535156 C 252.617188 207.144531 254.339844 206.285156 254.226562 204.894531 C 254.285156 203.644531 252.921875 202.753906 251.753906 203.144531 C 251.03125 203.28125 250.78125 204.058594 250.503906 204.644531 C 246.976562 204.589844 243.417969 204.617188 239.890625 204.617188 C 238.554688 203.589844 237.5 202.199219 236.167969 201.113281 C 235.582031 200.53125 234.722656 201.003906 234.027344 200.976562 C 234 200.449219 234 199.890625 233.972656 199.363281 C 233.859375 199.363281 233.582031 199.390625 233.445312 199.390625 Z M 224.023438 202.367188 L 223.886719 202.558594 C 225.746094 204.558594 227.777344 206.394531 229.75 208.285156 C 230.359375 208.839844 230.914062 209.449219 231.609375 209.921875 C 235.222656 209.894531 238.835938 209.894531 242.445312 209.8125 C 243.78125 209.617188 244.390625 211.144531 245.503906 211.617188 C 246.558594 211.589844 247.644531 211.535156 248.699219 211.5625 C 248.894531 212.117188 249.085938 212.757812 249.671875 213.035156 C 250.839844 213.757812 252.5625 212.757812 252.503906 211.394531 C 252.53125 210.285156 251.394531 209.480469 250.335938 209.671875 C 249.53125 209.671875 249.03125 210.339844 248.726562 210.980469 C 247.699219 210.953125 246.699219 211.007812 245.667969 211.007812 C 244.863281 210.5625 244.28125 209.785156 243.558594 209.171875 C 240 209.3125 236.445312 209.257812 232.886719 209.367188 C 232.414062 209.367188 231.832031 209.507812 231.5 209.089844 C 229.082031 206.921875 226.777344 204.644531 224.441406 202.394531 C 224.359375 202.367188 224.136719 202.367188 224.023438 202.367188 Z M 196.238281 210.035156 C 196.265625 211.394531 196.265625 212.757812 196.265625 214.117188 C 198.824219 216.425781 201.296875 218.84375 203.878906 221.148438 C 204.15625 221.34375 204.40625 221.730469 204.796875 221.648438 C 206.351562 221.511719 207.9375 221.59375 209.519531 221.566406 C 209.519531 224.09375 209.574219 226.59375 209.546875 229.125 C 207.128906 229.125 204.714844 229.179688 202.296875 229.152344 C 202.242188 230.816406 202.378906 232.457031 202.269531 234.125 C 201.65625 234.957031 200.601562 235.402344 200.074219 236.265625 C 200.046875 239.515625 200.101562 242.765625 200.074219 246.015625 C 200.101562 246.710938 200.015625 247.378906 200.15625 248.074219 C 200.769531 248.738281 201.574219 249.210938 202.296875 249.769531 C 202.296875 250.628906 202.296875 251.519531 202.210938 252.378906 C 201.238281 252.519531 200.351562 253.351562 200.460938 254.378906 C 200.546875 255.9375 202.769531 256.574219 203.742188 255.4375 C 204.601562 254.492188 204.15625 252.742188 202.851562 252.4375 C 202.824219 251.40625 202.851562 250.40625 202.824219 249.378906 C 202.101562 248.851562 201.324219 248.378906 200.710938 247.738281 C 200.546875 247.015625 200.65625 246.265625 200.628906 245.515625 C 200.65625 242.515625 200.601562 239.515625 200.65625 236.515625 C 201.183594 235.625 202.351562 235.234375 202.851562 234.292969 C 202.960938 232.792969 202.851562 231.261719 202.878906 229.734375 C 205.296875 229.816406 207.742188 229.652344 210.160156 229.652344 C 210.132812 226.761719 209.964844 223.871094 210.074219 220.980469 C 208.382812 220.980469 206.6875 220.898438 204.992188 220.953125 C 204.519531 221.039062 204.242188 220.59375 203.90625 220.34375 C 201.488281 218.257812 199.265625 215.925781 196.820312 213.867188 C 196.792969 212.785156 196.792969 211.703125 196.792969 210.589844 C 202.15625 210.617188 207.519531 210.617188 212.882812 210.5625 C 213.214844 210.507812 213.464844 210.785156 213.6875 211.007812 C 216.078125 213.339844 218.496094 215.648438 220.886719 217.980469 C 221.996094 219.035156 223.164062 220.039062 224.164062 221.203125 C 224.246094 222.230469 224.136719 223.261719 224.191406 224.289062 C 223.609375 224.675781 222.941406 225.175781 222.996094 225.984375 C 222.828125 227.371094 224.582031 228.375 225.71875 227.707031 C 226.582031 227.316406 226.832031 226.179688 226.554688 225.34375 C 226.21875 224.648438 225.441406 224.425781 224.773438 224.289062 C 224.773438 223.148438 224.773438 222.039062 224.746094 220.898438 C 223.664062 219.871094 222.609375 218.816406 221.550781 217.757812 C 218.800781 215.230469 216.214844 212.535156 213.492188 210.007812 C 207.796875 210.007812 202.019531 210.0625 196.238281 210.035156 Z M 238.917969 211.894531 C 238.917969 212.0625 238.917969 212.367188 238.917969 212.507812 C 239.890625 212.644531 240.917969 212.453125 241.890625 212.644531 C 242.945312 213.675781 243.976562 214.703125 245.003906 215.785156 C 244.640625 216.230469 244.253906 216.757812 244.417969 217.371094 C 244.476562 218.285156 245.335938 218.925781 246.199219 218.925781 C 247.253906 219.066406 248.28125 218.035156 248.003906 216.953125 C 247.894531 215.785156 246.585938 215.0625 245.53125 215.535156 C 244.445312 214.285156 243.308594 213.117188 242.113281 211.980469 C 241.03125 211.867188 239.972656 211.953125 238.917969 211.894531 Z M 203.269531 212.617188 C 202.046875 212.953125 201.433594 214.589844 202.269531 215.5625 C 203.214844 216.757812 205.4375 216.175781 205.574219 214.617188 C 205.878906 213.339844 204.492188 212.144531 203.269531 212.617188 Z M 207.6875 215.925781 C 206.351562 216.257812 205.878906 218.316406 207.101562 219.09375 C 208.214844 220.007812 210.296875 219.203125 210.242188 217.675781 C 210.355469 216.371094 208.851562 215.480469 207.6875 215.925781 Z M 213.742188 217.0625 C 212.632812 217.507812 212.382812 219.121094 213.1875 219.953125 C 213.464844 220.230469 213.964844 220.316406 214.160156 220.675781 C 214.214844 221.953125 214.132812 223.203125 214.160156 224.484375 C 213.578125 224.457031 212.9375 224.398438 212.410156 224.734375 C 211.1875 225.371094 211.355469 227.457031 212.660156 227.902344 C 213.828125 228.484375 215.410156 227.566406 215.355469 226.207031 C 215.4375 225.566406 214.910156 225.121094 214.773438 224.566406 C 214.773438 223.175781 214.800781 221.816406 214.828125 220.425781 C 215.300781 220.230469 215.746094 219.953125 216.1875 219.648438 C 217.21875 220.648438 218.273438 221.648438 219.355469 222.59375 C 219.523438 225.457031 219.441406 228.34375 219.441406 231.207031 C 214.382812 231.152344 209.355469 231.289062 204.296875 231.234375 C 204.296875 232.539062 204.324219 233.847656 204.269531 235.125 C 203.769531 236.238281 201.960938 236.597656 202.15625 237.988281 C 202.210938 240.792969 202.074219 243.628906 202.210938 246.433594 C 204.40625 248.324219 206.492188 250.351562 208.519531 252.40625 C 207.464844 253.15625 207.519531 254.9375 208.714844 255.492188 C 209.796875 256.132812 211.410156 255.351562 211.410156 254.046875 C 211.492188 253.128906 210.796875 252.40625 209.992188 252.128906 C 209.964844 251.15625 209.910156 250.15625 209.9375 249.183594 C 208.351562 247.824219 206.878906 246.351562 205.324219 244.960938 C 205.324219 243.683594 205.296875 242.40625 205.351562 241.097656 C 206.046875 240.375 206.992188 239.933594 207.574219 239.125 C 207.632812 237.429688 207.574219 235.734375 207.574219 234.042969 C 213.714844 233.929688 219.828125 233.984375 225.96875 233.957031 C 227.582031 235.402344 229.164062 236.902344 230.691406 238.402344 C 230.941406 238.625 231.191406 238.933594 231.582031 238.902344 C 233.027344 238.988281 234.445312 238.960938 235.890625 239.015625 C 236 239.460938 236.054688 239.988281 236.445312 240.347656 C 237.304688 241.265625 239.195312 240.988281 239.558594 239.710938 C 240 238.515625 238.917969 237.238281 237.722656 237.207031 C 237.140625 236.207031 236.25 235.457031 235.445312 234.625 C 234.195312 233.457031 233 232.234375 231.777344 231.039062 C 231.027344 230.957031 230.25 231.179688 229.5 231.097656 C 226.359375 231.011719 223.21875 231.179688 220.078125 231.066406 C 220.105469 228.511719 220.078125 225.929688 220.078125 223.371094 C 220.050781 222.953125 220.164062 222.453125 219.800781 222.175781 C 218.746094 221.121094 217.605469 220.175781 216.578125 219.09375 C 216.410156 218.675781 216.410156 218.230469 216.246094 217.8125 C 215.714844 217.0625 214.605469 216.621094 213.742188 217.0625 Z M 191.960938 224.84375 C 191.847656 225.761719 192.597656 226.398438 193.320312 226.761719 C 193.320312 233.902344 193.320312 241.070312 193.265625 248.210938 C 193.40625 248.210938 193.710938 248.183594 193.847656 248.183594 C 193.847656 241.042969 193.875 233.902344 193.933594 226.761719 C 194.320312 226.621094 194.765625 226.566406 195.070312 226.261719 C 195.988281 225.429688 195.792969 223.675781 194.597656 223.203125 C 193.460938 222.648438 191.875 223.511719 191.960938 224.84375 Z M 205.628906 223.148438 C 204.433594 223.511719 203.90625 225.175781 204.714844 226.121094 C 205.769531 227.179688 207.9375 226.648438 208.132812 225.066406 C 208.4375 223.734375 206.824219 222.703125 205.628906 223.148438 Z M 246.476562 223.09375 C 244.949219 223.453125 244.863281 225.789062 246.226562 226.429688 C 247.308594 227.121094 248.835938 226.371094 248.976562 225.09375 C 249.28125 223.734375 247.726562 222.511719 246.476562 223.09375 Z M 229.664062 226.929688 C 232.472656 229.625 235.25 232.375 238.113281 235.015625 C 239.835938 235.265625 241.613281 235.152344 243.335938 235.097656 C 243.363281 234.957031 243.417969 234.652344 243.445312 234.515625 C 241.890625 234.515625 240.335938 234.570312 238.777344 234.515625 C 238.472656 234.542969 238.25 234.347656 238.027344 234.152344 C 235.332031 231.625 232.722656 229.066406 230.109375 226.484375 C 229.941406 226.621094 229.804688 226.761719 229.664062 226.929688 Z M 208.9375 235.820312 C 208.992188 237.929688 208.824219 240.097656 209.046875 242.183594 C 210.882812 243.988281 212.910156 245.601562 214.660156 247.488281 C 214.828125 248.269531 214.714844 249.074219 214.742188 249.851562 C 214.1875 250.128906 213.578125 250.460938 213.464844 251.128906 C 212.964844 252.492188 214.578125 253.992188 215.910156 253.351562 C 216.996094 253.046875 217.410156 251.628906 216.828125 250.742188 C 216.496094 250.242188 215.910156 249.992188 215.355469 249.851562 C 215.273438 248.769531 215.714844 247.378906 214.714844 246.601562 C 213.019531 245.101562 211.382812 243.542969 209.742188 241.988281 C 209.519531 240.125 209.660156 238.238281 209.574219 236.375 C 213.1875 236.347656 216.800781 236.375 220.414062 236.265625 C 221.691406 237.542969 223.050781 238.738281 224.332031 240.015625 C 224.582031 240.210938 224.800781 240.515625 225.136719 240.570312 C 226.246094 240.683594 227.386719 240.542969 228.527344 240.597656 C 229.441406 241.347656 230.191406 242.292969 231.109375 243.042969 C 230.777344 243.792969 230.664062 244.738281 231.304688 245.351562 C 232.25 246.460938 234.390625 245.824219 234.5 244.351562 C 234.75 242.820312 232.695312 241.65625 231.5 242.65625 C 230.609375 241.820312 229.859375 240.847656 228.914062 240.070312 C 227.691406 239.765625 226.414062 240.070312 225.191406 239.847656 C 223.800781 238.710938 222.550781 237.375 221.21875 236.179688 C 220.96875 235.988281 220.746094 235.679688 220.414062 235.679688 C 216.550781 235.707031 212.742188 235.679688 208.9375 235.820312 Z M 211.046875 237.960938 C 211.019531 239.070312 210.992188 240.183594 211.132812 241.292969 C 212.800781 242.820312 214.4375 244.351562 216.023438 245.960938 C 216.46875 246.296875 216.160156 246.933594 216.410156 247.40625 C 216.996094 248.488281 218.691406 248.519531 219.414062 247.601562 C 220.21875 246.710938 219.914062 244.960938 218.632812 244.65625 C 217.773438 244.320312 216.910156 244.851562 216.410156 245.488281 C 214.882812 243.988281 213.355469 242.460938 211.742188 241.042969 C 211.578125 240.210938 211.660156 239.347656 211.632812 238.515625 C 213.355469 238.597656 215.050781 238.625 216.773438 238.597656 C 218.71875 240.765625 220.96875 242.65625 222.96875 244.738281 C 223.191406 245.238281 222.914062 245.851562 223.246094 246.324219 C 223.859375 247.351562 225.496094 247.515625 226.304688 246.601562 C 227.136719 245.738281 226.746094 244.15625 225.636719 243.738281 C 224.832031 243.320312 223.914062 243.710938 223.386719 244.351562 C 221.496094 242.378906 219.46875 240.542969 217.605469 238.570312 C 217.328125 238.320312 217.078125 237.929688 216.660156 237.988281 C 214.773438 237.960938 212.910156 238.015625 211.046875 237.960938 Z M 211.046875 237.960938 " fill-opacity="1" fill-rule="nonzero"/></g><path fill="#5e17eb" d="M 204.6875 118.839844 C 205.628906 118.480469 206.6875 119.589844 206.214844 120.507812 C 205.714844 121.339844 204.40625 121.285156 203.878906 120.480469 C 203.601562 119.867188 204.046875 119.035156 204.6875 118.839844 Z M 204.6875 118.839844 " fill-opacity="1" fill-rule="nonzero"/><path fill="#5e17eb" d="M 168.035156 122.3125 C 168.507812 121.0625 169.34375 119.757812 170.730469 119.425781 C 170.507812 120.371094 169.871094 121.121094 169.648438 122.0625 C 168.8125 124.59375 169.3125 127.261719 169.203125 129.871094 C 169.09375 131.539062 168.535156 133.179688 167.507812 134.484375 C 169.675781 133.984375 172.09375 134.125 173.980469 135.375 C 174.789062 135.929688 175.675781 136.597656 175.953125 137.597656 C 174.816406 137.125 173.789062 136.402344 172.566406 136.152344 C 169.703125 135.429688 166.648438 136.429688 164.3125 138.125 C 160.589844 140.847656 157.839844 144.902344 156.699219 149.378906 C 156.144531 151.433594 156.367188 153.628906 156.976562 155.65625 C 159.503906 155.546875 162.117188 155.824219 164.394531 157.019531 C 166.367188 158.019531 167.898438 159.9375 168.257812 162.132812 C 168.398438 163.382812 168.398438 164.742188 167.648438 165.828125 C 166.648438 167.355469 165.007812 168.660156 163.117188 168.660156 C 163.8125 167.6875 164.867188 167.023438 165.453125 165.9375 C 166.703125 164.046875 166.230469 161.324219 164.535156 159.851562 C 162.785156 158.324219 160.367188 157.90625 158.117188 157.878906 C 154.058594 157.964844 150.199219 159.492188 146.585938 161.269531 C 145.472656 161.796875 144.445312 162.4375 143.335938 162.910156 C 143.835938 161.410156 145.25 160.546875 146.335938 159.492188 C 143.25 159.214844 139.890625 159.878906 137.027344 158.324219 C 137.445312 157.769531 138.222656 158.074219 138.804688 157.964844 C 142.054688 157.628906 145.390625 157.183594 148.640625 157.796875 C 149.113281 157.851562 149.53125 157.546875 149.949219 157.4375 C 151.503906 156.796875 153.113281 156.378906 154.726562 155.90625 C 153.894531 153.324219 153.921875 150.515625 154.671875 147.90625 C 152.335938 147.015625 149.667969 146.710938 147.28125 147.570312 C 146.5 147.820312 145.835938 148.347656 145.085938 148.65625 C 145.5 147.042969 147.113281 146.125 148.585938 145.625 C 150.808594 144.902344 153.171875 145.347656 155.335938 146.070312 C 156.808594 142.929688 158.671875 139.929688 161.3125 137.652344 C 162.589844 136.429688 164.257812 135.652344 165.230469 134.152344 C 166.203125 132.871094 167.0625 131.429688 167.148438 129.789062 C 167.339844 127.34375 167.117188 124.730469 168.035156 122.3125 Z M 168.035156 122.3125 " fill-opacity="1" fill-rule="nonzero"/><path fill="#5e17eb" d="M 198.878906 121.121094 C 199.710938 120.703125 200.851562 121.480469 200.683594 122.398438 C 200.460938 123.316406 199.101562 123.648438 198.460938 122.925781 C 197.90625 122.398438 198.238281 121.453125 198.878906 121.121094 Z M 198.878906 121.121094 " fill-opacity="1" fill-rule="nonzero"/><path fill="#5e17eb" d="M 209.074219 121.507812 C 209.910156 121.035156 211.160156 121.898438 210.855469 122.84375 C 210.660156 123.730469 209.382812 123.980469 208.769531 123.371094 C 208.160156 122.84375 208.410156 121.84375 209.074219 121.507812 Z M 209.074219 121.507812 " fill-opacity="1" fill-rule="nonzero"/><path fill="#5e17eb" d="M 193.042969 122.980469 C 194.042969 122.675781 194.933594 123.953125 194.40625 124.816406 C 193.933594 125.453125 192.847656 125.566406 192.347656 124.871094 C 191.792969 124.230469 192.292969 123.175781 193.042969 122.980469 Z M 193.042969 122.980469 " fill-opacity="1" fill-rule="nonzero"/><path fill="#5e17eb" d="M 218.410156 126.703125 C 219.160156 126.261719 220.164062 126.925781 220.132812 127.761719 C 220.21875 128.84375 218.660156 129.289062 217.996094 128.511719 C 217.410156 127.984375 217.746094 127.011719 218.410156 126.703125 Z M 218.410156 126.703125 " fill-opacity="1" fill-rule="nonzero"/><path fill="#5e17eb" d="M 151.253906 136.789062 C 150.226562 134.152344 150.226562 130.898438 151.890625 128.539062 C 152.449219 128.871094 152.226562 129.566406 152.253906 130.121094 C 152.085938 133.121094 152.613281 136.207031 154.058594 138.847656 C 154.476562 139.625 155.085938 140.292969 155.449219 141.125 C 153.394531 140.570312 152.03125 138.652344 151.253906 136.789062 Z M 151.253906 136.789062 " fill-opacity="1" fill-rule="nonzero"/><path fill="#5e17eb" d="M 210.019531 129.011719 C 210.882812 128.511719 212.019531 129.371094 211.855469 130.316406 C 211.578125 131.207031 210.269531 131.566406 209.660156 130.816406 C 209.105469 130.289062 209.324219 129.289062 210.019531 129.011719 Z M 210.019531 129.011719 " fill-opacity="1" fill-rule="nonzero"/><path fill="#5e17eb" d="M 224.191406 128.953125 C 224.96875 128.453125 226.273438 129.066406 226.109375 130.066406 C 226.082031 130.984375 224.914062 131.398438 224.21875 130.957031 C 223.359375 130.621094 223.441406 129.34375 224.191406 128.953125 Z M 224.191406 128.953125 " fill-opacity="1" fill-rule="nonzero"/><path fill="#5e17eb" d="M 203.074219 131.121094 C 203.824219 130.621094 204.796875 131.34375 204.742188 132.207031 C 204.714844 133.316406 202.90625 133.734375 202.40625 132.734375 C 202.101562 132.121094 202.460938 131.371094 203.074219 131.121094 Z M 203.074219 131.121094 " fill-opacity="1" fill-rule="nonzero"/><path fill="#5e17eb" d="M 228.109375 137.789062 C 228.941406 137.375 230.027344 138.179688 229.832031 139.097656 C 229.609375 140.070312 228.191406 140.347656 227.582031 139.597656 C 227.191406 139.011719 227.441406 138.097656 228.109375 137.789062 Z M 228.109375 137.789062 " fill-opacity="1" fill-rule="nonzero"/><path fill="#5e17eb" d="M 224.191406 142.265625 C 224.914062 142.097656 225.832031 142.738281 225.691406 143.515625 C 225.609375 144.433594 224.300781 144.875 223.664062 144.183594 C 222.941406 143.679688 223.414062 142.460938 224.191406 142.265625 Z M 224.191406 142.265625 " fill-opacity="1" fill-rule="nonzero"/><path fill="#5e17eb" d="M 236 143.792969 C 236.667969 143.429688 237.554688 143.847656 237.75 144.570312 C 237.972656 145.570312 236.613281 146.515625 235.804688 145.792969 C 235.054688 145.320312 235.277344 144.152344 236 143.792969 Z M 236 143.792969 " fill-opacity="1" fill-rule="nonzero"/><path fill="#5e17eb" d="M 162.394531 145.433594 C 165.589844 145.625 168.535156 147.292969 170.871094 149.40625 C 172.730469 151.183594 174.230469 153.351562 175.261719 155.683594 C 175.648438 156.601562 176.011719 157.546875 176.09375 158.546875 C 175.371094 158.269531 175.121094 157.492188 174.703125 156.933594 C 172.84375 154.019531 170.648438 151.265625 167.925781 149.101562 C 166.480469 147.933594 164.894531 146.960938 163.257812 146.097656 C 162.921875 145.933594 162.617188 145.710938 162.394531 145.433594 Z M 162.394531 145.433594 " fill-opacity="1" fill-rule="nonzero"/><path fill="#5e17eb" d="M 238.835938 149.265625 C 239.777344 148.820312 240.78125 150.015625 240.222656 150.878906 C 239.777344 151.824219 238.222656 151.488281 238.085938 150.488281 C 237.945312 149.933594 238.335938 149.433594 238.835938 149.265625 Z M 238.835938 149.265625 " fill-opacity="1" fill-rule="nonzero"/><path fill="#5e17eb" d="M 194.015625 153.15625 C 194.90625 152.515625 196.238281 153.601562 195.90625 154.601562 C 195.628906 155.351562 194.570312 155.546875 193.960938 155.101562 C 193.320312 154.683594 193.320312 153.546875 194.015625 153.15625 Z M 194.015625 153.15625 " fill-opacity="1" fill-rule="nonzero"/><path fill="#5e17eb" d="M 239.277344 156.824219 C 240.027344 156.351562 241.113281 157.074219 241.03125 157.9375 C 241.058594 158.964844 239.558594 159.492188 238.945312 158.6875 C 238.363281 158.15625 238.613281 157.15625 239.277344 156.824219 Z M 239.277344 156.824219 " fill-opacity="1" fill-rule="nonzero"/><path fill="#5e17eb" d="M 245.558594 160.824219 C 246.363281 160.410156 247.363281 161.242188 247.253906 162.105469 C 247.171875 162.9375 246.058594 163.464844 245.390625 162.9375 C 244.726562 162.410156 244.699219 161.1875 245.558594 160.824219 Z M 245.558594 160.824219 " fill-opacity="1" fill-rule="nonzero"/><path fill="#5e17eb" d="M 224.664062 166.882812 C 225.46875 166.355469 226.691406 167.1875 226.441406 168.132812 C 226.21875 169.132812 224.800781 169.132812 224.21875 168.496094 C 223.800781 167.964844 224.109375 167.1875 224.664062 166.882812 Z M 224.664062 166.882812 " fill-opacity="1" fill-rule="nonzero"/><path fill="#5e17eb" d="M 148.445312 168.964844 C 149.226562 168.214844 150.058594 167.300781 151.199219 167.132812 C 150.753906 168.023438 150.085938 168.746094 149.558594 169.578125 C 147.417969 172.632812 145.945312 176.246094 145.75 179.996094 C 145.667969 182.191406 146.113281 184.609375 147.78125 186.167969 C 149.253906 187.609375 151.53125 187.667969 153.421875 187.167969 C 154.867188 186.832031 156.117188 186 157.5625 185.636719 C 157.226562 186.359375 156.558594 186.859375 155.976562 187.359375 C 154.976562 188.222656 153.808594 188.863281 152.558594 189.304688 C 151.921875 191.808594 151.699219 194.503906 152.585938 196.976562 C 153.863281 200.894531 157.003906 204.058594 160.757812 205.699219 C 165.730469 207.894531 171.203125 208.339844 176.484375 209.257812 C 176.761719 209.285156 177.066406 209.367188 177.175781 209.671875 C 171.898438 210.480469 166.480469 209.894531 161.367188 208.339844 C 158.0625 207.339844 155.085938 205.3125 152.921875 202.617188 C 150.835938 199.976562 149.53125 196.613281 149.640625 193.222656 C 149.640625 191.945312 149.917969 190.695312 150.140625 189.445312 C 148.253906 189.222656 146.472656 188.222656 145.390625 186.636719 C 143.722656 184.304688 143.472656 181.25 143.863281 178.496094 C 144.472656 175.023438 146.03125 171.632812 148.445312 168.964844 Z M 148.445312 168.964844 " fill-opacity="1" fill-rule="nonzero"/><path fill="#5e17eb" d="M 156.808594 168.828125 C 156.644531 168.246094 156.367188 167.605469 156.671875 167.023438 C 157.53125 168.1875 158.28125 169.46875 159.285156 170.523438 C 161.089844 172.578125 163.394531 174.105469 165.757812 175.441406 C 166.425781 175.71875 167.148438 175.746094 167.839844 175.941406 C 170.285156 176.582031 172.648438 178.023438 173.953125 180.246094 C 175.175781 182.359375 175.566406 184.914062 175.09375 187.304688 C 174.480469 187.195312 174.566406 186.527344 174.425781 186.054688 C 173.925781 183.554688 172.871094 181.027344 170.730469 179.496094 C 167.757812 177.273438 163.757812 177.21875 160.257812 177.941406 C 157.976562 178.359375 155.921875 179.46875 153.835938 180.359375 C 154.171875 179.441406 154.949219 178.832031 155.699219 178.246094 C 157.699219 176.71875 160.199219 176.023438 162.644531 175.609375 C 160.003906 174.136719 157.8125 171.71875 156.808594 168.828125 Z M 156.808594 168.828125 " fill-opacity="1" fill-rule="nonzero"/><path fill="#5e17eb" d="M 246.253906 167.605469 C 247.199219 167.355469 248.144531 168.550781 247.558594 169.382812 C 247.171875 170.050781 246.199219 170.105469 245.699219 169.578125 C 245.003906 168.996094 245.449219 167.773438 246.253906 167.605469 Z M 246.253906 167.605469 " fill-opacity="1" fill-rule="nonzero"/><path fill="#5e17eb" d="M 239.972656 171.273438 C 240.890625 170.996094 241.917969 172.246094 241.25 173.023438 C 240.722656 173.746094 239.472656 173.636719 239.140625 172.773438 C 238.835938 172.132812 239.363281 171.46875 239.972656 171.273438 Z M 239.972656 171.273438 " fill-opacity="1" fill-rule="nonzero"/><path fill="#5e17eb" d="M 247.644531 172.882812 C 248.449219 172.414062 249.585938 173.273438 249.367188 174.191406 C 249.144531 174.996094 248.03125 175.414062 247.390625 174.855469 C 246.753906 174.328125 246.949219 173.21875 247.644531 172.882812 Z M 247.644531 172.882812 " fill-opacity="1" fill-rule="nonzero"/><path fill="#5e17eb" d="M 208.1875 174.578125 C 209.046875 174.191406 210.074219 175.164062 209.714844 176.023438 C 209.546875 176.996094 208.101562 177.050781 207.601562 176.300781 C 207.1875 175.71875 207.492188 174.828125 208.1875 174.578125 Z M 208.1875 174.578125 " fill-opacity="1" fill-rule="nonzero"/><path fill="#5e17eb" d="M 235.554688 175.914062 C 236.582031 175.550781 237.613281 177.082031 236.75 177.832031 C 236.195312 178.523438 234.972656 178.273438 234.695312 177.441406 C 234.554688 176.832031 234.972656 176.136719 235.554688 175.914062 Z M 235.554688 175.914062 " fill-opacity="1" fill-rule="nonzero"/><path fill="#5e17eb" d="M 125.773438 177.914062 C 127.273438 178.941406 128.523438 180.304688 129.96875 181.386719 C 132.554688 179.359375 136.25 179.054688 139.222656 180.332031 C 139.722656 180.554688 140.304688 180.777344 140.527344 181.332031 C 138.054688 180.859375 135.472656 180.941406 133.136719 181.941406 C 131.023438 182.804688 129.582031 184.832031 129.136719 187.027344 C 128.691406 189.25 128.859375 191.585938 129.523438 193.75 C 129.800781 194.695312 130.164062 195.640625 130.273438 196.640625 C 129.441406 196.253906 129.109375 195.308594 128.664062 194.558594 C 126.800781 190.945312 126.523438 186.386719 128.664062 182.832031 C 127.273438 181.527344 126.105469 179.859375 125.773438 177.914062 Z M 125.773438 177.914062 " fill-opacity="1" fill-rule="nonzero"/><path fill="#5e17eb" d="M 251.617188 178.273438 C 252.394531 177.996094 253.28125 178.746094 253.171875 179.554688 C 253.003906 180.496094 251.589844 180.832031 251.03125 180.054688 C 250.449219 179.46875 250.894531 178.496094 251.617188 178.273438 Z M 251.617188 178.273438 " fill-opacity="1" fill-rule="nonzero"/><path fill="#5e17eb" d="M 209.105469 180.609375 C 209.882812 180.054688 211.046875 180.71875 210.964844 181.664062 C 210.964844 182.75 209.382812 183.222656 208.742188 182.359375 C 208.242188 181.804688 208.464844 180.914062 209.105469 180.609375 Z M 209.105469 180.609375 " fill-opacity="1" fill-rule="nonzero"/><path fill="#5e17eb" d="M 236.917969 182.136719 C 237.890625 181.75 238.917969 183 238.417969 183.886719 C 237.972656 184.582031 236.863281 184.695312 236.390625 184.027344 C 235.832031 183.386719 236.25 182.441406 236.917969 182.136719 Z M 236.917969 182.136719 " fill-opacity="1" fill-rule="nonzero"/><path fill="#5e17eb" d="M 252.0625 184.777344 C 252.921875 184.5 253.921875 185.386719 253.589844 186.25 C 253.3125 187.140625 252.003906 187.277344 251.449219 186.554688 C 250.839844 186.027344 251.339844 184.945312 252.0625 184.777344 Z M 252.0625 184.777344 " fill-opacity="1" fill-rule="nonzero"/><path fill="#5e17eb" d="M 136.75 188.082031 C 137.332031 188.277344 137.554688 188.890625 137.804688 189.390625 C 138.917969 191.667969 139.359375 194.222656 139.359375 196.726562 C 139.359375 198.113281 139.332031 199.53125 139.582031 200.921875 C 140.417969 205.644531 143.304688 210.089844 147.585938 212.367188 C 150.753906 213.925781 154.113281 215.148438 157.144531 216.980469 C 157.394531 217.09375 157.5625 217.34375 157.699219 217.59375 C 156.558594 217.535156 155.476562 217.230469 154.394531 216.953125 C 152.03125 216.3125 149.695312 215.589844 147.472656 214.648438 C 145.722656 216.230469 144.140625 218.230469 143.917969 220.675781 C 143.640625 223.898438 145.058594 227.011719 146.917969 229.566406 C 149.695312 233.347656 154.085938 236.125 158.8125 236.488281 C 160.976562 236.625 163.285156 236.347656 165.0625 235.042969 C 166.367188 234.152344 167.257812 232.820312 167.925781 231.457031 C 168.007812 231.429688 168.148438 231.347656 168.230469 231.289062 C 168.507812 232.511719 168.371094 233.847656 167.730469 234.957031 C 167.035156 236.125 165.953125 236.988281 164.785156 237.652344 C 165.367188 239.738281 166.675781 241.597656 168.507812 242.765625 C 170.953125 244.433594 173.898438 245.015625 176.761719 245.515625 C 176.039062 246.15625 175.011719 246.074219 174.121094 246.128906 C 169.34375 246.128906 164.367188 243.128906 163.035156 238.375 C 158.839844 239.460938 154.335938 238.542969 150.667969 236.320312 C 149.695312 238.515625 147.363281 239.820312 145.027344 240.015625 C 145.140625 240.875 145.308594 241.710938 145.722656 242.488281 C 146.113281 243.265625 146.75 243.878906 147.222656 244.628906 C 144.835938 244.488281 143.25 242.097656 143.027344 239.847656 C 141.167969 239.375 139.304688 238.347656 138.472656 236.570312 C 139.527344 236.875 140.472656 237.515625 141.554688 237.820312 C 143.585938 238.460938 145.917969 238.429688 147.753906 237.265625 C 148.417969 236.847656 148.890625 236.179688 149.28125 235.515625 C 145.972656 232.875 143.222656 229.429688 141.972656 225.34375 C 141.195312 222.984375 141.082031 220.34375 141.945312 217.980469 C 142.585938 216.203125 143.804688 214.703125 145.195312 213.480469 C 141.472656 211.230469 138.945312 207.199219 138.136719 202.976562 C 137.414062 199.613281 138.027344 196.167969 137.554688 192.78125 C 137.445312 191.195312 136.886719 189.667969 136.75 188.082031 Z M 136.75 188.082031 " fill-opacity="1" fill-rule="nonzero"/><path fill="#5e17eb" d="M 251.867188 193.417969 C 252.78125 193.03125 253.8125 194.058594 253.449219 195.003906 C 253.003906 195.945312 251.449219 195.808594 251.117188 194.835938 C 250.867188 194.253906 251.28125 193.613281 251.867188 193.417969 Z M 251.867188 193.417969 " fill-opacity="1" fill-rule="nonzero"/><path fill="#5e17eb" d="M 249.726562 198.976562 C 250.617188 198.753906 251.476562 199.753906 251.144531 200.585938 C 250.839844 201.335938 249.671875 201.585938 249.117188 200.976562 C 248.53125 200.363281 248.835938 199.113281 249.726562 198.976562 Z M 249.726562 198.976562 " fill-opacity="1" fill-rule="nonzero"/><path fill="#5e17eb" d="M 251.839844 203.808594 C 252.589844 203.394531 253.589844 204.058594 253.589844 204.894531 C 253.699219 205.921875 252.226562 206.503906 251.589844 205.753906 C 250.921875 205.226562 251.144531 204.171875 251.839844 203.808594 Z M 251.839844 203.808594 " fill-opacity="1" fill-rule="nonzero"/><path fill="#5e17eb" d="M 164.089844 209.839844 C 164.839844 209.980469 165.203125 210.757812 165.675781 211.285156 C 168.535156 215.0625 168.285156 221.011719 164.785156 224.316406 C 162.449219 226.511719 159.226562 227.707031 156.03125 227.652344 C 155.308594 227.621094 154.503906 227.707031 153.863281 227.261719 C 156.949219 226.34375 160.367188 225.816406 162.894531 223.621094 C 165.203125 221.730469 166.117188 218.566406 165.730469 215.675781 C 165.589844 213.617188 164.703125 211.757812 164.089844 209.839844 Z M 164.089844 209.839844 " fill-opacity="1" fill-rule="nonzero"/><path fill="#5e17eb" d="M 250.171875 210.285156 C 250.839844 210.0625 251.617188 210.480469 251.839844 211.144531 C 252.0625 212.117188 250.808594 213.007812 249.976562 212.425781 C 249.199219 211.980469 249.253906 210.5625 250.171875 210.285156 Z M 250.171875 210.285156 " fill-opacity="1" fill-rule="nonzero"/><path fill="#5e17eb" d="M 203.296875 213.339844 C 204.074219 212.894531 205.15625 213.703125 204.9375 214.5625 C 204.796875 215.339844 203.824219 215.8125 203.128906 215.398438 C 202.296875 214.980469 202.460938 213.648438 203.296875 213.339844 Z M 203.296875 213.339844 " fill-opacity="1" fill-rule="nonzero"/><path fill="#5e17eb" d="M 239.527344 215.925781 C 240.53125 215.453125 241.472656 216.84375 240.835938 217.675781 C 240.308594 218.480469 238.917969 218.09375 238.75 217.148438 C 238.554688 216.5625 239.027344 216.089844 239.527344 215.925781 Z M 239.527344 215.925781 " fill-opacity="1" fill-rule="nonzero"/><path fill="#5e17eb" d="M 245.808594 216.175781 C 246.585938 215.8125 247.503906 216.5625 247.335938 217.398438 C 247.171875 218.398438 245.558594 218.648438 245.140625 217.730469 C 244.835938 217.148438 245.167969 216.339844 245.808594 216.175781 Z M 245.808594 216.175781 " fill-opacity="1" fill-rule="nonzero"/><path fill="#5e17eb" d="M 207.714844 216.648438 C 208.464844 216.257812 209.6875 216.730469 209.605469 217.675781 C 209.546875 218.757812 207.992188 219.203125 207.324219 218.398438 C 206.742188 217.871094 207.046875 216.871094 207.714844 216.648438 Z M 207.714844 216.648438 " fill-opacity="1" fill-rule="nonzero"/><path fill="#5e17eb" d="M 213.964844 217.703125 C 214.742188 217.175781 215.9375 217.871094 215.773438 218.816406 C 215.605469 219.816406 214.160156 220.175781 213.550781 219.34375 C 213.078125 218.84375 213.355469 217.980469 213.964844 217.703125 Z M 213.964844 217.703125 " fill-opacity="1" fill-rule="nonzero"/><path fill="#5e17eb" d="M 193.320312 223.816406 C 194.125 223.453125 195.15625 224.207031 194.988281 225.066406 C 194.933594 226.011719 193.597656 226.398438 192.988281 225.761719 C 192.292969 225.261719 192.488281 224.066406 193.320312 223.816406 Z M 193.320312 223.816406 " fill-opacity="1" fill-rule="nonzero"/><path fill="#5e17eb" d="M 205.824219 223.761719 C 206.546875 223.539062 207.546875 224.039062 207.464844 224.871094 C 207.464844 225.898438 206.074219 226.371094 205.351562 225.734375 C 204.6875 225.175781 204.992188 223.957031 205.824219 223.761719 Z M 205.824219 223.761719 " fill-opacity="1" fill-rule="nonzero"/><path fill="#5e17eb" d="M 246.503906 223.789062 C 247.390625 223.121094 248.726562 224.261719 248.199219 225.234375 C 247.863281 226.234375 246.335938 226.121094 245.976562 225.207031 C 245.699219 224.707031 246.03125 224.066406 246.503906 223.789062 Z M 246.503906 223.789062 " fill-opacity="1" fill-rule="nonzero"/><path fill="#5e17eb" d="M 213.019531 225.175781 C 213.742188 224.925781 214.742188 225.429688 214.6875 226.261719 C 214.714844 227.234375 213.4375 227.816406 212.6875 227.207031 C 211.9375 226.707031 212.132812 225.371094 213.019531 225.175781 Z M 213.019531 225.175781 " fill-opacity="1" fill-rule="nonzero"/><path fill="#5e17eb" d="M 224.386719 225.121094 C 225.136719 224.734375 226.21875 225.34375 226.054688 226.234375 C 226.054688 227.039062 225.082031 227.539062 224.386719 227.152344 C 223.523438 226.84375 223.46875 225.398438 224.386719 225.121094 Z M 224.386719 225.121094 " fill-opacity="1" fill-rule="nonzero"/><path fill="#5e17eb" d="M 240.472656 229.625 C 241.222656 229.09375 242.390625 229.761719 242.308594 230.679688 C 242.335938 231.707031 240.890625 232.261719 240.195312 231.511719 C 239.613281 230.984375 239.863281 230.011719 240.472656 229.625 Z M 240.472656 229.625 " fill-opacity="1" fill-rule="nonzero"/><path fill="#5e17eb" d="M 204.851562 231.902344 C 213.660156 231.902344 222.46875 231.707031 231.277344 231.734375 C 231.914062 231.929688 232.277344 232.652344 232.804688 233.097656 C 234.195312 234.570312 235.804688 235.792969 237.054688 237.402344 C 236.527344 237.625 236.140625 238.042969 235.890625 238.542969 C 234.472656 238.429688 233.054688 238.515625 231.636719 238.460938 C 229.664062 236.957031 228.136719 234.957031 226.164062 233.457031 C 219.773438 233.484375 213.382812 233.484375 206.992188 233.542969 C 206.992188 235.375 206.992188 237.210938 206.992188 239.042969 C 206.269531 239.710938 205.378906 240.210938 204.769531 241.015625 C 204.6875 242.460938 204.628906 243.933594 204.796875 245.378906 C 206.128906 246.574219 207.464844 247.824219 208.796875 249.046875 C 209.824219 249.769531 209.269531 251.214844 209.355469 252.269531 C 208.601562 251.878906 208.074219 251.183594 207.492188 250.601562 C 206.128906 249.183594 204.628906 247.878906 203.214844 246.515625 C 203.019531 246.296875 202.742188 246.101562 202.769531 245.765625 C 202.742188 243.351562 202.851562 240.960938 202.824219 238.542969 C 202.851562 238.179688 202.769531 237.820312 202.90625 237.515625 C 203.492188 236.847656 204.296875 236.429688 204.851562 235.738281 C 204.992188 234.457031 204.824219 233.179688 204.851562 231.902344 Z M 204.851562 231.902344 " fill-opacity="1" fill-rule="nonzero"/><path fill="#5e17eb" d="M 236.972656 238.179688 C 237.667969 237.765625 238.808594 238.179688 238.917969 239.042969 C 239.058594 239.765625 238.304688 240.460938 237.613281 240.320312 C 236.613281 240.320312 236.082031 238.738281 236.972656 238.179688 Z M 236.972656 238.179688 " fill-opacity="1" fill-rule="nonzero"/><path fill="#5e17eb" d="M 232.304688 243.042969 C 233.109375 242.710938 233.972656 243.488281 233.804688 244.320312 C 233.695312 245.324219 232.109375 245.601562 231.664062 244.710938 C 231.222656 244.101562 231.636719 243.238281 232.304688 243.042969 Z M 232.304688 243.042969 " fill-opacity="1" fill-rule="nonzero"/><path fill="#5e17eb" d="M 224.414062 244.378906 C 225.164062 243.90625 226.191406 244.65625 226.082031 245.515625 C 226.136719 246.710938 224.273438 246.90625 223.859375 245.90625 C 223.496094 245.351562 223.886719 244.683594 224.414062 244.378906 Z M 224.414062 244.378906 " fill-opacity="1" fill-rule="nonzero"/><path fill="#5e17eb" d="M 217.46875 245.378906 C 218.273438 244.792969 219.46875 245.710938 219.191406 246.65625 C 219.050781 247.460938 218.023438 247.824219 217.382812 247.40625 C 216.632812 246.933594 216.828125 245.792969 217.46875 245.378906 Z M 217.46875 245.378906 " fill-opacity="1" fill-rule="nonzero"/><path fill="#5e17eb" d="M 196.292969 250.019531 C 197.128906 249.710938 198.074219 250.65625 197.792969 251.492188 C 197.488281 252.40625 196.015625 252.6875 195.515625 251.769531 C 195.097656 251.101562 195.597656 250.210938 196.292969 250.019531 Z M 196.292969 250.019531 " fill-opacity="1" fill-rule="nonzero"/><path fill="#5e17eb" d="M 214.660156 250.714844 C 215.410156 250.324219 216.496094 250.933594 216.410156 251.796875 C 216.355469 252.6875 215.160156 253.15625 214.492188 252.601562 C 213.800781 252.15625 213.882812 250.992188 214.660156 250.714844 Z M 214.660156 250.714844 " fill-opacity="1" fill-rule="nonzero"/><path fill="#5e17eb" d="M 209.074219 253.019531 C 209.796875 252.601562 210.828125 253.242188 210.6875 254.101562 C 210.660156 255.019531 209.382812 255.492188 208.742188 254.824219 C 208.132812 254.324219 208.296875 253.242188 209.074219 253.019531 Z M 209.074219 253.019531 " fill-opacity="1" fill-rule="nonzero"/><path fill="#5e17eb" d="M 201.683594 253.296875 C 202.242188 252.90625 203.101562 253.019531 203.464844 253.660156 C 203.964844 254.492188 203.019531 255.660156 202.074219 255.296875 C 201.15625 255.132812 200.796875 253.742188 201.683594 253.296875 Z M 201.683594 253.296875 " fill-opacity="1" fill-rule="nonzero"/></svg>