<svg xmlns="http://www.w3.org/2000/svg" xmlns:xlink="http://www.w3.org/1999/xlink" width="500" zoomAndPan="magnify" viewBox="0 0 375 374.999991" height="500" preserveAspectRatio="xMidYMid meet" version="1.0"><path fill="#ffffff" d="M 130.691406 6.753906 C 139.582031 1.75 150.417969 0.152344 160.351562 2.792969 C 169.453125 4.945312 176.957031 12.171875 179.941406 20.992188 C 183 29.46875 181.816406 38.777344 179.316406 47.25 C 178.898438 48.429688 179.246094 49.613281 179.386719 50.863281 C 180.707031 58.710938 179.734375 66.699219 178.136719 74.410156 C 177.300781 77.953125 176.609375 81.496094 175.21875 84.832031 C 180.914062 92.542969 182.929688 102.613281 181.886719 112.0625 C 181.125 120.882812 178.691406 129.496094 175.011719 137.484375 C 183 150.476562 183.277344 167.007812 178.34375 181.179688 C 176.957031 183.886719 178.761719 186.804688 178.898438 189.582031 C 181.125 202.710938 179.59375 216.675781 172.789062 228.277344 C 181.191406 242.65625 183.066406 260.367188 178.898438 276.414062 C 184.457031 289.058594 182.722656 303.714844 177.648438 316.21875 C 176.957031 317.328125 177.789062 318.511719 178.207031 319.621094 C 182.304688 329.277344 182.722656 340.601562 178.761719 350.394531 C 174.871094 360.398438 166.8125 368.941406 156.671875 372.625 C 150.835938 374.847656 144.375 373.804688 138.472656 372.277344 C 122.980469 368.386719 108.601562 359.078125 99.917969 345.464844 C 90.261719 347.128906 80.050781 346.367188 71.160156 341.921875 C 54.765625 334.140625 42.820312 316.914062 42.820312 298.574219 C 42.957031 297.742188 41.914062 297.601562 41.429688 297.324219 C 34.066406 294.40625 28.023438 288.363281 25.3125 280.929688 C 22.675781 273.84375 22.050781 265.996094 23.507812 258.5625 C 16.699219 253.074219 12.742188 244.808594 11.421875 236.472656 C 9.753906 226.609375 11.210938 216.398438 14.824219 207.160156 C 12.742188 200.769531 11.28125 194.167969 11.074219 187.429688 C 10.585938 176.453125 12.394531 164.992188 18.296875 155.546875 C 20.660156 151.933594 23.578125 148.738281 26.910156 145.960938 C 25.453125 134.777344 26.703125 123.175781 30.382812 112.546875 C 34.273438 102.265625 40.734375 92.332031 50.53125 86.914062 C 50.53125 80.523438 52.058594 73.785156 56.433594 68.855469 C 59.835938 64.6875 65.1875 62.324219 70.535156 62.253906 C 71.367188 51.347656 75.257812 40.511719 82.550781 32.246094 C 86.859375 27.105469 92.695312 23.144531 99.222656 21.617188 C 104.710938 20.367188 110.6875 21.410156 115.339844 24.535156 C 118.117188 17.035156 123.605469 10.503906 130.691406 6.753906 Z M 132.21875 12.308594 C 125.828125 15.921875 121.3125 22.382812 119.507812 29.398438 C 122.355469 33.359375 123.882812 38.289062 123.398438 43.222656 C 121.871094 42.457031 121.035156 41 120.0625 39.679688 C 117.214844 35.648438 114.296875 31.414062 109.921875 28.980469 C 107.003906 27.246094 103.460938 27.035156 100.195312 27.800781 C 93.738281 29.191406 88.527344 33.984375 84.84375 39.261719 C 80.050781 46.277344 76.71875 54.613281 76.71875 63.15625 C 81.234375 65.378906 85.402344 68.296875 89.011719 71.839844 C 90.402344 73.300781 91.792969 74.828125 92.625 76.703125 C 86.441406 74.6875 81.09375 70.519531 74.910156 68.644531 C 69.980469 67.117188 64.285156 68.785156 60.949219 72.675781 C 57.476562 76.078125 56.15625 81.011719 56.085938 85.804688 C 59.90625 86.21875 63.589844 87.816406 66.507812 90.386719 C 69.632812 93.167969 72.621094 96.429688 73.453125 100.667969 C 73.175781 100.597656 72.621094 100.460938 72.339844 100.320312 C 68.242188 97.683594 64.769531 94 60.253906 91.984375 C 57.476562 90.734375 54.140625 91.359375 51.710938 93.027344 C 45.667969 97.058594 41.429688 103.308594 38.164062 109.699219 C 33.371094 120.050781 31.289062 131.789062 32.328125 143.179688 C 37.609375 141.167969 43.304688 140.890625 48.863281 141.238281 C 47.265625 136.027344 47.335938 130.398438 48.375 125.050781 C 48.445312 124.355469 48.863281 123.730469 49.488281 123.382812 C 51.15625 129.636719 51.433594 136.375 54.699219 142.070312 C 60.878906 144.433594 67.617188 146.863281 71.855469 152.140625 C 70.328125 152.074219 68.867188 151.308594 67.480469 150.753906 C 59.835938 147.488281 51.5 145.820312 43.167969 146.515625 C 38.027344 146.933594 32.886719 148.738281 28.925781 152.140625 C 22.535156 157.699219 18.851562 165.6875 17.464844 173.816406 C 15.65625 184.652344 16.976562 195.976562 20.796875 206.1875 C 22.8125 211.394531 25.660156 216.535156 30.246094 219.941406 C 33.789062 222.859375 38.164062 224.523438 41.984375 226.886719 C 39.972656 228.136719 37.539062 227.164062 35.457031 226.816406 C 28.300781 225.011719 22.257812 220.007812 18.574219 213.6875 C 16.285156 221.121094 15.65625 229.109375 16.976562 236.75 C 18.160156 243.558594 21.355469 250.367188 27.121094 254.394531 C 32.539062 258.421875 39.902344 258.839844 46.292969 257.035156 C 45.875 250.921875 50.113281 244.878906 56.15625 243.628906 C 54.28125 247.238281 51.292969 250.503906 51.015625 254.742188 C 50.53125 263.632812 54.90625 272.109375 61.15625 278.152344 C 58.65625 278.152344 56.433594 276.761719 54.488281 275.234375 C 50.183594 271.691406 47.820312 266.273438 46.640625 260.925781 C 41.082031 263.496094 34.550781 263.148438 28.785156 261.203125 C 27.605469 268.355469 28.578125 276 32.261719 282.320312 C 36.011719 288.847656 43.097656 293.015625 50.390625 294.335938 C 56.226562 295.171875 62.40625 294.960938 67.757812 292.253906 C 69.839844 291.28125 71.578125 289.613281 73.660156 288.570312 C 72.828125 291.558594 70.535156 293.78125 68.171875 295.585938 C 62.617188 299.753906 55.113281 300.3125 48.445312 299.199219 C 48.863281 310.660156 54.558594 321.636719 62.964844 329.277344 C 69.703125 335.53125 78.453125 339.765625 87.691406 340.253906 C 92.417969 340.460938 97.417969 340.601562 101.792969 338.515625 C 104.921875 337.128906 107.351562 334.070312 107.835938 330.738281 C 106.519531 327.332031 104.015625 324.277344 103.53125 320.523438 C 105.960938 321.914062 107.351562 324.484375 109.367188 326.429688 C 115.480469 333.445312 122.84375 339.488281 131.386719 343.308594 C 134.304688 344.769531 137.570312 345.53125 140.484375 347.0625 C 138.261719 347.964844 135.832031 347.476562 133.539062 347.269531 C 125.203125 346.089844 117.703125 341.296875 111.796875 335.460938 C 110.753906 338.65625 107.976562 340.808594 105.476562 342.824219 C 111.589844 352.339844 121.105469 359.21875 131.386719 363.59375 C 137.847656 366.164062 144.863281 368.59375 151.878906 367.484375 C 158.546875 366.023438 164.171875 361.441406 168.339844 356.230469 C 174.871094 347.753906 177.300781 336.222656 174.386719 325.941406 C 172.648438 319.34375 168.550781 313.230469 162.507812 309.828125 C 160.976562 308.855469 159.101562 308.507812 157.78125 307.257812 C 163.203125 306.144531 168.828125 308.367188 172.71875 312.1875 C 176.332031 302.742188 178.273438 292.253906 175.425781 282.320312 C 172.648438 287.042969 167.996094 290.722656 162.507812 291.558594 C 154.101562 292.808594 145.488281 290.308594 138.542969 285.515625 C 136.597656 284.125 134.375 282.734375 133.332031 280.445312 C 134.234375 280.445312 135.207031 280.445312 136.109375 280.859375 C 142.429688 283.152344 148.890625 285.304688 155.558594 286.070312 C 159.242188 286.417969 163.339844 286.347656 166.535156 284.125 C 170.21875 281.554688 172.230469 277.25 173.480469 273.082031 C 177.023438 260.019531 175.21875 245.710938 168.757812 233.832031 C 164.035156 225.566406 157.367188 218.203125 148.960938 213.480469 C 141.804688 209.242188 133.75 206.949219 125.757812 204.867188 C 124.160156 204.378906 122.355469 204.171875 121.105469 202.992188 C 124.855469 202.367188 128.609375 202.574219 132.359375 202.644531 C 129.859375 197.15625 128.050781 191.179688 128.675781 185.136719 C 129.371094 185.625 129.789062 186.386719 130.066406 187.222656 C 132.289062 193.058594 135.347656 198.613281 139.167969 203.546875 C 144.722656 205.074219 150.140625 207.296875 154.867188 210.5625 C 160.214844 213.964844 164.730469 218.621094 168.757812 223.484375 C 174.246094 212.925781 175.425781 200.558594 173.480469 188.890625 C 171.257812 192.433594 168.621094 196.53125 164.171875 197.15625 C 165.355469 194.375 167.160156 191.945312 168.410156 189.238281 C 174.59375 177.636719 177.511719 163.742188 174.039062 150.824219 C 172.300781 144.847656 169.660156 138.527344 164.3125 134.914062 C 162.230469 133.386719 159.589844 133.039062 157.089844 132.621094 C 160.976562 129.773438 166.675781 130.539062 170.566406 133.039062 C 173.828125 125.605469 175.703125 117.617188 176.332031 109.492188 C 177.164062 100.042969 173.550781 90.25 166.535156 83.789062 C 161.535156 79.066406 154.519531 76.84375 147.710938 77.191406 C 148.820312 75.800781 150.628906 75.382812 152.296875 75.035156 C 158.753906 73.925781 165.632812 76.007812 170.632812 80.246094 C 173.761719 68.296875 176.261719 55.378906 172.300781 43.289062 C 170.632812 37.734375 167.023438 32.59375 161.882812 29.746094 C 161.8125 28.496094 163.410156 28.980469 164.171875 28.84375 C 169.175781 28.773438 172.925781 32.941406 175.21875 36.96875 C 176.332031 30.71875 175.359375 23.980469 172.023438 18.492188 C 168.828125 13.28125 163.617188 9.324219 157.644531 7.933594 C 149.238281 6.058594 139.929688 7.933594 132.21875 12.308594 Z M 132.21875 12.308594 " fill-opacity="1" fill-rule="nonzero"/><path fill="#ffffff" d="M 206.824219 6.753906 C 213.5625 2.238281 222.039062 0.5 230.027344 1.820312 C 240.445312 3.347656 249.894531 9.390625 256.421875 17.589844 C 257.605469 18.910156 258.160156 20.714844 259.617188 21.6875 C 267.539062 20.230469 276.011719 21.132812 283.097656 25.160156 C 296.367188 32.105469 303.867188 47.527344 302.757812 62.253906 C 308.523438 62.394531 314.21875 64.824219 318.039062 69.203125 C 322.34375 73.925781 324.359375 80.453125 324.082031 86.84375 C 333.738281 92.542969 341.03125 101.917969 344.296875 112.617188 C 347.492188 123.175781 348.324219 134.636719 345.753906 145.40625 C 353.1875 149.710938 358.1875 157.144531 360.898438 165.132812 C 365.066406 178.398438 364.71875 192.988281 360.410156 206.117188 C 360.203125 206.949219 359.71875 207.851562 360.132812 208.757812 C 363.675781 218.273438 364.578125 228.902344 362.289062 238.835938 C 360.621094 245.988281 356.730469 252.65625 350.824219 257.105469 C 352.492188 266.34375 351.730469 276.34375 347.144531 284.679688 C 344.15625 290.238281 338.808594 294.199219 332.902344 296.144531 C 332.902344 304.546875 330.890625 313.09375 326.511719 320.386719 C 321.929688 328.445312 314.914062 335.042969 306.855469 339.699219 C 296.851562 345.671875 284.554688 348.242188 273.09375 345.742188 C 271.359375 349.769531 268.511719 353.242188 265.246094 356.160156 C 258.785156 362.273438 250.726562 366.300781 242.53125 369.496094 C 234.820312 372.414062 226.273438 374.5 218.148438 372.136719 C 208.910156 369.636719 201.960938 361.996094 197.933594 353.589844 C 193.625 345.117188 193 335.460938 192.863281 326.082031 C 192.65625 311.007812 192.792969 295.863281 192.722656 280.792969 C 192.863281 263.773438 192.585938 246.753906 192.722656 229.664062 C 192.792969 217.230469 192.238281 204.65625 194.390625 192.292969 C 195.085938 188.265625 196.058594 184.234375 197.238281 180.34375 C 193.972656 171.59375 192.792969 162.285156 192.722656 152.976562 C 192.515625 141.792969 192.515625 130.539062 192.585938 119.355469 C 192.515625 108.796875 192.863281 97.890625 197.167969 88.097656 C 197.792969 87.191406 197.03125 86.289062 196.753906 85.386719 C 194.738281 80.664062 194.042969 75.453125 193.417969 70.382812 C 192.65625 63.089844 192.722656 55.792969 192.65625 48.5 C 192.65625 40.722656 192.585938 32.800781 194.113281 25.160156 C 195.640625 17.726562 200.363281 10.921875 206.824219 6.753906 Z M 226.761719 17.378906 C 225.996094 19.949219 227.527344 22.800781 230.304688 23.144531 C 230.375 26.410156 230.304688 29.675781 230.234375 32.941406 C 225.789062 37.316406 221.414062 41.691406 216.757812 45.792969 C 216.757812 57.183594 216.96875 68.578125 216.550781 79.96875 C 220.855469 83.789062 225.09375 87.75 229.332031 91.707031 C 230.164062 92.332031 230.097656 93.515625 230.164062 94.488281 C 230.304688 107.058594 230.234375 119.632812 230.164062 132.207031 C 223.425781 137.695312 217.730469 144.363281 211.132812 149.988281 C 210.921875 154.921875 211.0625 159.851562 211.0625 164.785156 C 211.0625 181.386719 210.921875 197.988281 211.0625 214.589844 C 212.589844 216.328125 214.535156 217.71875 216.132812 219.382812 C 217.523438 220.566406 218.632812 222.164062 220.230469 223.066406 C 232.039062 223.066406 243.851562 223.066406 255.660156 222.996094 C 256.769531 223.066406 258.089844 222.71875 258.855469 223.761719 C 264.6875 229.734375 271.011719 235.222656 276.914062 241.125 C 280.179688 241.820312 283.582031 241.125 286.917969 241.472656 C 290.113281 244.320312 293.515625 247.171875 296.296875 250.433594 C 299.492188 250.433594 302.6875 250.367188 305.882812 250.503906 C 308.867188 252.867188 311.507812 255.714844 314.289062 258.355469 C 314.007812 259.882812 313.523438 261.550781 314.21875 263.007812 C 315.398438 265.71875 319.496094 266.550781 321.582031 264.398438 C 323.941406 262.3125 322.832031 258.144531 320.054688 257.035156 C 318.59375 256.132812 316.925781 256.824219 315.605469 257.589844 C 312.621094 254.671875 309.839844 251.546875 306.644531 248.90625 C 303.449219 248.699219 300.1875 248.835938 296.992188 248.835938 C 293.863281 245.710938 290.738281 242.585938 287.335938 239.875 C 284.210938 239.597656 280.875 240.363281 277.886719 239.597656 C 271.636719 233.972656 265.59375 228.207031 259.6875 222.300781 C 258.992188 221.398438 257.8125 221.539062 256.839844 221.46875 C 244.890625 221.539062 232.875 221.675781 220.925781 221.539062 C 218.007812 219.175781 215.4375 216.46875 212.589844 214.035156 C 212.382812 192.988281 212.660156 171.871094 212.519531 150.824219 C 219.328125 145.195312 225.164062 138.457031 231.832031 132.691406 C 231.554688 119.078125 231.902344 105.460938 231.554688 91.847656 C 227.316406 87.46875 222.664062 83.582031 218.285156 79.414062 C 218.285156 68.578125 218.285156 57.738281 218.355469 46.902344 C 219.398438 45.375 220.925781 44.261719 222.175781 43.011719 C 225.09375 40.304688 227.664062 37.316406 230.722656 34.675781 C 231.136719 34.191406 231.972656 33.703125 231.832031 32.941406 C 231.902344 29.675781 231.972656 26.480469 231.972656 23.214844 C 232.945312 22.867188 234.054688 22.730469 234.890625 22.035156 C 236.765625 19.949219 236.417969 16.0625 233.847656 14.742188 C 231.347656 13.210938 227.527344 14.464844 226.761719 17.378906 Z M 214.328125 20.714844 C 211.269531 22.730469 212.3125 28.285156 216.132812 28.632812 C 216.0625 31.898438 216.273438 35.234375 215.855469 38.496094 C 214.257812 40.234375 212.453125 41.902344 210.714844 43.5 C 210.785156 56.28125 210.644531 68.992188 210.785156 81.773438 C 215.300781 86.082031 219.882812 90.320312 224.46875 94.554688 C 224.539062 107.128906 224.46875 119.632812 224.539062 132.207031 C 224.886719 132.207031 225.582031 132.136719 225.929688 132.136719 C 226.277344 126.996094 225.71875 121.785156 225.996094 116.644531 C 225.859375 109.144531 225.996094 101.570312 226.066406 94.070312 C 221.550781 89.625 216.6875 85.527344 212.3125 80.941406 C 212.175781 68.921875 212.242188 56.835938 212.242188 44.75 C 213.5625 42.25 216.828125 40.929688 217.660156 38.152344 C 217.730469 35.09375 217.59375 32.105469 217.730469 29.050781 C 219.882812 28.425781 222.109375 26.828125 221.96875 24.328125 C 222.175781 20.4375 217.105469 18.421875 214.328125 20.714844 Z M 240.792969 20.921875 C 237.460938 22.171875 237.25 27.453125 240.375 29.050781 C 243.15625 30.71875 247.460938 28.773438 247.671875 25.367188 C 248.019531 21.894531 243.78125 19.324219 240.792969 20.921875 Z M 198.699219 25.925781 C 196.40625 28.21875 197.308594 32.105469 200.019531 33.636719 C 200.226562 51 199.949219 68.367188 200.019531 85.734375 C 200.019531 86.5 200.78125 86.914062 201.199219 87.46875 C 205.15625 90.875 208.699219 94.695312 212.519531 98.238281 C 213.285156 99 214.398438 99.765625 214.1875 101.015625 C 214.1875 111.4375 214.257812 121.785156 214.257812 132.207031 C 209.535156 136.582031 205.019531 141.238281 200.15625 145.472656 C 200.085938 169.855469 199.949219 194.238281 200.085938 218.621094 C 203.003906 221.746094 206.339844 224.523438 209.257812 227.652344 C 205.644531 231.054688 202.242188 234.597656 198.421875 237.792969 C 198.351562 244.53125 198.28125 251.339844 198.351562 258.078125 C 200.78125 259.675781 202.65625 261.898438 204.742188 263.980469 C 208.144531 267.523438 211.828125 270.789062 215.230469 274.332031 C 215.507812 279.054688 215.300781 283.777344 215.371094 288.570312 C 215.230469 289.472656 215.578125 290.585938 214.882812 291.28125 C 213.148438 293.015625 211.339844 294.683594 209.324219 296.210938 C 208.910156 311.425781 209.257812 326.636719 209.117188 341.851562 C 206.824219 343.03125 204.671875 345.464844 205.714844 348.242188 C 206.824219 351.992188 212.800781 352.199219 214.398438 348.726562 C 215.230469 347.199219 214.882812 345.394531 214.050781 343.867188 C 214.398438 343.867188 215.160156 343.796875 215.507812 343.796875 C 215.648438 331.570312 215.4375 319.34375 215.507812 307.117188 C 217.246094 305.242188 219.46875 303.855469 220.996094 301.839844 C 221.34375 297.183594 221.066406 292.460938 221.203125 287.738281 C 222.664062 286.417969 224.121094 285.238281 225.582031 283.917969 C 225.996094 283.429688 226.761719 283.015625 226.554688 282.25 C 226.34375 279.886719 226.414062 277.597656 226.273438 275.234375 C 220.511719 270.441406 215.4375 265.023438 209.882812 260.019531 C 208.421875 258.421875 206.476562 257.171875 205.296875 255.367188 C 205.15625 251.753906 205.296875 248.074219 205.226562 244.390625 C 204.949219 242.308594 207.035156 241.195312 208.144531 239.808594 C 223.21875 239.945312 238.292969 239.945312 253.296875 239.667969 C 266.496094 252.242188 279.414062 265.160156 292.542969 277.734375 C 298.242188 283.570312 304.074219 289.195312 309.703125 295.03125 C 311.996094 295.171875 314.355469 295.238281 316.648438 295.238281 C 316.996094 296.835938 317.414062 298.714844 318.941406 299.546875 C 321.234375 300.589844 324.359375 299.824219 325.539062 297.460938 C 327.136719 294.683594 325.054688 290.792969 321.789062 290.726562 C 319.636719 290.238281 317.96875 291.835938 316.925781 293.503906 C 314.773438 293.503906 312.550781 293.574219 310.398438 293.503906 C 307.617188 290.097656 304.074219 287.390625 301.160156 284.195312 C 297.546875 280.304688 293.65625 276.554688 289.835938 272.871094 C 281.222656 264.46875 272.609375 256.0625 263.855469 247.726562 C 260.523438 244.601562 257.324219 241.195312 253.851562 238.210938 C 243.226562 238.277344 232.527344 238.210938 221.898438 238.347656 C 217.3125 238.347656 212.660156 238.488281 208.074219 238.140625 C 206.339844 239.25 204.878906 240.78125 203.628906 242.378906 C 203.421875 246.546875 203.558594 250.714844 203.492188 254.8125 C 203.214844 256.546875 204.949219 257.449219 205.992188 258.492188 C 211.894531 264.050781 217.59375 269.675781 223.566406 275.164062 C 224.050781 275.652344 224.746094 276.136719 224.609375 276.902344 C 224.675781 278.777344 224.746094 280.652344 224.46875 282.457031 C 223.21875 284.542969 220.230469 285.097656 219.46875 287.390625 C 219.191406 291.976562 219.605469 296.492188 219.328125 301.074219 C 217.730469 302.949219 215.648438 304.410156 213.839844 306.144531 C 213.910156 318.582031 213.839844 331.015625 213.910156 343.449219 C 212.800781 342.894531 211.6875 342.40625 210.507812 342.058594 C 210.4375 327.054688 210.4375 312.050781 210.578125 296.976562 C 212.589844 295.03125 215.089844 293.574219 216.757812 291.351562 C 216.898438 285.375 216.621094 279.402344 216.757812 273.429688 C 210.644531 268.425781 205.4375 262.453125 199.671875 257.105469 C 199.601562 250.921875 199.671875 244.808594 199.738281 238.625 C 203.351562 235.359375 206.964844 232.027344 210.367188 228.554688 C 212.453125 230.289062 214.050781 232.375 216.203125 234.042969 C 229.054688 234.109375 241.972656 234.109375 254.894531 233.972656 C 256.421875 235.570312 257.882812 237.238281 259.480469 238.765625 C 273.582031 252.171875 287.542969 265.648438 301.574219 279.125 C 302.546875 280.304688 304.144531 279.886719 305.535156 279.957031 C 311.4375 279.820312 317.273438 280.097656 323.179688 280.027344 C 322.96875 279.609375 322.554688 278.847656 322.34375 278.5 C 316.230469 278.359375 310.050781 278.5 303.9375 278.5 C 303.035156 278.570312 302.476562 277.734375 301.851562 277.25 C 294.628906 270.300781 287.335938 263.496094 280.25 256.480469 C 272.957031 249.460938 265.523438 242.585938 258.296875 235.5 C 257.1875 234.527344 256.421875 233.207031 255.101562 232.652344 C 242.253906 232.652344 229.402344 232.929688 216.621094 232.582031 C 211.617188 227.859375 206.617188 223.136719 201.683594 218.34375 C 201.335938 194.585938 201.753906 170.828125 201.617188 147.070312 C 201.894531 146.515625 202.242188 146.097656 202.726562 145.683594 C 207.101562 141.515625 211.550781 137.347656 215.785156 133.039062 C 216.132812 125.953125 215.714844 118.800781 215.925781 111.644531 C 215.785156 107.476562 216.203125 103.238281 215.648438 99.070312 C 211.964844 95.738281 208.5625 92.195312 204.878906 88.789062 C 203.699219 87.402344 201.40625 86.429688 201.546875 84.34375 C 201.824219 67.605469 201.476562 50.863281 201.824219 34.191406 C 204.53125 34.332031 207.3125 32.105469 206.894531 29.257812 C 206.824219 25.089844 201.199219 23.007812 198.699219 25.925781 Z M 205.226562 41.761719 C 205.15625 55.792969 205.367188 69.828125 205.226562 83.859375 C 210.019531 88.027344 214.328125 92.679688 219.121094 96.847656 C 219.191406 109.558594 219.257812 122.34375 219.191406 135.054688 C 214.398438 139.222656 209.949219 143.738281 205.367188 148.113281 C 205.15625 168.953125 205.367188 189.792969 205.367188 210.5625 C 205.4375 212.578125 205.089844 214.660156 205.4375 216.605469 C 209.535156 220.425781 213.773438 224.109375 217.660156 228.136719 L 218.078125 228.277344 C 230.789062 228.277344 243.503906 228.34375 256.144531 228.136719 C 258.578125 230.082031 260.523438 232.511719 262.882812 234.597656 C 276.777344 247.796875 290.667969 260.992188 304.5625 274.191406 C 310.675781 274.46875 316.789062 274.191406 322.902344 274.332031 C 324.636719 275.441406 325.957031 277.179688 327.554688 278.5 C 327.347656 281.207031 327.347656 283.917969 327.484375 286.625 C 327.761719 286.558594 328.386719 286.347656 328.667969 286.277344 C 329.222656 283.570312 328.804688 280.722656 329.152344 278.011719 C 327.554688 276.207031 325.539062 274.679688 323.875 272.941406 C 319.148438 272.734375 314.355469 273.082031 309.632812 272.871094 C 307.757812 272.664062 305.464844 273.429688 304.144531 271.761719 C 296.78125 264.675781 289.210938 257.660156 281.917969 250.503906 C 273.582031 242.445312 264.96875 234.734375 256.910156 226.46875 C 252.253906 226.816406 247.601562 226.679688 242.945312 226.746094 C 234.820312 226.746094 226.761719 226.816406 218.703125 226.679688 C 214.746094 223.34375 211.132812 219.523438 207.242188 216.121094 C 206.6875 212.578125 207.171875 208.964844 206.964844 205.351562 C 206.894531 187.359375 206.824219 169.300781 206.894531 151.308594 C 207.035156 150.199219 206.6875 148.808594 207.660156 147.972656 C 211.964844 143.804688 216.550781 139.847656 220.71875 135.472656 C 220.71875 123.105469 220.648438 110.742188 220.648438 98.375 C 220.511719 97.472656 220.855469 96.363281 220.164062 95.667969 C 215.648438 91.570312 211.410156 87.261719 206.964844 83.164062 C 206.476562 73.925781 206.894531 64.6875 206.6875 55.449219 C 206.753906 51 206.476562 46.554688 206.894531 42.179688 C 208.839844 39.816406 211.339844 37.941406 213.148438 35.441406 C 213.839844 34.609375 213.285156 33.496094 212.800781 32.664062 C 211.339844 36.691406 207.660156 38.707031 205.226562 41.761719 Z M 261.285156 39.332031 C 261.492188 40.722656 262.605469 41.625 263.648438 42.527344 C 263.648438 43.917969 263.648438 45.304688 263.648438 46.695312 C 258.578125 50.863281 254.128906 55.792969 249.335938 60.308594 C 244.824219 64.617188 240.722656 69.203125 235.929688 73.160156 C 234.195312 71.703125 232.667969 69.964844 231.136719 68.296875 C 232.804688 66.285156 234.75 64.546875 236.625 62.671875 C 239.683594 59.683594 242.53125 56.488281 245.933594 53.78125 C 245.933594 52.183594 245.933594 50.515625 246.074219 48.917969 C 246.699219 48.152344 247.878906 48.015625 248.644531 47.320312 C 250.867188 45.515625 250.449219 41.625 248.085938 40.09375 C 245.726562 38.496094 242.113281 39.332031 240.933594 41.972656 C 239.683594 44.679688 241.417969 48.152344 244.40625 48.570312 C 244.40625 50.027344 244.683594 51.488281 244.335938 52.945312 C 239.75 57.324219 235.445312 61.839844 230.859375 66.214844 C 229.75 67.046875 229.402344 68.855469 230.441406 69.894531 C 232.179688 71.839844 234.265625 73.578125 236.070312 75.453125 C 241.835938 70.242188 247.253906 64.617188 252.742188 59.128906 C 256.839844 55.238281 260.660156 50.933594 265.246094 47.597656 C 265.175781 46.070312 265.175781 44.609375 265.175781 43.082031 C 266.773438 42.875 268.648438 42.597656 269.691406 41.207031 C 271.773438 38.777344 270.316406 34.46875 267.121094 33.914062 C 263.855469 32.800781 260.589844 36.136719 261.285156 39.332031 Z M 276.5 41.625 C 275.25 44.195312 276.636719 47.667969 279.625 48.222656 C 279.554688 50.445312 280.042969 52.738281 279.414062 54.890625 C 277.402344 57.183594 275.039062 59.058594 273.023438 61.351562 C 272.332031 61.90625 271.773438 62.949219 270.800781 62.8125 C 265.730469 62.878906 260.730469 62.8125 255.660156 62.742188 C 254.757812 62.8125 253.644531 62.53125 253.019531 63.4375 C 247.183594 69.410156 241.140625 75.035156 235.167969 80.871094 C 232.875 78.507812 230.097656 76.496094 227.941406 74.0625 C 227.664062 67.257812 227.664062 60.449219 227.941406 53.640625 C 229.886719 53.15625 231.832031 51.972656 232.109375 49.820312 C 232.804688 46.972656 230.097656 44.261719 227.246094 44.472656 C 224.191406 44.75 221.828125 48.222656 223.078125 51.140625 C 223.566406 52.597656 225.582031 52.667969 226.207031 53.917969 C 226.414062 60.933594 226.207031 67.949219 226.414062 75.035156 C 229.472656 77.46875 232.109375 80.59375 235.304688 82.816406 C 241.417969 77.121094 247.324219 71.285156 253.367188 65.449219 C 253.921875 65.035156 254.410156 64.269531 255.171875 64.339844 C 260.9375 64.199219 266.703125 64.410156 272.46875 64.476562 C 275.109375 61.421875 278.027344 58.710938 281.011719 55.933594 C 281.570312 53.503906 281.011719 50.863281 281.359375 48.363281 C 284.210938 48.152344 286.570312 45.375 285.738281 42.527344 C 284.765625 38.429688 278.097656 37.734375 276.5 41.625 Z M 286.222656 63.503906 C 285.390625 64.753906 285.460938 66.285156 285.738281 67.742188 C 275.664062 67.882812 265.59375 68.160156 255.519531 67.949219 C 255.382812 70.9375 255.449219 73.925781 255.449219 76.910156 C 251.90625 80.316406 248.296875 83.71875 244.753906 87.054688 C 241.972656 89.625 239.472656 92.472656 236.277344 94.554688 C 236.277344 106.363281 236.207031 118.105469 236.140625 129.914062 C 236.070312 131.234375 236.347656 132.554688 235.929688 133.804688 C 229.75 139.359375 224.121094 145.472656 217.800781 150.890625 C 217.871094 171.382812 217.800781 191.808594 217.800781 212.300781 C 232.320312 212.367188 246.90625 212.230469 261.425781 212.300781 C 264.757812 215.007812 267.816406 218.066406 270.941406 221.121094 C 274.554688 221.816406 278.445312 220.980469 282.195312 221.328125 C 285.113281 223.691406 287.335938 226.957031 290.601562 228.902344 C 295.53125 228.832031 300.464844 228.554688 305.394531 228.96875 C 308.589844 232.027344 311.925781 234.945312 315.050781 238.070312 C 321.09375 238.488281 327.136719 238 333.183594 238.210938 C 333.183594 237.863281 333.25 237.097656 333.25 236.679688 C 327.761719 236.613281 322.207031 236.820312 316.71875 236.613281 C 316.09375 236.679688 315.539062 236.402344 315.191406 235.917969 C 312.273438 233 309.148438 230.222656 306.160156 227.371094 C 301.089844 226.957031 295.878906 227.234375 290.808594 227.164062 C 287.890625 225.082031 285.667969 222.164062 282.890625 219.871094 C 279.347656 219.316406 275.734375 220.078125 272.121094 219.730469 C 270.175781 218.410156 268.71875 216.535156 266.914062 215.078125 C 265.175781 213.6875 263.925781 211.742188 261.980469 210.703125 C 247.808594 210.910156 233.707031 210.769531 219.539062 210.839844 C 219.328125 208.0625 219.398438 205.214844 219.398438 202.433594 C 219.398438 185.832031 219.46875 169.230469 219.46875 152.628906 C 219.328125 151.378906 220.507812 150.683594 221.203125 149.917969 C 225.648438 145.820312 230.027344 141.722656 234.265625 137.484375 C 235.375 136.234375 236.972656 135.402344 237.738281 133.941406 C 237.738281 123.730469 237.804688 113.589844 237.667969 103.378906 C 242.113281 99.488281 246.28125 95.25 250.519531 91.082031 C 258.4375 91.292969 266.355469 90.875 274.277344 90.945312 C 276.429688 90.804688 278.652344 91.082031 280.804688 90.597656 C 281.984375 89.832031 283.097656 88.859375 283.722656 87.539062 C 281.359375 87.539062 279.625 89.625 277.261719 89.484375 C 268.09375 89.625 258.855469 89.414062 249.683594 89.695312 C 245.65625 93.515625 241.972656 97.683594 237.667969 101.15625 C 237.667969 99.417969 237.460938 97.613281 237.804688 95.875 C 244.128906 89.972656 250.242188 83.859375 256.699219 78.09375 C 262.8125 77.816406 268.996094 78.023438 275.109375 77.953125 C 275.804688 81.636719 280.804688 83.023438 283.375 80.386719 C 286.015625 78.230469 284.488281 73.507812 281.222656 73.023438 C 278.652344 72.1875 276.082031 73.925781 275.246094 76.425781 C 269.203125 76.425781 263.089844 76.425781 257.046875 76.566406 C 257.046875 74.273438 257.046875 71.980469 256.980469 69.6875 C 266.285156 69.617188 275.527344 69.480469 284.835938 69.480469 C 286.988281 69.339844 288.863281 71.007812 291.015625 70.519531 C 294.210938 70.3125 296.226562 66.214844 294.28125 63.574219 C 292.613281 60.65625 287.820312 60.65625 286.222656 63.503906 Z M 305.1875 80.316406 C 302.824219 80.175781 300.394531 80.175781 298.03125 80.105469 C 297.269531 80.175781 296.296875 79.828125 295.738281 80.523438 C 291.015625 85.246094 286.292969 89.972656 281.5 94.625 C 271.773438 94.972656 261.980469 94.765625 252.1875 94.902344 C 248.710938 98.308594 245.308594 101.78125 241.488281 104.835938 C 241.558594 107.058594 241.558594 109.351562 241.628906 111.574219 C 241.972656 111.503906 242.597656 111.296875 242.878906 111.226562 C 243.015625 109.351562 242.878906 107.476562 242.945312 105.601562 C 246.488281 102.753906 249.40625 99.210938 252.949219 96.429688 C 262.535156 96.222656 272.121094 96.222656 281.707031 96.292969 C 282.472656 96.085938 282.820312 95.320312 283.375 94.902344 C 287.820312 90.386719 292.476562 86.152344 296.78125 81.496094 C 299.628906 81.496094 302.476562 81.636719 305.257812 81.703125 C 305.742188 82.886719 306.019531 84.484375 307.410156 84.902344 C 310.121094 86.152344 313.523438 84.691406 314.566406 81.914062 C 315.539062 78.578125 311.785156 75.035156 308.453125 76.355469 C 306.714844 76.910156 305.882812 78.789062 305.1875 80.316406 Z M 295.460938 88.441406 C 292.753906 90.875 290.320312 93.722656 287.542969 96.152344 C 285.945312 97.472656 284.765625 99.347656 282.890625 100.320312 C 273.511719 100.390625 264.132812 100.320312 254.757812 100.460938 C 251.976562 103.308594 249.058594 106.019531 246.003906 108.589844 C 246.003906 110.046875 246.003906 111.503906 245.933594 112.964844 C 244.40625 114.144531 242.945312 115.257812 241.28125 116.230469 C 241.210938 121.785156 241.28125 127.273438 241.28125 132.832031 C 241.210938 134.152344 241.695312 135.816406 240.445312 136.789062 C 234.679688 142.347656 228.984375 147.972656 222.941406 153.253906 C 222.734375 168.328125 223.078125 183.472656 222.800781 198.542969 C 222.523438 200.421875 224.46875 201.324219 225.441406 202.574219 C 226.902344 203.753906 227.941406 205.976562 230.097656 205.769531 C 240.863281 205.699219 251.699219 205.769531 262.464844 205.628906 C 265.730469 209.171875 269.550781 212.160156 272.679688 215.839844 C 289.835938 215.980469 306.925781 215.910156 324.082031 215.980469 C 325.472656 217.371094 326.722656 218.898438 328.386719 219.871094 C 331.863281 219.730469 335.40625 219.730469 338.878906 219.730469 C 339.574219 222.164062 341.796875 224.246094 344.503906 223.621094 C 348.1875 223.34375 349.714844 218.132812 346.9375 215.839844 C 344.503906 213.410156 339.363281 214.523438 339.085938 218.203125 C 335.542969 218.273438 331.929688 218.480469 328.386719 218.203125 C 327.136719 217.160156 326.097656 215.839844 324.914062 214.730469 C 327.136719 212.578125 329.222656 210.214844 331.445312 208.0625 C 332.417969 207.226562 333.113281 206.1875 333.738281 205.074219 C 337.28125 205.074219 340.824219 205.144531 344.367188 205.074219 C 344.78125 206.117188 344.921875 207.296875 345.683594 208.199219 C 347.5625 210.144531 351.105469 210.144531 352.910156 208.132812 C 354.992188 205.628906 353.605469 201.324219 350.546875 200.421875 C 348.117188 199.726562 345.476562 201.253906 344.710938 203.546875 C 340.753906 203.617188 336.863281 203.476562 332.902344 203.617188 C 331.722656 204.378906 331.304688 205.90625 330.265625 206.8125 C 327.832031 209.101562 325.75 211.671875 323.386719 214.105469 C 322.277344 214.453125 321.164062 214.3125 320.054688 214.382812 C 304.5625 214.382812 289.070312 214.242188 273.648438 214.382812 C 270.175781 210.910156 266.496094 207.644531 263.230469 204.03125 C 251.976562 204.242188 240.722656 204.03125 229.539062 204.242188 C 227.875 202.574219 226.207031 200.90625 224.46875 199.378906 C 224.398438 189.582031 224.46875 179.789062 224.398438 169.996094 C 224.46875 164.992188 224.121094 159.921875 224.398438 154.921875 C 224.398438 153.738281 225.648438 153.113281 226.34375 152.351562 C 231.484375 147.835938 236.277344 142.902344 241.347656 138.320312 C 241.90625 137.695312 242.738281 137.207031 242.667969 136.234375 C 242.738281 130.050781 242.597656 123.941406 242.738281 117.757812 C 244.058594 116.4375 245.796875 115.671875 247.253906 114.5625 C 247.324219 112.894531 247.324219 111.296875 247.324219 109.628906 C 250.171875 107.199219 252.878906 104.488281 255.726562 101.988281 C 265.175781 101.851562 274.554688 101.78125 284 101.917969 C 287.960938 97.890625 292.058594 94.140625 296.019531 90.109375 C 299.90625 89.625 303.867188 90.109375 307.757812 89.554688 C 308.453125 89.414062 308.800781 88.929688 308.730469 88.164062 C 304.285156 88.511719 299.839844 88.097656 295.460938 88.441406 Z M 312.757812 92.265625 C 312.203125 92.957031 311.996094 94.277344 310.882812 94.140625 C 306.296875 94.277344 301.714844 94.140625 297.128906 94.140625 C 293.65625 97.613281 290.042969 100.945312 286.570312 104.488281 C 285.875 105.113281 285.179688 106.019531 284.140625 105.949219 C 276.21875 106.019531 268.300781 106.019531 260.3125 106.019531 C 258.992188 105.808594 258.160156 106.992188 257.324219 107.824219 C 254.757812 110.671875 251.90625 113.242188 249.058594 115.8125 C 248.019531 116.785156 246.765625 117.894531 246.835938 119.492188 C 246.558594 125.746094 247.046875 132.066406 246.558594 138.320312 C 245.03125 140.195312 243.085938 141.792969 241.347656 143.527344 C 236.972656 147.628906 232.734375 151.933594 228.011719 155.753906 C 228.011719 169.371094 228.082031 183.054688 227.941406 196.667969 C 227.734375 198.335938 229.261719 199.65625 230.652344 200.28125 C 241.695312 200.210938 252.671875 200.28125 263.71875 200.144531 C 264.410156 200.074219 264.96875 200.351562 265.382812 200.835938 C 268.371094 203.824219 271.359375 206.8125 274.414062 209.796875 C 274.832031 210.285156 275.316406 210.492188 275.941406 210.421875 C 290.253906 210.214844 304.5625 210.355469 318.800781 210.285156 C 322.484375 206.949219 325.539062 202.921875 329.5 199.863281 C 334.015625 199.65625 338.53125 199.863281 343.046875 199.726562 C 343.324219 197.710938 343.808594 195.765625 343.742188 193.683594 C 337.835938 193.335938 331.863281 193.265625 325.957031 193.335938 C 322.136719 196.253906 319.289062 200.488281 315.398438 203.269531 C 303.796875 203.40625 292.199219 203.476562 280.527344 203.476562 C 279.625 203.40625 278.445312 203.753906 277.679688 203.058594 C 274.207031 199.933594 271.148438 196.390625 267.605469 193.265625 C 264.0625 192.847656 260.519531 193.125 256.980469 193.058594 C 256.980469 185.761719 256.910156 178.46875 256.980469 171.175781 C 267.46875 171.175781 277.957031 171.105469 288.445312 171.382812 C 290.878906 173.191406 292.824219 175.550781 295.253906 177.359375 C 299.214844 177.425781 303.171875 177.359375 307.132812 177.496094 C 307.617188 178.886719 308.105469 180.414062 309.5625 181.109375 C 312.132812 182.707031 315.953125 181.109375 316.578125 178.121094 C 317.273438 174.925781 313.941406 171.871094 310.8125 172.566406 C 309.007812 172.773438 307.964844 174.511719 307.132812 175.898438 C 303.3125 175.828125 299.492188 175.828125 295.738281 175.761719 C 293.308594 173.953125 291.433594 171.523438 289.003906 169.71875 C 278.511719 169.4375 267.953125 169.925781 257.464844 169.578125 L 257.117188 169.230469 C 257.046875 166.453125 256.980469 163.671875 257.117188 160.964844 C 258.367188 159.160156 260.035156 157.769531 261.5625 156.101562 C 262.398438 155.40625 263.089844 154.226562 264.410156 154.367188 C 271.359375 154.367188 278.304688 154.296875 285.320312 154.433594 C 289.003906 150.683594 292.960938 147.210938 296.644531 143.527344 C 298.65625 141.652344 300.464844 139.570312 302.757812 138.042969 C 306.855469 141.304688 310.464844 145.058594 314.496094 148.460938 C 315.121094 149.710938 314.496094 151.515625 315.605469 152.628906 C 317.691406 155.128906 321.71875 154.78125 323.664062 152.28125 C 327.277344 152.558594 330.957031 152.28125 334.570312 152.488281 C 333.945312 155.617188 336.722656 158.742188 339.917969 158.046875 C 343.183594 157.90625 344.921875 153.738281 343.046875 151.167969 C 341.238281 148.253906 336.445312 148.183594 334.847656 151.308594 C 331.304688 150.890625 327.695312 151.101562 324.082031 150.960938 C 324.222656 148.601562 323.109375 145.75 320.46875 145.40625 C 318.523438 144.777344 316.578125 145.683594 315.328125 147.140625 C 311.648438 144.222656 308.523438 140.679688 304.910156 137.695312 C 303.867188 136.722656 302.0625 136.375 300.878906 137.347656 C 295.394531 142.417969 290.253906 147.765625 284.695312 152.769531 C 277.472656 153.046875 270.246094 152.699219 263.023438 152.976562 C 261.078125 154.296875 259.6875 156.171875 257.953125 157.699219 C 256.980469 158.742188 255.449219 159.644531 255.660156 161.3125 C 255.726562 172.425781 255.660156 183.539062 255.726562 194.65625 C 259.203125 194.65625 262.675781 194.65625 266.148438 194.65625 C 267.050781 194.515625 267.605469 195.347656 268.230469 195.90625 C 270.734375 198.476562 273.441406 200.699219 275.875 203.339844 C 276.566406 204.03125 277.261719 205.074219 278.445312 204.9375 C 286.152344 204.9375 293.933594 204.9375 301.714844 204.9375 C 306.367188 205.003906 311.023438 204.589844 315.675781 204.9375 C 316.648438 205.074219 317.273438 204.171875 317.898438 203.617188 C 320.816406 200.628906 323.734375 197.710938 326.722656 194.792969 C 331.863281 194.792969 337.070312 194.722656 342.210938 195.003906 C 342.210938 196.042969 342.210938 197.15625 342.210938 198.199219 C 337.765625 198.199219 333.390625 198.199219 328.945312 198.128906 C 326.027344 201.113281 322.96875 203.964844 320.191406 207.089844 C 319.425781 207.851562 318.59375 208.964844 317.414062 208.757812 C 305.046875 208.824219 292.683594 208.6875 280.25 208.824219 C 278.789062 208.757812 277.332031 208.964844 275.875 208.617188 C 273.164062 206.253906 270.664062 203.753906 268.164062 201.253906 C 267.050781 200.28125 266.289062 198.40625 264.550781 198.683594 C 253.714844 198.613281 242.878906 198.824219 232.039062 198.683594 C 230.859375 198.824219 229.539062 197.988281 229.816406 196.738281 C 229.816406 183.816406 229.816406 170.828125 229.816406 157.90625 C 229.609375 156.933594 230.441406 156.308594 231 155.683594 C 236.140625 150.960938 241.28125 146.238281 246.140625 141.238281 C 246.976562 140.265625 248.503906 139.570312 248.433594 138.109375 C 248.503906 132.136719 248.503906 126.09375 248.503906 120.117188 C 248.363281 118.867188 249.40625 118.105469 250.171875 117.339844 C 253.4375 114.214844 256.632812 111.019531 259.757812 107.753906 C 268.300781 107.335938 276.847656 107.683594 285.390625 107.546875 C 287.472656 106.363281 288.933594 104.28125 290.738281 102.753906 C 293.238281 100.597656 295.253906 97.960938 297.753906 95.804688 C 302.546875 95.527344 307.339844 95.667969 312.0625 95.527344 C 313.035156 98.445312 316.789062 99.90625 319.425781 98.308594 C 321.789062 96.988281 321.996094 93.515625 320.332031 91.570312 C 318.316406 89.207031 314.148438 89.695312 312.757812 92.265625 Z M 201.894531 101.085938 C 199.183594 103.726562 201.269531 108.65625 205.019531 108.796875 C 205.15625 116.019531 205.089844 123.316406 205.15625 130.539062 C 205.089844 131.304688 205.296875 132.277344 204.742188 132.902344 C 202.242188 135.679688 199.324219 137.972656 197.03125 140.890625 C 196.542969 141.445312 196.335938 142 196.476562 142.765625 C 197.167969 142.417969 197.863281 142.140625 198.351562 141.582031 C 200.644531 139.292969 202.933594 136.929688 205.296875 134.636719 C 205.921875 133.941406 206.824219 133.316406 206.6875 132.34375 C 206.6875 124.496094 206.617188 116.714844 206.617188 108.867188 C 208.5625 108.242188 210.507812 106.710938 210.230469 104.421875 C 210.230469 100.390625 204.394531 97.683594 201.894531 101.085938 Z M 287.75 110.949219 C 287.125 111.574219 286.085938 111.367188 285.320312 111.4375 C 277.609375 111.503906 269.898438 111.503906 262.1875 111.644531 C 261.425781 111.574219 260.9375 112.199219 260.453125 112.617188 C 258.019531 115.046875 255.519531 117.339844 252.949219 119.632812 C 252.253906 120.117188 252.117188 120.953125 252.117188 121.71875 C 251.839844 127.96875 252.601562 134.359375 251.839844 140.542969 C 248.363281 143.804688 244.824219 147.070312 241.695312 150.683594 C 242.042969 150.824219 242.597656 151.167969 242.945312 151.378906 C 246.488281 147.765625 250.378906 144.5 253.644531 140.679688 C 253.921875 134.21875 253.367188 127.691406 253.785156 121.300781 C 256.5625 118.519531 259.339844 115.882812 262.257812 113.242188 C 270.871094 112.546875 279.625 113.3125 288.308594 112.617188 C 290.738281 110.394531 292.960938 108.03125 295.394531 105.808594 C 296.019531 105.324219 296.574219 104.558594 297.40625 104.699219 C 299.492188 104.765625 301.644531 104.351562 303.660156 104.976562 C 306.785156 108.171875 309.980469 111.15625 313.453125 113.9375 C 314.289062 115.117188 314.914062 116.4375 315.953125 117.480469 C 298.589844 117.480469 281.222656 117.480469 263.925781 117.550781 C 261.773438 119.214844 259.894531 121.230469 257.8125 122.96875 C 257.882812 128.800781 257.742188 134.566406 257.882812 140.402344 C 257.8125 141.167969 258.160156 142.140625 257.464844 142.695312 C 252.949219 146.792969 248.78125 151.167969 244.476562 155.546875 C 242.667969 154.15625 240.238281 152.699219 237.945312 153.949219 C 234.402344 155.40625 235.027344 161.730469 238.917969 162.214844 C 241.695312 162.355469 244.476562 161.9375 247.253906 162.074219 C 251.839844 157.003906 257.1875 152.699219 261.910156 147.695312 C 262.882812 146.375 265.105469 145.683594 264.96875 143.804688 C 265.105469 137.484375 264.96875 131.09375 265.035156 124.773438 C 285.527344 124.703125 306.019531 124.425781 326.511719 124.425781 C 327.417969 124.496094 328.386719 124.21875 329.222656 124.703125 C 329.917969 125.605469 330.402344 126.648438 331.375 127.273438 C 333.945312 129.011719 338.253906 127.273438 338.390625 124.007812 C 338.808594 121.300781 336.238281 118.660156 333.527344 118.9375 C 331.238281 118.867188 329.570312 120.8125 329.222656 122.898438 C 309.007812 123.105469 288.722656 123.105469 268.441406 123.175781 C 266.773438 123.316406 264.621094 122.6875 263.578125 124.355469 C 263.230469 130.957031 263.785156 137.695312 263.300781 144.292969 C 257.8125 149.640625 252.253906 154.992188 246.699219 160.339844 C 245.585938 160.894531 244.265625 160.476562 243.15625 160.410156 C 243.917969 158.878906 244.753906 157.351562 246.003906 156.171875 C 249.894531 152.351562 253.644531 148.320312 257.671875 144.640625 C 258.230469 144.015625 259.132812 143.527344 259.410156 142.625 C 259.550781 136.375 259.132812 130.050781 259.550781 123.800781 C 261.078125 122.0625 262.8125 120.464844 264.621094 119.078125 C 280.597656 118.9375 296.574219 119.078125 312.621094 118.9375 C 314.078125 119.007812 315.398438 118.519531 316.71875 118.035156 C 318.246094 117.964844 319.984375 118.175781 321.304688 117.0625 C 323.941406 115.046875 323.179688 110.1875 319.984375 109.074219 C 317.414062 108.03125 314.84375 109.839844 313.523438 111.992188 C 310.257812 109.28125 307.339844 106.226562 304.285156 103.308594 C 301.503906 102.960938 298.65625 103.101562 295.878906 103.238281 C 293.03125 105.671875 290.53125 108.449219 287.75 110.949219 Z M 289.347656 135.402344 C 287.75 135.472656 285.945312 135.816406 284.554688 134.777344 C 283.167969 133.804688 281.292969 133.527344 279.761719 134.289062 C 277.054688 135.402344 276.359375 139.359375 278.375 141.445312 C 280.527344 143.527344 284.488281 143.042969 286.015625 140.542969 C 286.363281 139.359375 286.152344 138.179688 286.222656 137 C 287.820312 136.929688 289.417969 137.070312 290.945312 136.859375 C 292.40625 135.75 293.449219 134.21875 294.835938 133.179688 C 301.226562 132.96875 307.617188 133.109375 314.007812 133.179688 C 316.71875 135.75 319.636719 138.179688 321.929688 141.167969 C 324.707031 141.304688 327.484375 141.304688 330.265625 141.238281 C 330.890625 144.433594 334.640625 146.238281 337.488281 144.5 C 340.890625 142.835938 340.058594 137 336.308594 136.304688 C 333.738281 135.539062 331.167969 137.277344 330.265625 139.640625 C 327.761719 139.570312 325.191406 139.847656 322.761719 139.429688 C 320.054688 136.859375 317.484375 134.152344 314.773438 131.648438 C 308.242188 131.234375 301.644531 131.511719 295.113281 131.511719 C 292.476562 131.441406 291.988281 135.332031 289.347656 135.402344 Z M 287.542969 157.699219 C 286.988281 158.324219 286.085938 158.117188 285.320312 158.117188 C 278.097656 158.046875 270.941406 158.046875 263.71875 158.046875 C 263.71875 160.546875 263.71875 162.980469 263.71875 165.480469 C 271.496094 165.550781 279.347656 165.550781 287.125 165.480469 C 287.125 165.132812 287.125 164.367188 287.125 163.953125 C 279.832031 163.882812 272.539062 164.089844 265.246094 163.742188 C 265.316406 162.355469 265.316406 160.964844 265.316406 159.574219 C 272.746094 159.574219 280.179688 159.574219 287.613281 159.644531 C 290.53125 157.351562 293.03125 154.574219 295.808594 152.140625 C 298.449219 154.433594 301.160156 156.726562 303.730469 159.089844 C 304.214844 160.269531 303.382812 161.660156 303.867188 162.839844 C 304.769531 165.132812 307.617188 166.453125 309.910156 165.550781 C 311.023438 165.203125 311.855469 164.230469 312.691406 163.464844 C 314.773438 164.4375 316.371094 166.035156 317.898438 167.703125 C 326.511719 167.5625 335.195312 167.492188 343.808594 167.632812 C 344.296875 168.675781 344.644531 169.925781 345.617188 170.691406 C 348.324219 173.050781 353.605469 170.828125 353.257812 167.078125 C 353.328125 164.160156 350.269531 162.007812 347.492188 162.769531 C 345.753906 163.117188 344.78125 164.714844 343.949219 166.105469 C 335.613281 166.175781 327.347656 166.175781 319.011719 166.105469 C 316.996094 165.0625 315.675781 162.839844 313.382812 162.074219 C 312.96875 160.128906 312.273438 157.90625 310.121094 157.28125 C 308.3125 156.378906 306.367188 157.003906 304.839844 158.1875 C 301.785156 155.617188 299.003906 152.628906 295.671875 150.476562 C 292.683594 152.628906 290.320312 155.40625 287.542969 157.699219 Z M 239.195312 169.785156 C 237.597656 171.941406 238.015625 175.761719 240.722656 176.800781 C 241.28125 177.148438 242.253906 177.359375 242.113281 178.191406 C 242.253906 182.011719 242.113281 185.902344 242.183594 189.722656 C 244.960938 189.582031 247.738281 189.515625 250.519531 189.582031 C 250.519531 189.238281 250.519531 188.542969 250.519531 188.125 C 248.226562 188.125 245.933594 188.125 243.640625 188.195312 C 243.640625 184.582031 243.570312 180.902344 243.710938 177.289062 C 245.03125 176.734375 246.699219 176.316406 247.324219 174.855469 C 248.15625 173.050781 248.019531 170.621094 246.421875 169.230469 C 244.40625 167.492188 241 167.839844 239.195312 169.785156 Z M 265.175781 177.148438 C 261.703125 178.46875 261.632812 184.234375 265.035156 185.695312 C 268.371094 186.457031 271.84375 185.136719 275.246094 185.761719 C 279.761719 190.210938 284.210938 194.792969 288.792969 199.238281 C 297.335938 199.238281 305.8125 199.171875 314.355469 199.171875 C 317.273438 195.835938 320.539062 192.777344 323.734375 189.722656 C 330.195312 189.238281 336.722656 189.792969 343.113281 189.167969 C 343.046875 188.890625 342.976562 188.332031 342.90625 188.054688 C 336.167969 187.570312 329.429688 188.125 322.691406 188.054688 C 319.84375 191.460938 316.648438 194.445312 313.382812 197.433594 C 306.578125 197.78125 299.699219 197.433594 292.890625 197.640625 C 291.503906 197.574219 289.765625 198.058594 288.722656 196.808594 C 284.902344 193.058594 281.011719 189.375 277.402344 185.414062 C 276.082031 183.402344 273.371094 184.234375 271.359375 184.027344 C 269.136719 183.886719 266.148438 185.414062 264.621094 182.984375 C 262.882812 180.621094 265.871094 177.425781 268.371094 178.46875 C 269.761719 178.816406 269.761719 180.34375 269.898438 181.457031 C 272.679688 181.59375 275.457031 181.59375 278.304688 181.386719 C 282.332031 185.554688 286.710938 189.375 290.738281 193.542969 C 297.546875 193.40625 304.421875 193.613281 311.230469 193.40625 C 314.632812 190.625 317.414062 187.082031 320.816406 184.234375 C 328.875 184.164062 337.003906 184.097656 345.058594 184.097656 C 345.753906 187.570312 350.617188 188.820312 353.117188 186.386719 C 355.550781 184.304688 354.507812 179.859375 351.519531 178.957031 C 348.742188 177.84375 345.546875 179.648438 344.921875 182.566406 C 336.515625 182.566406 328.179688 182.636719 319.773438 182.636719 C 316.925781 185.832031 313.800781 188.820312 310.746094 191.738281 C 304.421875 192.152344 298.101562 191.808594 291.78125 191.945312 C 287.125 188.542969 283.445312 183.886719 279.136719 179.996094 C 276.777344 179.71875 274.34375 179.929688 271.914062 179.789062 C 270.871094 177.359375 267.816406 175.96875 265.175781 177.148438 Z M 302.269531 217.230469 C 302.132812 218.96875 302.132812 220.773438 302.0625 222.578125 C 304.007812 222.71875 306.089844 222.164062 307.964844 222.789062 C 311.507812 225.429688 314.289062 229.039062 317.761719 231.75 C 326.722656 231.957031 335.75 231.679688 344.710938 231.886719 C 345.546875 232.929688 345.894531 234.597656 347.351562 235.082031 C 350.199219 236.613281 354.507812 234.457031 354.230469 230.984375 C 354.367188 227.859375 350.964844 225.636719 348.046875 226.609375 C 346.242188 226.957031 345.617188 228.902344 344.921875 230.359375 C 336.097656 230.222656 327.207031 230.289062 318.386719 230.289062 C 315.050781 227.71875 312.410156 224.246094 309.078125 221.539062 C 307.617188 220.078125 305.464844 221.261719 303.730469 221.191406 C 303.660156 219.871094 303.660156 218.480469 303.589844 217.160156 C 303.3125 217.160156 302.617188 217.230469 302.269531 217.230469 Z M 278.722656 224.664062 L 278.375 225.148438 C 283.027344 230.152344 288.097656 234.734375 293.03125 239.460938 C 294.558594 240.847656 295.949219 242.378906 297.683594 243.558594 C 306.714844 243.488281 315.746094 243.488281 324.777344 243.28125 C 328.109375 242.792969 329.640625 246.613281 332.417969 247.796875 C 335.058594 247.726562 337.765625 247.585938 340.40625 247.65625 C 340.890625 249.046875 341.378906 250.644531 342.835938 251.339844 C 345.753906 253.144531 350.0625 250.644531 349.921875 247.238281 C 349.992188 244.460938 347.144531 242.445312 344.503906 242.933594 C 342.488281 242.933594 341.238281 244.601562 340.476562 246.199219 C 337.90625 246.128906 335.40625 246.265625 332.835938 246.265625 C 330.820312 245.15625 329.359375 243.210938 327.554688 241.683594 C 318.664062 242.03125 309.773438 241.890625 300.878906 242.167969 C 299.699219 242.167969 298.242188 242.515625 297.40625 241.472656 C 291.363281 236.054688 285.597656 230.359375 279.761719 224.734375 C 279.554688 224.664062 279 224.664062 278.722656 224.664062 Z M 209.257812 243.835938 C 209.324219 247.238281 209.324219 250.644531 209.324219 254.046875 C 215.714844 259.8125 221.898438 265.855469 228.359375 271.621094 C 229.054688 272.109375 229.679688 273.082031 230.652344 272.871094 C 234.542969 272.523438 238.5 272.734375 242.460938 272.664062 C 242.460938 278.984375 242.597656 285.238281 242.53125 291.558594 C 236.488281 291.558594 230.441406 291.695312 224.398438 291.628906 C 224.261719 295.796875 224.609375 299.894531 224.332031 304.0625 C 222.800781 306.144531 220.164062 307.257812 218.84375 309.410156 C 218.773438 317.539062 218.910156 325.664062 218.84375 333.792969 C 218.910156 335.53125 218.703125 337.195312 219.050781 338.933594 C 220.578125 340.601562 222.59375 341.78125 224.398438 343.171875 C 224.398438 345.324219 224.398438 347.546875 224.191406 349.699219 C 221.761719 350.046875 219.539062 352.132812 219.816406 354.703125 C 220.023438 358.589844 225.582031 360.191406 228.011719 357.339844 C 230.164062 354.980469 229.054688 350.601562 225.789062 349.839844 C 225.71875 347.269531 225.789062 344.769531 225.71875 342.199219 C 223.914062 340.878906 221.96875 339.699219 220.441406 338.101562 C 220.023438 336.292969 220.300781 334.417969 220.230469 332.542969 C 220.300781 325.039062 220.164062 317.539062 220.300781 310.035156 C 221.621094 307.8125 224.539062 306.839844 225.789062 304.480469 C 226.066406 300.726562 225.789062 296.90625 225.859375 293.085938 C 231.902344 293.292969 238.015625 292.878906 244.058594 292.878906 C 243.988281 285.652344 243.570312 278.429688 243.851562 271.207031 C 239.613281 271.207031 235.375 270.996094 231.136719 271.136719 C 229.957031 271.34375 229.261719 270.234375 228.429688 269.605469 C 222.386719 264.398438 216.828125 258.5625 210.714844 253.421875 C 210.644531 250.714844 210.644531 248.003906 210.644531 245.226562 C 224.050781 245.292969 237.460938 245.292969 250.867188 245.15625 C 251.699219 245.015625 252.324219 245.710938 252.878906 246.265625 C 258.855469 252.101562 264.898438 257.867188 270.871094 263.703125 C 273.648438 266.34375 276.566406 268.84375 279.070312 271.761719 C 279.277344 274.332031 279 276.902344 279.136719 279.472656 C 277.679688 280.445312 276.011719 281.695312 276.152344 283.707031 C 275.734375 287.183594 280.109375 289.683594 282.957031 288.015625 C 285.113281 287.042969 285.738281 284.195312 285.042969 282.109375 C 284.210938 280.375 282.265625 279.820312 280.597656 279.472656 C 280.597656 276.625 280.597656 273.84375 280.527344 270.996094 C 277.816406 268.425781 275.179688 265.785156 272.539062 263.148438 C 265.660156 256.824219 259.203125 250.085938 252.394531 243.765625 C 238.152344 243.765625 223.707031 243.90625 209.257812 243.835938 Z M 315.953125 248.488281 C 315.953125 248.90625 315.953125 249.671875 315.953125 250.019531 C 318.386719 250.367188 320.957031 249.878906 323.386719 250.367188 C 326.027344 252.9375 328.597656 255.507812 331.167969 258.214844 C 330.265625 259.328125 329.292969 260.644531 329.707031 262.175781 C 329.847656 264.46875 332 266.066406 334.152344 266.066406 C 336.792969 266.410156 339.363281 263.84375 338.667969 261.132812 C 338.390625 258.214844 335.125 256.410156 332.488281 257.589844 C 329.777344 254.464844 326.929688 251.546875 323.941406 248.699219 C 321.234375 248.421875 318.59375 248.628906 315.953125 248.488281 Z M 226.832031 250.296875 C 223.773438 251.128906 222.246094 255.226562 224.332031 257.660156 C 226.691406 260.644531 232.25 259.1875 232.597656 255.296875 C 233.359375 252.101562 229.886719 249.117188 226.832031 250.296875 Z M 237.875 258.5625 C 234.542969 259.394531 233.359375 264.535156 236.417969 266.480469 C 239.195312 268.773438 244.40625 266.757812 244.265625 262.9375 C 244.542969 259.675781 240.792969 257.449219 237.875 258.5625 Z M 253.019531 261.410156 C 250.242188 262.523438 249.617188 266.550781 251.628906 268.636719 C 252.324219 269.328125 253.574219 269.539062 254.0625 270.441406 C 254.199219 273.636719 253.992188 276.761719 254.0625 279.957031 C 252.601562 279.886719 251.003906 279.75 249.683594 280.582031 C 246.628906 282.179688 247.046875 287.390625 250.308594 288.5 C 253.226562 289.960938 257.1875 287.667969 257.046875 284.265625 C 257.257812 282.667969 255.9375 281.554688 255.589844 280.167969 C 255.589844 276.691406 255.660156 273.289062 255.726562 269.816406 C 256.910156 269.328125 258.019531 268.636719 259.132812 267.871094 C 261.703125 270.371094 264.34375 272.871094 267.050781 275.234375 C 267.46875 282.390625 267.257812 289.613281 267.257812 296.769531 C 254.617188 296.628906 242.042969 296.976562 229.402344 296.835938 C 229.402344 300.101562 229.472656 303.367188 229.332031 306.5625 C 228.082031 309.339844 223.566406 310.246094 224.050781 313.71875 C 224.191406 320.734375 223.84375 327.820312 224.191406 334.835938 C 229.679688 339.558594 234.890625 344.628906 239.960938 349.769531 C 237.320312 351.644531 237.460938 356.089844 240.445312 357.480469 C 243.15625 359.078125 247.183594 357.132812 247.183594 353.867188 C 247.394531 351.574219 245.65625 349.769531 243.640625 349.074219 C 243.570312 346.644531 243.433594 344.144531 243.503906 341.710938 C 239.542969 338.308594 235.863281 334.625 231.972656 331.152344 C 231.972656 327.957031 231.902344 324.761719 232.039062 321.496094 C 233.777344 319.691406 236.140625 318.578125 237.597656 316.566406 C 237.738281 312.328125 237.597656 308.089844 237.597656 303.851562 C 252.949219 303.574219 268.230469 303.714844 283.582031 303.644531 C 287.613281 307.257812 291.570312 311.007812 295.394531 314.757812 C 296.019531 315.316406 296.644531 316.078125 297.617188 316.011719 C 301.226562 316.21875 304.769531 316.148438 308.382812 316.289062 C 308.660156 317.398438 308.800781 318.71875 309.773438 319.621094 C 311.925781 321.914062 316.648438 321.21875 317.550781 318.023438 C 318.664062 315.039062 315.953125 311.84375 312.96875 311.773438 C 311.507812 309.273438 309.285156 307.394531 307.269531 305.3125 C 304.144531 302.394531 301.160156 299.339844 298.101562 296.351562 C 296.226562 296.144531 294.28125 296.699219 292.40625 296.492188 C 284.554688 296.28125 276.707031 296.699219 268.855469 296.421875 C 268.925781 290.03125 268.855469 283.570312 268.855469 277.179688 C 268.789062 276.136719 269.066406 274.886719 268.164062 274.191406 C 265.523438 271.550781 262.675781 269.191406 260.105469 266.480469 C 259.6875 265.441406 259.6875 264.328125 259.269531 263.285156 C 257.953125 261.410156 255.171875 260.300781 253.019531 261.410156 Z M 198.558594 280.859375 C 198.28125 283.152344 200.15625 284.75 201.960938 285.652344 C 201.960938 303.507812 201.960938 321.429688 201.824219 339.28125 C 202.171875 339.28125 202.933594 339.210938 203.28125 339.210938 C 203.28125 321.359375 203.351562 303.507812 203.492188 285.652344 C 204.464844 285.304688 205.574219 285.167969 206.339844 284.402344 C 208.632812 282.320312 208.144531 277.941406 205.15625 276.761719 C 202.308594 275.371094 198.351562 277.527344 198.558594 280.859375 Z M 232.734375 276.625 C 229.75 277.527344 228.429688 281.695312 230.441406 284.054688 C 233.082031 286.695312 238.5 285.375 238.988281 281.417969 C 239.75 278.082031 235.722656 275.511719 232.734375 276.625 Z M 334.847656 276.484375 C 331.027344 277.386719 330.820312 283.222656 334.222656 284.820312 C 336.933594 286.558594 340.753906 284.679688 341.101562 281.484375 C 341.863281 278.082031 337.976562 275.027344 334.847656 276.484375 Z M 292.824219 286.070312 C 299.839844 292.808594 306.785156 299.6875 313.941406 306.285156 C 318.246094 306.910156 322.691406 306.632812 327 306.492188 C 327.070312 306.144531 327.207031 305.382812 327.277344 305.035156 C 323.386719 305.035156 319.496094 305.171875 315.605469 305.035156 C 314.84375 305.105469 314.289062 304.617188 313.730469 304.132812 C 306.992188 297.808594 300.464844 291.417969 293.933594 284.960938 C 293.515625 285.304688 293.171875 285.652344 292.824219 286.070312 Z M 241 308.300781 C 241.140625 313.578125 240.722656 318.996094 241.28125 324.207031 C 245.863281 328.722656 250.933594 332.75 255.3125 337.472656 C 255.726562 339.417969 255.449219 341.433594 255.519531 343.378906 C 254.128906 344.074219 252.601562 344.90625 252.324219 346.574219 C 251.074219 349.976562 255.101562 353.730469 258.4375 352.132812 C 261.148438 351.367188 262.1875 347.824219 260.730469 345.601562 C 259.894531 344.351562 258.4375 343.726562 257.046875 343.378906 C 256.839844 340.667969 257.953125 337.195312 255.449219 335.25 C 251.214844 331.5 247.113281 327.609375 243.015625 323.71875 C 242.460938 319.066406 242.808594 314.34375 242.597656 309.6875 C 251.628906 309.617188 260.660156 309.6875 269.691406 309.410156 C 272.886719 312.605469 276.289062 315.59375 279.484375 318.789062 C 280.109375 319.273438 280.667969 320.039062 281.5 320.175781 C 284.277344 320.457031 287.125 320.109375 289.972656 320.246094 C 292.265625 322.121094 294.140625 324.484375 296.433594 326.359375 C 295.601562 328.234375 295.324219 330.597656 296.921875 332.125 C 299.28125 334.902344 304.632812 333.304688 304.910156 329.625 C 305.535156 325.804688 300.394531 322.886719 297.40625 325.386719 C 295.183594 323.304688 293.308594 320.871094 290.945312 318.925781 C 287.890625 318.164062 284.695312 318.925781 281.640625 318.371094 C 278.164062 315.523438 275.039062 312.1875 271.707031 309.203125 C 271.082031 308.714844 270.523438 307.953125 269.691406 307.953125 C 260.035156 308.019531 250.519531 307.953125 241 308.300781 Z M 246.28125 313.648438 C 246.210938 316.425781 246.140625 319.207031 246.488281 321.984375 C 250.65625 325.804688 254.757812 329.625 258.714844 333.652344 C 259.828125 334.488281 259.0625 336.085938 259.6875 337.265625 C 261.148438 339.976562 265.382812 340.042969 267.191406 337.753906 C 269.203125 335.53125 268.441406 331.152344 265.246094 330.390625 C 263.089844 329.554688 260.9375 330.875 259.6875 332.472656 C 255.867188 328.722656 252.046875 324.902344 248.019531 321.359375 C 247.601562 319.273438 247.808594 317.121094 247.738281 315.039062 C 252.046875 315.246094 256.285156 315.316406 260.589844 315.246094 C 265.453125 320.664062 271.082031 325.386719 276.082031 330.597656 C 276.636719 331.847656 275.941406 333.375 276.777344 334.558594 C 278.304688 337.128906 282.402344 337.542969 284.417969 335.25 C 286.5 333.097656 285.527344 329.140625 282.75 328.097656 C 280.734375 327.054688 278.445312 328.027344 277.125 329.625 C 272.398438 324.691406 267.328125 320.109375 262.675781 315.175781 C 261.980469 314.550781 261.355469 313.578125 260.3125 313.71875 C 255.589844 313.648438 250.933594 313.785156 246.28125 313.648438 Z M 246.28125 313.648438 " fill-opacity="1" fill-rule="nonzero"/><path fill="#ffffff" d="M 230.375 15.851562 C 232.734375 14.949219 235.375 17.726562 234.195312 20.019531 C 232.945312 22.105469 229.679688 21.964844 228.359375 19.949219 C 227.664062 18.421875 228.777344 16.339844 230.375 15.851562 Z M 230.375 15.851562 " fill-opacity="1" fill-rule="nonzero"/><path fill="#ffffff" d="M 138.75 24.535156 C 139.929688 21.410156 142.015625 18.144531 145.488281 17.3125 C 144.933594 19.671875 143.335938 21.546875 142.777344 23.910156 C 140.695312 30.230469 141.945312 36.898438 141.667969 43.429688 C 141.390625 47.597656 140 51.695312 137.429688 54.960938 C 142.847656 53.710938 148.890625 54.058594 153.613281 57.183594 C 155.628906 58.574219 157.851562 60.242188 158.546875 62.742188 C 155.699219 61.558594 153.128906 59.753906 150.074219 59.128906 C 142.917969 57.324219 135.277344 59.824219 129.441406 64.0625 C 120.132812 70.867188 113.257812 81.011719 110.40625 92.195312 C 109.019531 97.335938 109.574219 102.824219 111.101562 107.894531 C 117.425781 107.617188 123.953125 108.308594 129.648438 111.296875 C 134.582031 113.796875 138.402344 118.589844 139.304688 124.078125 C 139.652344 127.203125 139.652344 130.609375 137.777344 133.316406 C 135.277344 137.136719 131.179688 140.402344 126.453125 140.402344 C 128.191406 137.972656 130.832031 136.304688 132.289062 133.59375 C 135.414062 128.871094 134.234375 122.0625 129.996094 118.382812 C 125.621094 114.5625 119.578125 113.519531 113.949219 113.449219 C 103.808594 113.660156 94.152344 117.480469 85.121094 121.925781 C 82.34375 123.246094 79.773438 124.84375 76.996094 126.023438 C 78.246094 122.273438 81.789062 120.117188 84.496094 117.480469 C 76.785156 116.785156 68.382812 118.453125 61.226562 114.5625 C 62.269531 113.171875 64.214844 113.9375 65.671875 113.660156 C 73.800781 112.824219 82.136719 111.714844 90.261719 113.242188 C 91.445312 113.382812 92.484375 112.617188 93.527344 112.339844 C 97.417969 110.742188 101.445312 109.699219 105.476562 108.519531 C 103.390625 102.058594 103.460938 95.042969 105.335938 88.511719 C 99.503906 86.289062 92.832031 85.527344 86.859375 87.679688 C 84.914062 88.304688 83.246094 89.625 81.371094 90.386719 C 82.414062 86.359375 86.441406 84.066406 90.125 82.816406 C 95.679688 81.011719 101.585938 82.121094 107.003906 83.929688 C 110.6875 76.078125 115.339844 68.578125 121.9375 62.878906 C 125.132812 59.824219 129.300781 57.878906 131.734375 54.128906 C 134.164062 50.933594 136.320312 47.320312 136.527344 43.222656 C 137.011719 37.109375 136.457031 30.578125 138.75 24.535156 Z M 138.75 24.535156 " fill-opacity="1" fill-rule="nonzero"/><path fill="#ffffff" d="M 215.855469 21.546875 C 217.941406 20.507812 220.789062 22.453125 220.371094 24.742188 C 219.816406 27.035156 216.410156 27.871094 214.8125 26.0625 C 213.425781 24.742188 214.257812 22.382812 215.855469 21.546875 Z M 215.855469 21.546875 " fill-opacity="1" fill-rule="nonzero"/><path fill="#ffffff" d="M 241.347656 22.519531 C 243.433594 21.339844 246.558594 23.492188 245.796875 25.855469 C 245.308594 28.078125 242.113281 28.703125 240.585938 27.175781 C 239.058594 25.855469 239.683594 23.355469 241.347656 22.519531 Z M 241.347656 22.519531 " fill-opacity="1" fill-rule="nonzero"/><path fill="#ffffff" d="M 201.269531 26.203125 C 203.769531 25.4375 205.992188 28.632812 204.671875 30.789062 C 203.492188 32.386719 200.78125 32.664062 199.53125 30.925781 C 198.140625 29.328125 199.390625 26.6875 201.269531 26.203125 Z M 201.269531 26.203125 " fill-opacity="1" fill-rule="nonzero"/><path fill="#ffffff" d="M 264.6875 35.511719 C 266.566406 34.398438 269.066406 36.066406 268.996094 38.152344 C 269.203125 40.859375 265.316406 41.972656 263.648438 40.027344 C 262.1875 38.707031 263.023438 36.273438 264.6875 35.511719 Z M 264.6875 35.511719 " fill-opacity="1" fill-rule="nonzero"/><path fill="#ffffff" d="M 96.792969 60.726562 C 94.222656 54.128906 94.222656 46 98.390625 40.09375 C 99.78125 40.929688 99.222656 42.664062 99.292969 44.054688 C 98.875 51.558594 100.195312 59.269531 103.808594 65.867188 C 104.851562 67.8125 106.378906 69.480469 107.28125 71.5625 C 102.140625 70.175781 98.738281 65.378906 96.792969 60.726562 Z M 96.792969 60.726562 " fill-opacity="1" fill-rule="nonzero"/><path fill="#ffffff" d="M 243.710938 41.277344 C 245.863281 40.027344 248.710938 42.179688 248.296875 44.542969 C 247.601562 46.765625 244.335938 47.667969 242.808594 45.792969 C 241.417969 44.472656 241.972656 41.972656 243.710938 41.277344 Z M 243.710938 41.277344 " fill-opacity="1" fill-rule="nonzero"/><path fill="#ffffff" d="M 279.136719 41.136719 C 281.082031 39.886719 284.347656 41.414062 283.929688 43.917969 C 283.863281 46.207031 280.945312 47.25 279.207031 46.140625 C 277.054688 45.304688 277.261719 42.109375 279.136719 41.136719 Z M 279.136719 41.136719 " fill-opacity="1" fill-rule="nonzero"/><path fill="#ffffff" d="M 226.34375 46.554688 C 228.21875 45.304688 230.652344 47.113281 230.511719 49.265625 C 230.441406 52.042969 225.929688 53.085938 224.675781 50.585938 C 223.914062 49.054688 224.816406 47.179688 226.34375 46.554688 Z M 226.34375 46.554688 " fill-opacity="1" fill-rule="nonzero"/><path fill="#ffffff" d="M 288.933594 63.226562 C 291.015625 62.183594 293.726562 64.199219 293.238281 66.492188 C 292.683594 68.921875 289.140625 69.617188 287.613281 67.742188 C 286.640625 66.285156 287.265625 63.992188 288.933594 63.226562 Z M 288.933594 63.226562 " fill-opacity="1" fill-rule="nonzero"/><path fill="#ffffff" d="M 279.136719 74.410156 C 280.945312 73.996094 283.238281 75.59375 282.890625 77.539062 C 282.679688 79.828125 279.414062 80.941406 277.816406 79.203125 C 276.011719 77.953125 277.191406 74.898438 279.136719 74.410156 Z M 279.136719 74.410156 " fill-opacity="1" fill-rule="nonzero"/><path fill="#ffffff" d="M 308.660156 78.230469 C 310.328125 77.328125 312.550781 78.371094 313.035156 80.175781 C 313.59375 82.675781 310.1875 85.039062 308.175781 83.234375 C 306.296875 82.050781 306.855469 79.136719 308.660156 78.230469 Z M 308.660156 78.230469 " fill-opacity="1" fill-rule="nonzero"/><path fill="#ffffff" d="M 124.648438 82.332031 C 132.636719 82.816406 140 86.984375 145.835938 92.265625 C 150.488281 96.710938 154.242188 102.128906 156.8125 107.960938 C 157.78125 110.253906 158.6875 112.617188 158.894531 115.117188 C 157.089844 114.421875 156.464844 112.476562 155.421875 111.089844 C 150.765625 103.792969 145.28125 96.917969 138.472656 91.5 C 134.859375 88.582031 130.898438 86.152344 126.800781 83.996094 C 125.96875 83.582031 125.203125 83.023438 124.648438 82.332031 Z M 124.648438 82.332031 " fill-opacity="1" fill-rule="nonzero"/><path fill="#ffffff" d="M 315.746094 91.917969 C 318.109375 90.804688 320.609375 93.792969 319.21875 95.945312 C 318.109375 98.308594 314.21875 97.472656 313.871094 94.972656 C 313.523438 93.582031 314.496094 92.332031 315.746094 91.917969 Z M 315.746094 91.917969 " fill-opacity="1" fill-rule="nonzero"/><path fill="#ffffff" d="M 203.699219 101.640625 C 205.921875 100.042969 209.257812 102.753906 208.421875 105.253906 C 207.726562 107.128906 205.089844 107.617188 203.558594 106.503906 C 201.960938 105.460938 201.960938 102.613281 203.699219 101.640625 Z M 203.699219 101.640625 " fill-opacity="1" fill-rule="nonzero"/><path fill="#ffffff" d="M 316.859375 110.8125 C 318.734375 109.628906 321.441406 111.4375 321.234375 113.589844 C 321.304688 116.160156 317.550781 117.480469 316.023438 115.464844 C 314.566406 114.144531 315.191406 111.644531 316.859375 110.8125 Z M 316.859375 110.8125 " fill-opacity="1" fill-rule="nonzero"/><path fill="#ffffff" d="M 332.554688 120.8125 C 334.570312 119.773438 337.070312 121.855469 336.792969 124.007812 C 336.585938 126.09375 333.808594 127.414062 332.140625 126.09375 C 330.472656 124.773438 330.402344 121.71875 332.554688 120.8125 Z M 332.554688 120.8125 " fill-opacity="1" fill-rule="nonzero"/><path fill="#ffffff" d="M 280.320312 135.957031 C 282.332031 134.636719 285.390625 136.722656 284.765625 139.082031 C 284.210938 141.582031 280.667969 141.582031 279.207031 139.984375 C 278.164062 138.667969 278.929688 136.722656 280.320312 135.957031 Z M 280.320312 135.957031 " fill-opacity="1" fill-rule="nonzero"/><path fill="#ffffff" d="M 89.777344 141.167969 C 91.722656 139.292969 93.804688 137 96.652344 136.582031 C 95.542969 138.804688 93.875 140.609375 92.554688 142.695312 C 87.207031 150.335938 83.523438 159.367188 83.039062 168.746094 C 82.832031 174.230469 83.941406 180.277344 88.109375 184.164062 C 91.792969 187.777344 97.488281 187.917969 102.210938 186.667969 C 105.824219 185.832031 108.949219 183.75 112.5625 182.847656 C 111.726562 184.652344 110.0625 185.902344 108.601562 187.152344 C 106.101562 189.304688 103.183594 190.902344 100.058594 192.015625 C 98.460938 198.265625 97.90625 205.003906 100.128906 211.1875 C 103.324219 220.980469 111.171875 228.902344 120.550781 233 C 132.984375 238.488281 146.667969 239.597656 159.867188 241.890625 C 160.5625 241.960938 161.324219 242.167969 161.605469 242.933594 C 148.40625 244.949219 134.859375 243.488281 122.078125 239.597656 C 113.8125 237.097656 106.378906 232.027344 100.960938 225.289062 C 95.75 218.691406 92.484375 210.285156 92.765625 201.808594 C 92.765625 198.613281 93.457031 195.488281 94.015625 192.363281 C 89.289062 191.808594 84.84375 189.304688 82.136719 185.347656 C 77.96875 179.511719 77.34375 171.871094 78.316406 164.992188 C 79.84375 156.308594 83.734375 147.835938 89.777344 141.167969 Z M 89.777344 141.167969 " fill-opacity="1" fill-rule="nonzero"/><path fill="#ffffff" d="M 110.6875 140.820312 C 110.269531 139.359375 109.574219 137.761719 110.339844 136.304688 C 112.492188 139.222656 114.367188 142.417969 116.867188 145.058594 C 121.382812 150.199219 127.148438 154.019531 133.054688 157.351562 C 134.722656 158.046875 136.527344 158.117188 138.261719 158.601562 C 144.375 160.199219 150.28125 163.8125 153.546875 169.371094 C 156.601562 174.648438 157.574219 181.039062 156.394531 187.015625 C 154.867188 186.734375 155.074219 185.070312 154.726562 183.886719 C 153.476562 177.636719 150.835938 171.316406 145.488281 167.492188 C 138.054688 161.9375 128.050781 161.796875 119.300781 163.605469 C 113.601562 164.644531 108.464844 167.425781 103.253906 169.648438 C 104.085938 167.355469 106.03125 165.828125 107.90625 164.367188 C 112.910156 160.546875 119.160156 158.8125 125.273438 157.769531 C 118.675781 154.085938 113.1875 148.042969 110.6875 140.820312 Z M 110.6875 140.820312 " fill-opacity="1" fill-rule="nonzero"/><path fill="#ffffff" d="M 334.292969 137.761719 C 336.65625 137.136719 339.015625 140.125 337.558594 142.207031 C 336.585938 143.875 334.152344 144.015625 332.902344 142.695312 C 331.167969 141.238281 332.277344 138.179688 334.292969 137.761719 Z M 334.292969 137.761719 " fill-opacity="1" fill-rule="nonzero"/><path fill="#ffffff" d="M 318.59375 146.933594 C 320.886719 146.238281 323.457031 149.363281 321.789062 151.308594 C 320.46875 153.113281 317.34375 152.835938 316.511719 150.683594 C 315.746094 149.085938 317.066406 147.417969 318.59375 146.933594 Z M 318.59375 146.933594 " fill-opacity="1" fill-rule="nonzero"/><path fill="#ffffff" d="M 337.765625 150.960938 C 339.78125 149.78125 342.628906 151.933594 342.074219 154.226562 C 341.515625 156.242188 338.738281 157.28125 337.140625 155.894531 C 335.542969 154.574219 336.03125 151.796875 337.765625 150.960938 Z M 337.765625 150.960938 " fill-opacity="1" fill-rule="nonzero"/><path fill="#ffffff" d="M 239.125 155.199219 C 241.28125 154.226562 243.851562 156.65625 242.945312 158.8125 C 242.53125 161.242188 238.917969 161.382812 237.667969 159.503906 C 236.625 158.046875 237.390625 155.824219 239.125 155.199219 Z M 239.125 155.199219 " fill-opacity="1" fill-rule="nonzero"/><path fill="#ffffff" d="M 307.550781 158.53125 C 310.121094 157.628906 312.691406 161.449219 310.535156 163.328125 C 309.148438 165.0625 306.089844 164.4375 305.394531 162.355469 C 305.046875 160.824219 306.089844 159.089844 307.550781 158.53125 Z M 307.550781 158.53125 " fill-opacity="1" fill-rule="nonzero"/><path fill="#ffffff" d="M 33.09375 163.535156 C 36.84375 166.105469 39.972656 169.507812 43.582031 172.21875 C 50.042969 167.148438 59.28125 166.382812 66.714844 169.578125 C 67.964844 170.132812 69.425781 170.691406 69.980469 172.078125 C 63.796875 170.898438 57.335938 171.105469 51.5 173.605469 C 46.222656 175.761719 42.609375 180.832031 41.5 186.320312 C 40.386719 191.875 40.804688 197.710938 42.472656 203.128906 C 43.167969 205.492188 44.070312 207.851562 44.347656 210.355469 C 42.261719 209.382812 41.429688 207.019531 40.316406 205.144531 C 35.664062 196.113281 34.96875 184.722656 40.316406 175.828125 C 36.84375 172.566406 33.925781 168.398438 33.09375 163.535156 Z M 33.09375 163.535156 " fill-opacity="1" fill-rule="nonzero"/><path fill="#ffffff" d="M 347.699219 164.4375 C 349.644531 163.742188 351.867188 165.617188 351.589844 167.632812 C 351.171875 169.996094 347.628906 170.828125 346.242188 168.882812 C 344.78125 167.425781 345.894531 164.992188 347.699219 164.4375 Z M 347.699219 164.4375 " fill-opacity="1" fill-rule="nonzero"/><path fill="#ffffff" d="M 241.417969 170.273438 C 243.363281 168.882812 246.28125 170.550781 246.074219 172.914062 C 246.074219 175.621094 242.113281 176.800781 240.515625 174.648438 C 239.265625 173.257812 239.820312 171.035156 241.417969 170.273438 Z M 241.417969 170.273438 " fill-opacity="1" fill-rule="nonzero"/><path fill="#ffffff" d="M 310.953125 174.09375 C 313.382812 173.121094 315.953125 176.246094 314.703125 178.46875 C 313.59375 180.207031 310.8125 180.484375 309.632812 178.816406 C 308.242188 177.21875 309.285156 174.855469 310.953125 174.09375 Z M 310.953125 174.09375 " fill-opacity="1" fill-rule="nonzero"/><path fill="#ffffff" d="M 348.8125 180.691406 C 350.964844 179.996094 353.464844 182.21875 352.632812 184.375 C 351.9375 186.597656 348.671875 186.945312 347.28125 185.136719 C 345.753906 183.816406 347.003906 181.109375 348.8125 180.691406 Z M 348.8125 180.691406 " fill-opacity="1" fill-rule="nonzero"/><path fill="#ffffff" d="M 60.53125 188.957031 C 61.992188 189.445312 62.546875 190.972656 63.171875 192.222656 C 65.949219 197.917969 67.0625 204.308594 67.0625 210.5625 C 67.0625 214.035156 66.992188 217.578125 67.617188 221.050781 C 69.703125 232.859375 76.925781 243.976562 87.625 249.671875 C 95.542969 253.5625 103.949219 256.617188 111.519531 261.203125 C 112.144531 261.480469 112.5625 262.105469 112.910156 262.730469 C 110.0625 262.589844 107.351562 261.828125 104.640625 261.132812 C 98.738281 259.535156 92.902344 257.730469 87.347656 255.367188 C 82.96875 259.328125 79.011719 264.328125 78.453125 270.441406 C 77.757812 278.5 81.300781 286.277344 85.957031 292.667969 C 92.902344 302.117188 103.878906 309.0625 115.6875 309.964844 C 121.105469 310.3125 126.871094 309.621094 131.316406 306.355469 C 134.582031 304.132812 136.804688 300.796875 138.472656 297.394531 C 138.679688 297.324219 139.027344 297.117188 139.234375 296.976562 C 139.929688 300.03125 139.582031 303.367188 137.984375 306.144531 C 136.25 309.0625 133.539062 311.21875 130.621094 312.882812 C 132.082031 318.09375 135.347656 322.746094 139.929688 325.664062 C 146.042969 329.832031 153.40625 331.292969 160.5625 332.542969 C 158.753906 334.140625 156.183594 333.933594 153.960938 334.070312 C 142.015625 334.070312 129.582031 326.570312 126.246094 314.691406 C 115.757812 317.398438 104.503906 315.105469 95.335938 309.550781 C 92.902344 315.039062 87.066406 318.300781 81.234375 318.789062 C 81.511719 320.941406 81.925781 323.027344 82.96875 324.972656 C 83.941406 326.914062 85.539062 328.445312 86.71875 330.320312 C 80.746094 329.972656 76.785156 324 76.230469 318.371094 C 71.578125 317.191406 66.921875 314.621094 64.839844 310.175781 C 67.480469 310.9375 69.839844 312.535156 72.550781 313.300781 C 77.621094 314.898438 83.457031 314.828125 88.039062 311.910156 C 89.707031 310.871094 90.886719 309.203125 91.859375 307.535156 C 83.59375 300.9375 76.71875 292.324219 73.589844 282.109375 C 71.648438 276.207031 71.367188 269.609375 73.523438 263.703125 C 75.121094 259.257812 78.175781 255.507812 81.648438 252.449219 C 72.339844 246.824219 66.019531 236.75 64.003906 226.191406 C 62.199219 217.785156 63.726562 209.171875 62.546875 200.699219 C 62.269531 196.738281 60.878906 192.917969 60.53125 188.957031 Z M 60.53125 188.957031 " fill-opacity="1" fill-rule="nonzero"/><path fill="#ffffff" d="M 348.324219 202.296875 C 350.617188 201.324219 353.1875 203.894531 352.285156 206.253906 C 351.171875 208.617188 347.28125 208.269531 346.449219 205.839844 C 345.824219 204.378906 346.867188 202.78125 348.324219 202.296875 Z M 348.324219 202.296875 " fill-opacity="1" fill-rule="nonzero"/><path fill="#ffffff" d="M 342.976562 216.1875 C 345.199219 215.632812 347.351562 218.132812 346.519531 220.21875 C 345.753906 222.09375 342.835938 222.71875 341.449219 221.191406 C 339.988281 219.664062 340.753906 216.535156 342.976562 216.1875 Z M 342.976562 216.1875 " fill-opacity="1" fill-rule="nonzero"/><path fill="#ffffff" d="M 348.253906 228.277344 C 350.132812 227.234375 352.632812 228.902344 352.632812 230.984375 C 352.910156 233.554688 349.226562 235.015625 347.628906 233.136719 C 345.964844 231.820312 346.519531 229.179688 348.253906 228.277344 Z M 348.253906 228.277344 " fill-opacity="1" fill-rule="nonzero"/><path fill="#ffffff" d="M 128.886719 243.351562 C 130.761719 243.695312 131.664062 245.640625 132.84375 246.960938 C 140 256.410156 139.375 271.273438 130.621094 279.539062 C 124.789062 285.027344 116.730469 288.015625 108.742188 287.875 C 106.933594 287.808594 104.921875 288.015625 103.324219 286.902344 C 111.035156 284.613281 119.578125 283.292969 125.898438 277.804688 C 131.664062 273.082031 133.957031 265.160156 132.984375 257.9375 C 132.636719 252.796875 130.414062 248.144531 128.886719 243.351562 Z M 128.886719 243.351562 " fill-opacity="1" fill-rule="nonzero"/><path fill="#ffffff" d="M 344.085938 244.460938 C 345.753906 243.90625 347.699219 244.949219 348.253906 246.613281 C 348.8125 249.046875 345.683594 251.269531 343.601562 249.808594 C 341.65625 248.699219 341.796875 245.15625 344.085938 244.460938 Z M 344.085938 244.460938 " fill-opacity="1" fill-rule="nonzero"/><path fill="#ffffff" d="M 226.902344 252.101562 C 228.84375 250.992188 231.554688 253.003906 231 255.160156 C 230.652344 257.105469 228.21875 258.285156 226.484375 257.242188 C 224.398438 256.199219 224.816406 252.867188 226.902344 252.101562 Z M 226.902344 252.101562 " fill-opacity="1" fill-rule="nonzero"/><path fill="#ffffff" d="M 317.484375 258.5625 C 319.984375 257.382812 322.34375 260.855469 320.746094 262.9375 C 319.425781 264.953125 315.953125 263.980469 315.539062 261.617188 C 315.050781 260.160156 316.230469 258.980469 317.484375 258.5625 Z M 317.484375 258.5625 " fill-opacity="1" fill-rule="nonzero"/><path fill="#ffffff" d="M 333.183594 259.1875 C 335.125 258.285156 337.417969 260.160156 337.003906 262.242188 C 336.585938 264.746094 332.554688 265.371094 331.515625 263.078125 C 330.75 261.617188 331.585938 259.605469 333.183594 259.1875 Z M 333.183594 259.1875 " fill-opacity="1" fill-rule="nonzero"/><path fill="#ffffff" d="M 237.945312 260.367188 C 239.820312 259.394531 242.878906 260.578125 242.667969 262.9375 C 242.53125 265.648438 238.640625 266.757812 236.972656 264.746094 C 235.515625 263.425781 236.277344 260.925781 237.945312 260.367188 Z M 237.945312 260.367188 " fill-opacity="1" fill-rule="nonzero"/><path fill="#ffffff" d="M 253.574219 263.007812 C 255.519531 261.6875 258.507812 263.425781 258.089844 265.785156 C 257.671875 268.289062 254.0625 269.191406 252.53125 267.105469 C 251.351562 265.855469 252.046875 263.703125 253.574219 263.007812 Z M 253.574219 263.007812 " fill-opacity="1" fill-rule="nonzero"/><path fill="#ffffff" d="M 201.960938 278.289062 C 203.976562 277.386719 206.546875 279.261719 206.128906 281.417969 C 205.992188 283.777344 202.65625 284.75 201.128906 283.152344 C 199.390625 281.902344 199.878906 278.914062 201.960938 278.289062 Z M 201.960938 278.289062 " fill-opacity="1" fill-rule="nonzero"/><path fill="#ffffff" d="M 233.222656 278.152344 C 235.027344 277.597656 237.527344 278.847656 237.320312 280.929688 C 237.320312 283.5 233.847656 284.679688 232.039062 283.082031 C 230.375 281.695312 231.136719 278.636719 233.222656 278.152344 Z M 233.222656 278.152344 " fill-opacity="1" fill-rule="nonzero"/><path fill="#ffffff" d="M 334.917969 278.222656 C 337.140625 276.554688 340.476562 279.402344 339.15625 281.832031 C 338.320312 284.332031 334.5 284.054688 333.597656 281.765625 C 332.902344 280.511719 333.738281 278.914062 334.917969 278.222656 Z M 334.917969 278.222656 " fill-opacity="1" fill-rule="nonzero"/><path fill="#ffffff" d="M 251.214844 281.695312 C 253.019531 281.070312 255.519531 282.320312 255.382812 284.402344 C 255.449219 286.835938 252.253906 288.292969 250.378906 286.765625 C 248.503906 285.515625 248.992188 282.179688 251.214844 281.695312 Z M 251.214844 281.695312 " fill-opacity="1" fill-rule="nonzero"/><path fill="#ffffff" d="M 279.625 281.554688 C 281.5 280.582031 284.210938 282.109375 283.792969 284.332031 C 283.792969 286.347656 281.359375 287.597656 279.625 286.625 C 277.472656 285.863281 277.332031 282.25 279.625 281.554688 Z M 279.625 281.554688 " fill-opacity="1" fill-rule="nonzero"/><path fill="#ffffff" d="M 319.84375 292.808594 C 321.71875 291.488281 324.636719 293.15625 324.429688 295.449219 C 324.5 298.019531 320.886719 299.40625 319.148438 297.53125 C 317.691406 296.210938 318.316406 293.78125 319.84375 292.808594 Z M 319.84375 292.808594 " fill-opacity="1" fill-rule="nonzero"/><path fill="#ffffff" d="M 230.789062 298.503906 C 252.8125 298.503906 274.832031 298.019531 296.851562 298.089844 C 298.449219 298.574219 299.351562 300.378906 300.671875 301.492188 C 304.144531 305.171875 308.175781 308.230469 311.300781 312.257812 C 309.980469 312.816406 309.007812 313.855469 308.382812 315.105469 C 304.839844 314.828125 301.296875 315.039062 297.753906 314.898438 C 292.824219 311.148438 289.003906 306.144531 284.070312 302.394531 C 268.09375 302.464844 252.117188 302.464844 236.140625 302.601562 C 236.140625 307.1875 236.140625 311.773438 236.140625 316.355469 C 234.332031 318.023438 232.109375 319.273438 230.582031 321.289062 C 230.375 324.902344 230.234375 328.582031 230.652344 332.195312 C 233.984375 335.183594 237.320312 338.308594 240.65625 341.363281 C 243.226562 343.171875 241.835938 346.78125 242.042969 349.421875 C 240.167969 348.449219 238.847656 346.714844 237.390625 345.253906 C 233.984375 341.710938 230.234375 338.445312 226.691406 335.042969 C 226.207031 334.488281 225.511719 334 225.582031 333.167969 C 225.511719 327.125 225.789062 321.148438 225.71875 315.105469 C 225.789062 314.203125 225.582031 313.300781 225.929688 312.535156 C 227.386719 310.871094 229.402344 309.828125 230.789062 308.089844 C 231.136719 304.894531 230.722656 301.699219 230.789062 298.503906 Z M 230.789062 298.503906 " fill-opacity="1" fill-rule="nonzero"/><path fill="#ffffff" d="M 311.09375 314.203125 C 312.828125 313.160156 315.675781 314.203125 315.953125 316.355469 C 316.300781 318.164062 314.425781 319.898438 312.691406 319.550781 C 310.1875 319.550781 308.867188 315.59375 311.09375 314.203125 Z M 311.09375 314.203125 " fill-opacity="1" fill-rule="nonzero"/><path fill="#ffffff" d="M 299.421875 326.359375 C 301.4375 325.527344 303.589844 327.472656 303.171875 329.554688 C 302.894531 332.054688 298.933594 332.75 297.824219 330.527344 C 296.710938 329 297.753906 326.847656 299.421875 326.359375 Z M 299.421875 326.359375 " fill-opacity="1" fill-rule="nonzero"/><path fill="#ffffff" d="M 279.695312 329.695312 C 281.570312 328.511719 284.140625 330.390625 283.863281 332.542969 C 284 335.53125 279.347656 336.015625 278.304688 333.515625 C 277.402344 332.125 278.375 330.457031 279.695312 329.695312 Z M 279.695312 329.695312 " fill-opacity="1" fill-rule="nonzero"/><path fill="#ffffff" d="M 262.328125 332.195312 C 264.34375 330.738281 267.328125 333.027344 266.632812 335.390625 C 266.285156 337.40625 263.71875 338.308594 262.121094 337.265625 C 260.242188 336.085938 260.730469 333.238281 262.328125 332.195312 Z M 262.328125 332.195312 " fill-opacity="1" fill-rule="nonzero"/><path fill="#ffffff" d="M 209.394531 343.796875 C 211.480469 343.03125 213.839844 345.394531 213.148438 347.476562 C 212.382812 349.769531 208.699219 350.464844 207.449219 348.171875 C 206.410156 346.503906 207.660156 344.28125 209.394531 343.796875 Z M 209.394531 343.796875 " fill-opacity="1" fill-rule="nonzero"/><path fill="#ffffff" d="M 255.3125 345.53125 C 257.1875 344.558594 259.894531 346.089844 259.6875 348.242188 C 259.550781 350.464844 256.5625 351.644531 254.894531 350.257812 C 253.160156 349.144531 253.367188 346.226562 255.3125 345.53125 Z M 255.3125 345.53125 " fill-opacity="1" fill-rule="nonzero"/><path fill="#ffffff" d="M 241.347656 351.296875 C 243.15625 350.257812 245.726562 351.855469 245.378906 354.007812 C 245.308594 356.300781 242.113281 357.480469 240.515625 355.8125 C 238.988281 354.5625 239.402344 351.855469 241.347656 351.296875 Z M 241.347656 351.296875 " fill-opacity="1" fill-rule="nonzero"/><path fill="#ffffff" d="M 222.871094 351.992188 C 224.261719 351.019531 226.414062 351.296875 227.316406 352.894531 C 228.566406 354.980469 226.207031 357.898438 223.84375 356.992188 C 221.550781 356.578125 220.648438 353.105469 222.871094 351.992188 Z M 222.871094 351.992188 " fill-opacity="1" fill-rule="nonzero"/></svg>